G04 #@! TF.GenerationSoftware,KiCad,Pcbnew,5.0.2-bee76a0~70~ubuntu18.04.1*
G04 #@! TF.CreationDate,2019-10-09T11:35:59+02:00*
G04 #@! TF.ProjectId,AmpMeter,416d704d-6574-4657-922e-6b696361645f,rev?*
G04 #@! TF.SameCoordinates,Original*
G04 #@! TF.FileFunction,Copper,L2,Bot*
G04 #@! TF.FilePolarity,Positive*
%FSLAX46Y46*%
G04 Gerber Fmt 4.6, Leading zero omitted, Abs format (unit mm)*
G04 Created by KiCad (PCBNEW 5.0.2-bee76a0~70~ubuntu18.04.1) date Mi 09 Okt 2019 11:35:59 CEST*
%MOMM*%
%LPD*%
G01*
G04 APERTURE LIST*
G04 #@! TA.AperFunction,ComponentPad*
%ADD10O,1.600000X1.600000*%
G04 #@! TD*
G04 #@! TA.AperFunction,ComponentPad*
%ADD11R,1.600000X1.600000*%
G04 #@! TD*
G04 #@! TA.AperFunction,ComponentPad*
%ADD12C,2.600000*%
G04 #@! TD*
G04 #@! TA.AperFunction,ComponentPad*
%ADD13R,2.600000X2.600000*%
G04 #@! TD*
G04 #@! TA.AperFunction,ComponentPad*
%ADD14C,2.000000*%
G04 #@! TD*
G04 #@! TA.AperFunction,ComponentPad*
%ADD15R,2.000000X2.000000*%
G04 #@! TD*
G04 #@! TA.AperFunction,ComponentPad*
%ADD16C,2.500000*%
G04 #@! TD*
G04 #@! TA.AperFunction,ComponentPad*
%ADD17R,2.500000X2.500000*%
G04 #@! TD*
G04 #@! TA.AperFunction,ComponentPad*
%ADD18C,1.600000*%
G04 #@! TD*
G04 #@! TA.AperFunction,ComponentPad*
%ADD19R,1.400000X2.000000*%
G04 #@! TD*
G04 #@! TA.AperFunction,ComponentPad*
%ADD20O,1.400000X2.000000*%
G04 #@! TD*
G04 #@! TA.AperFunction,ViaPad*
%ADD21C,0.800000*%
G04 #@! TD*
G04 #@! TA.AperFunction,Conductor*
%ADD22C,0.500000*%
G04 #@! TD*
G04 #@! TA.AperFunction,Conductor*
%ADD23C,1.000000*%
G04 #@! TD*
G04 #@! TA.AperFunction,Conductor*
%ADD24C,0.254000*%
G04 #@! TD*
G04 APERTURE END LIST*
D10*
G04 #@! TO.P,A1,16*
G04 #@! TO.N,N/C*
X114808000Y-52324000D03*
G04 #@! TO.P,A1,15*
X114808000Y-67564000D03*
G04 #@! TO.P,A1,30*
G04 #@! TO.N,Net-(A1-Pad30)*
X79248000Y-52324000D03*
G04 #@! TO.P,A1,14*
G04 #@! TO.N,N/C*
X112268000Y-67564000D03*
G04 #@! TO.P,A1,29*
G04 #@! TO.N,Net-(A1-Pad29)*
X81788000Y-52324000D03*
G04 #@! TO.P,A1,13*
G04 #@! TO.N,N/C*
X109728000Y-67564000D03*
G04 #@! TO.P,A1,28*
G04 #@! TO.N,Net-(A1-Pad28)*
X84328000Y-52324000D03*
G04 #@! TO.P,A1,12*
G04 #@! TO.N,N/C*
X107188000Y-67564000D03*
G04 #@! TO.P,A1,27*
X86868000Y-52324000D03*
G04 #@! TO.P,A1,11*
X104648000Y-67564000D03*
G04 #@! TO.P,A1,26*
X89408000Y-52324000D03*
G04 #@! TO.P,A1,10*
X102108000Y-67564000D03*
G04 #@! TO.P,A1,25*
X91948000Y-52324000D03*
G04 #@! TO.P,A1,9*
X99568000Y-67564000D03*
G04 #@! TO.P,A1,24*
G04 #@! TO.N,Net-(A1-Pad24)*
X94488000Y-52324000D03*
G04 #@! TO.P,A1,8*
G04 #@! TO.N,N/C*
X97028000Y-67564000D03*
G04 #@! TO.P,A1,23*
G04 #@! TO.N,Net-(A1-Pad23)*
X97028000Y-52324000D03*
G04 #@! TO.P,A1,7*
G04 #@! TO.N,N/C*
X94488000Y-67564000D03*
G04 #@! TO.P,A1,22*
G04 #@! TO.N,Net-(A1-Pad22)*
X99568000Y-52324000D03*
G04 #@! TO.P,A1,6*
G04 #@! TO.N,N/C*
X91948000Y-67564000D03*
G04 #@! TO.P,A1,21*
G04 #@! TO.N,ct1_2*
X102108000Y-52324000D03*
G04 #@! TO.P,A1,5*
G04 #@! TO.N,N/C*
X89408000Y-67564000D03*
G04 #@! TO.P,A1,20*
G04 #@! TO.N,ct2_2*
X104648000Y-52324000D03*
G04 #@! TO.P,A1,4*
G04 #@! TO.N,Net-(A1-Pad29)*
X86868000Y-67564000D03*
G04 #@! TO.P,A1,19*
G04 #@! TO.N,ct3_2*
X107188000Y-52324000D03*
G04 #@! TO.P,A1,3*
G04 #@! TO.N,N/C*
X84328000Y-67564000D03*
G04 #@! TO.P,A1,18*
X109728000Y-52324000D03*
G04 #@! TO.P,A1,2*
G04 #@! TO.N,Net-(A1-Pad2)*
X81788000Y-67564000D03*
G04 #@! TO.P,A1,17*
G04 #@! TO.N,N/C*
X112268000Y-52324000D03*
D11*
G04 #@! TO.P,A1,1*
G04 #@! TO.N,Net-(A1-Pad1)*
X79248000Y-67564000D03*
G04 #@! TD*
D12*
G04 #@! TO.P,J1,4*
G04 #@! TO.N,Net-(J1-Pad4)*
X52846000Y-20574000D03*
G04 #@! TO.P,J1,3*
G04 #@! TO.N,Net-(F1-Pad2)*
X47846000Y-20574000D03*
G04 #@! TO.P,J1,2*
G04 #@! TO.N,Net-(F3-Pad2)*
X42846000Y-20574000D03*
D13*
G04 #@! TO.P,J1,1*
G04 #@! TO.N,Net-(F4-Pad2)*
X37846000Y-20574000D03*
G04 #@! TD*
D12*
G04 #@! TO.P,J2,4*
G04 #@! TO.N,Net-(J2-Pad4)*
X147334000Y-71628000D03*
G04 #@! TO.P,J2,3*
G04 #@! TO.N,Net-(J2-Pad3)*
X142334000Y-71628000D03*
G04 #@! TO.P,J2,2*
G04 #@! TO.N,Net-(J2-Pad2)*
X137334000Y-71628000D03*
D13*
G04 #@! TO.P,J2,1*
G04 #@! TO.N,Net-(J2-Pad1)*
X132334000Y-71628000D03*
G04 #@! TD*
D12*
G04 #@! TO.P,J6,6*
G04 #@! TO.N,ct3_2*
X146412000Y-18034000D03*
G04 #@! TO.P,J6,5*
G04 #@! TO.N,ct3_1*
X141412000Y-18034000D03*
G04 #@! TO.P,J6,4*
G04 #@! TO.N,ct2_2*
X136412000Y-18034000D03*
G04 #@! TO.P,J6,3*
G04 #@! TO.N,ct2_1*
X131412000Y-18034000D03*
G04 #@! TO.P,J6,2*
G04 #@! TO.N,ct1_2*
X126412000Y-18034000D03*
D13*
G04 #@! TO.P,J6,1*
G04 #@! TO.N,ct1_1*
X121412000Y-18034000D03*
G04 #@! TD*
D14*
G04 #@! TO.P,T1,8*
G04 #@! TO.N,N/C*
X89154000Y-45734000D03*
G04 #@! TO.P,T1,7*
G04 #@! TO.N,Net-(R3-Pad1)*
X84154000Y-45734000D03*
G04 #@! TO.P,T1,6*
G04 #@! TO.N,Net-(C1-Pad1)*
X79154000Y-45734000D03*
G04 #@! TO.P,T1,5*
G04 #@! TO.N,N/C*
X74154000Y-45734000D03*
G04 #@! TO.P,T1,4*
G04 #@! TO.N,Net-(J1-Pad4)*
X74154000Y-30734000D03*
G04 #@! TO.P,T1,2*
G04 #@! TO.N,N/C*
X84154000Y-30734000D03*
D15*
G04 #@! TO.P,T1,1*
G04 #@! TO.N,Net-(F2-Pad1)*
X89154000Y-30734000D03*
G04 #@! TD*
D14*
G04 #@! TO.P,T2,8*
G04 #@! TO.N,N/C*
X64770000Y-45734000D03*
G04 #@! TO.P,T2,7*
G04 #@! TO.N,Net-(R5-Pad1)*
X59770000Y-45734000D03*
G04 #@! TO.P,T2,6*
G04 #@! TO.N,Net-(C2-Pad1)*
X54770000Y-45734000D03*
G04 #@! TO.P,T2,5*
G04 #@! TO.N,N/C*
X49770000Y-45734000D03*
G04 #@! TO.P,T2,4*
G04 #@! TO.N,Net-(J1-Pad4)*
X49770000Y-30734000D03*
G04 #@! TO.P,T2,2*
G04 #@! TO.N,N/C*
X59770000Y-30734000D03*
D15*
G04 #@! TO.P,T2,1*
G04 #@! TO.N,Net-(F3-Pad1)*
X64770000Y-30734000D03*
G04 #@! TD*
D14*
G04 #@! TO.P,T3,8*
G04 #@! TO.N,N/C*
X40640000Y-45734000D03*
G04 #@! TO.P,T3,7*
G04 #@! TO.N,Net-(R7-Pad1)*
X35640000Y-45734000D03*
G04 #@! TO.P,T3,6*
G04 #@! TO.N,Net-(C3-Pad1)*
X30640000Y-45734000D03*
G04 #@! TO.P,T3,5*
G04 #@! TO.N,N/C*
X25640000Y-45734000D03*
G04 #@! TO.P,T3,4*
G04 #@! TO.N,Net-(J1-Pad4)*
X25640000Y-30734000D03*
G04 #@! TO.P,T3,2*
G04 #@! TO.N,N/C*
X35640000Y-30734000D03*
D15*
G04 #@! TO.P,T3,1*
G04 #@! TO.N,Net-(F4-Pad1)*
X40640000Y-30734000D03*
G04 #@! TD*
D10*
G04 #@! TO.P,U1,4*
G04 #@! TO.N,Net-(A1-Pad2)*
X140970000Y-49022000D03*
G04 #@! TO.P,U1,2*
G04 #@! TO.N,Net-(J2-Pad3)*
X143510000Y-56642000D03*
G04 #@! TO.P,U1,3*
G04 #@! TO.N,Net-(A1-Pad29)*
X143510000Y-49022000D03*
D11*
G04 #@! TO.P,U1,1*
G04 #@! TO.N,Net-(R2-Pad1)*
X140970000Y-56642000D03*
G04 #@! TD*
D10*
G04 #@! TO.P,U2,4*
G04 #@! TO.N,Net-(J2-Pad2)*
X138430000Y-56642000D03*
G04 #@! TO.P,U2,2*
G04 #@! TO.N,Net-(A1-Pad1)*
X135890000Y-49022000D03*
G04 #@! TO.P,U2,3*
G04 #@! TO.N,Net-(J2-Pad1)*
X135890000Y-56642000D03*
D11*
G04 #@! TO.P,U2,1*
G04 #@! TO.N,Net-(R9-Pad2)*
X138430000Y-49022000D03*
G04 #@! TD*
D16*
G04 #@! TO.P,PS1,4*
G04 #@! TO.N,Net-(A1-Pad30)*
X96506000Y-47386000D03*
D17*
G04 #@! TO.P,PS1,3*
G04 #@! TO.N,Net-(A1-Pad29)*
X111506000Y-47386000D03*
D16*
G04 #@! TO.P,PS1,1*
G04 #@! TO.N,Net-(J1-Pad4)*
X101506000Y-18386000D03*
G04 #@! TO.P,PS1,2*
G04 #@! TO.N,Net-(F1-Pad1)*
X106506000Y-18386000D03*
G04 #@! TD*
D14*
G04 #@! TO.P,F1,2*
G04 #@! TO.N,Net-(F1-Pad2)*
X82560000Y-18034000D03*
G04 #@! TO.P,F1,1*
G04 #@! TO.N,Net-(F1-Pad1)*
X82550000Y-23114000D03*
G04 #@! TD*
G04 #@! TO.P,F2,2*
G04 #@! TO.N,Net-(F1-Pad2)*
X72146000Y-18034000D03*
G04 #@! TO.P,F2,1*
G04 #@! TO.N,Net-(F2-Pad1)*
X72136000Y-23114000D03*
G04 #@! TD*
G04 #@! TO.P,F3,2*
G04 #@! TO.N,Net-(F3-Pad2)*
X61478000Y-18034000D03*
G04 #@! TO.P,F3,1*
G04 #@! TO.N,Net-(F3-Pad1)*
X61468000Y-23114000D03*
G04 #@! TD*
G04 #@! TO.P,F4,2*
G04 #@! TO.N,Net-(F4-Pad2)*
X29220000Y-18034000D03*
G04 #@! TO.P,F4,1*
G04 #@! TO.N,Net-(F4-Pad1)*
X29210000Y-23114000D03*
G04 #@! TD*
D18*
G04 #@! TO.P,C1,2*
G04 #@! TO.N,Net-(A1-Pad29)*
X68500000Y-59182000D03*
D11*
G04 #@! TO.P,C1,1*
G04 #@! TO.N,Net-(C1-Pad1)*
X63500000Y-59182000D03*
G04 #@! TD*
D18*
G04 #@! TO.P,C2,2*
G04 #@! TO.N,Net-(A1-Pad29)*
X49450000Y-59182000D03*
D11*
G04 #@! TO.P,C2,1*
G04 #@! TO.N,Net-(C2-Pad1)*
X44450000Y-59182000D03*
G04 #@! TD*
D18*
G04 #@! TO.P,C3,2*
G04 #@! TO.N,Net-(A1-Pad29)*
X30654000Y-59182000D03*
D11*
G04 #@! TO.P,C3,1*
G04 #@! TO.N,Net-(C3-Pad1)*
X25654000Y-59182000D03*
G04 #@! TD*
D18*
G04 #@! TO.P,C4,2*
G04 #@! TO.N,Net-(A1-Pad29)*
X122348000Y-34544000D03*
D11*
G04 #@! TO.P,C4,1*
G04 #@! TO.N,ct1_1*
X117348000Y-34544000D03*
G04 #@! TD*
D18*
G04 #@! TO.P,C5,2*
G04 #@! TO.N,Net-(A1-Pad29)*
X135810000Y-34544000D03*
D11*
G04 #@! TO.P,C5,1*
G04 #@! TO.N,ct2_1*
X130810000Y-34544000D03*
G04 #@! TD*
D18*
G04 #@! TO.P,C6,2*
G04 #@! TO.N,Net-(A1-Pad29)*
X150288000Y-34544000D03*
D11*
G04 #@! TO.P,C6,1*
G04 #@! TO.N,ct3_1*
X145288000Y-34544000D03*
G04 #@! TD*
D19*
G04 #@! TO.P,J3,T*
G04 #@! TO.N,ct1_1*
X123710000Y-14320000D03*
D20*
G04 #@! TO.P,J3,R1*
G04 #@! TO.N,N/C*
X122710000Y-21720000D03*
D19*
G04 #@! TO.P,J3,T*
G04 #@! TO.N,ct1_1*
X117210000Y-14320000D03*
D20*
G04 #@! TO.P,J3,S*
G04 #@! TO.N,ct1_2*
X118210000Y-21720000D03*
G04 #@! TD*
G04 #@! TO.P,J4,S*
G04 #@! TO.N,ct2_2*
X131926000Y-21720000D03*
D19*
G04 #@! TO.P,J4,T*
G04 #@! TO.N,ct2_1*
X130926000Y-14320000D03*
D20*
G04 #@! TO.P,J4,R1*
G04 #@! TO.N,N/C*
X136426000Y-21720000D03*
D19*
G04 #@! TO.P,J4,T*
G04 #@! TO.N,ct2_1*
X137426000Y-14320000D03*
G04 #@! TD*
G04 #@! TO.P,J5,T*
G04 #@! TO.N,ct3_1*
X151396000Y-14320000D03*
D20*
G04 #@! TO.P,J5,R1*
G04 #@! TO.N,N/C*
X150396000Y-21720000D03*
D19*
G04 #@! TO.P,J5,T*
G04 #@! TO.N,ct3_1*
X144896000Y-14320000D03*
D20*
G04 #@! TO.P,J5,S*
G04 #@! TO.N,ct3_2*
X145896000Y-21720000D03*
G04 #@! TD*
D11*
G04 #@! TO.P,C7,1*
G04 #@! TO.N,Net-(A1-Pad28)*
X125476000Y-52832000D03*
D18*
G04 #@! TO.P,C7,2*
G04 #@! TO.N,Net-(A1-Pad29)*
X125476000Y-47832000D03*
G04 #@! TD*
D21*
G04 #@! TO.N,Net-(A1-Pad29)*
X96774000Y-41656000D03*
X45212000Y-45720000D03*
X69596000Y-45720000D03*
X22352000Y-61214000D03*
X20320000Y-43942000D03*
G04 #@! TO.N,Net-(A1-Pad22)*
X99568000Y-54610000D03*
G04 #@! TO.N,Net-(A1-Pad23)*
X97028000Y-55626000D03*
G04 #@! TO.N,Net-(A1-Pad24)*
X94488000Y-56642000D03*
G04 #@! TO.N,Net-(A1-Pad28)*
X101346000Y-53848000D03*
G04 #@! TD*
D22*
G04 #@! TO.N,Net-(A1-Pad1)*
X135890000Y-49022000D02*
X133350000Y-49022000D01*
X133350000Y-49022000D02*
X117094000Y-65278000D01*
X81534000Y-65278000D02*
X79248000Y-67564000D01*
X117094000Y-65278000D02*
X81534000Y-65278000D01*
G04 #@! TO.N,Net-(A1-Pad2)*
X117602000Y-66040000D02*
X133350000Y-50292000D01*
X81788000Y-67564000D02*
X83312000Y-66040000D01*
X133350000Y-50292000D02*
X140716000Y-50292000D01*
X83312000Y-66040000D02*
X117602000Y-66040000D01*
X140970000Y-50038000D02*
X140716000Y-50292000D01*
X140970000Y-49022000D02*
X140970000Y-50038000D01*
G04 #@! TO.N,ct1_2*
X118210000Y-21720000D02*
X118210000Y-23268000D01*
X118210000Y-23268000D02*
X116078000Y-25400000D01*
X116078000Y-38354000D02*
X102108000Y-52324000D01*
X116078000Y-25400000D02*
X116078000Y-38354000D01*
G04 #@! TO.N,Net-(A1-Pad29)*
X135810000Y-34544000D02*
X135810000Y-34718000D01*
X111506000Y-47386000D02*
X116952000Y-47386000D01*
X122348000Y-41990000D02*
X122348000Y-34544000D01*
X116952000Y-47386000D02*
X122348000Y-41990000D01*
D23*
X81788000Y-52324000D02*
X74930000Y-59182000D01*
X74930000Y-59182000D02*
X68500000Y-59182000D01*
X68500000Y-59182000D02*
X68500000Y-60786000D01*
X68500000Y-60786000D02*
X66802000Y-62484000D01*
X66802000Y-62484000D02*
X50546000Y-62484000D01*
X49450000Y-61388000D02*
X49450000Y-59182000D01*
X50546000Y-62484000D02*
X49450000Y-61388000D01*
X49450000Y-59182000D02*
X49450000Y-61548000D01*
X49450000Y-61548000D02*
X48514000Y-62484000D01*
X48514000Y-62484000D02*
X31750000Y-62484000D01*
X30654000Y-61388000D02*
X30654000Y-59182000D01*
X31750000Y-62484000D02*
X30654000Y-61388000D01*
D22*
X125030000Y-47386000D02*
X125476000Y-47832000D01*
X111506000Y-47386000D02*
X125030000Y-47386000D01*
G04 #@! TO.N,ct2_2*
X106680000Y-50292000D02*
X104648000Y-52324000D01*
X125984000Y-50292000D02*
X106680000Y-50292000D01*
X132588000Y-33020000D02*
X132588000Y-43688000D01*
X132588000Y-43688000D02*
X125984000Y-50292000D01*
X131926000Y-21720000D02*
X131926000Y-32358000D01*
X131926000Y-32358000D02*
X132588000Y-33020000D01*
G04 #@! TO.N,ct3_2*
X108458000Y-51054000D02*
X107188000Y-52324000D01*
X126238000Y-51054000D02*
X108458000Y-51054000D01*
X145896000Y-21720000D02*
X145896000Y-31396000D01*
X145896000Y-31396000D02*
X126238000Y-51054000D01*
G04 #@! TO.N,Net-(A1-Pad22)*
X99568000Y-54610000D02*
X99568000Y-52324000D01*
G04 #@! TO.N,Net-(A1-Pad23)*
X97028000Y-55626000D02*
X97028000Y-52324000D01*
G04 #@! TO.N,Net-(A1-Pad24)*
X94488000Y-56642000D02*
X94488000Y-52324000D01*
D23*
G04 #@! TO.N,Net-(A1-Pad30)*
X96506000Y-47386000D02*
X95362000Y-47386000D01*
X94996000Y-47752000D02*
X83820000Y-47752000D01*
X95362000Y-47386000D02*
X94996000Y-47752000D01*
X83820000Y-47752000D02*
X79248000Y-52324000D01*
D22*
G04 #@! TO.N,Net-(C1-Pad1)*
X65706000Y-59182000D02*
X79154000Y-45734000D01*
X63500000Y-59182000D02*
X65706000Y-59182000D01*
G04 #@! TO.N,Net-(C2-Pad1)*
X44450000Y-56054000D02*
X54770000Y-45734000D01*
X44450000Y-59182000D02*
X44450000Y-56054000D01*
G04 #@! TO.N,Net-(C3-Pad1)*
X25654000Y-50720000D02*
X30640000Y-45734000D01*
X25654000Y-59182000D02*
X25654000Y-50720000D01*
G04 #@! TO.N,ct1_1*
X117348000Y-34544000D02*
X117348000Y-25400000D01*
X121412000Y-21336000D02*
X121412000Y-18034000D01*
X117348000Y-25400000D02*
X121412000Y-21336000D01*
X123710000Y-14320000D02*
X117210000Y-14320000D01*
G04 #@! TO.N,ct2_1*
X130302000Y-19144000D02*
X131412000Y-18034000D01*
X130302000Y-22860000D02*
X130302000Y-19144000D01*
X130810000Y-34544000D02*
X130810000Y-23368000D01*
X130810000Y-23368000D02*
X130302000Y-22860000D01*
X130926000Y-14320000D02*
X137426000Y-14320000D01*
G04 #@! TO.N,ct3_1*
X144896000Y-14320000D02*
X151396000Y-14320000D01*
G04 #@! TO.N,Net-(F1-Pad2)*
X82560000Y-18034000D02*
X72146000Y-18034000D01*
X72146000Y-18034000D02*
X65786000Y-18034000D01*
X65786000Y-18034000D02*
X63500000Y-20320000D01*
X63500000Y-20320000D02*
X57912000Y-20320000D01*
X57912000Y-20320000D02*
X54864000Y-17272000D01*
X51148000Y-17272000D02*
X47846000Y-20574000D01*
X54864000Y-17272000D02*
X51148000Y-17272000D01*
G04 #@! TO.N,Net-(F1-Pad1)*
X82550000Y-23114000D02*
X92202000Y-23114000D01*
X92202000Y-23114000D02*
X99822000Y-15494000D01*
X103614000Y-15494000D02*
X106506000Y-18386000D01*
X99822000Y-15494000D02*
X103614000Y-15494000D01*
G04 #@! TO.N,Net-(F2-Pad1)*
X72136000Y-23114000D02*
X76454000Y-23114000D01*
X76454000Y-23114000D02*
X80772000Y-27432000D01*
X85852000Y-27432000D02*
X89154000Y-30734000D01*
X80772000Y-27432000D02*
X85852000Y-27432000D01*
G04 #@! TO.N,Net-(F3-Pad1)*
X61468000Y-27432000D02*
X64770000Y-30734000D01*
X61468000Y-23114000D02*
X61468000Y-27432000D01*
G04 #@! TO.N,Net-(F4-Pad1)*
X33020000Y-23114000D02*
X40640000Y-30734000D01*
X29210000Y-23114000D02*
X33020000Y-23114000D01*
G04 #@! TO.N,Net-(F4-Pad2)*
X31760000Y-20574000D02*
X29220000Y-18034000D01*
X37846000Y-20574000D02*
X31760000Y-20574000D01*
G04 #@! TO.N,Net-(J1-Pad4)*
X52846000Y-27658000D02*
X49770000Y-30734000D01*
X52846000Y-20574000D02*
X52846000Y-27658000D01*
X49770000Y-30734000D02*
X49770000Y-32526000D01*
X49770000Y-32526000D02*
X49276000Y-33020000D01*
X27926000Y-33020000D02*
X25640000Y-30734000D01*
X49276000Y-33020000D02*
X27926000Y-33020000D01*
X49770000Y-30734000D02*
X49770000Y-32498000D01*
X49770000Y-32498000D02*
X50292000Y-33020000D01*
X71868000Y-33020000D02*
X74154000Y-30734000D01*
X50292000Y-33020000D02*
X71868000Y-33020000D01*
X101506000Y-24732000D02*
X101506000Y-18386000D01*
X93218000Y-33020000D02*
X101506000Y-24732000D01*
X76454000Y-33020000D02*
X93218000Y-33020000D01*
X74154000Y-30734000D02*
X74168000Y-30734000D01*
X74168000Y-30734000D02*
X76454000Y-33020000D01*
G04 #@! TO.N,Net-(J2-Pad1)*
X135890000Y-68072000D02*
X132334000Y-71628000D01*
X135890000Y-56642000D02*
X135890000Y-68072000D01*
G04 #@! TO.N,Net-(J2-Pad2)*
X138430000Y-70532000D02*
X137334000Y-71628000D01*
X138430000Y-56642000D02*
X138430000Y-70532000D01*
G04 #@! TO.N,Net-(J2-Pad3)*
X143510000Y-70452000D02*
X142334000Y-71628000D01*
X143510000Y-56642000D02*
X143510000Y-70452000D01*
G04 #@! TO.N,Net-(A1-Pad28)*
X125476000Y-52832000D02*
X117094000Y-52832000D01*
X117094000Y-52832000D02*
X116078000Y-53848000D01*
X116078000Y-53848000D02*
X101346000Y-53848000D01*
X101346000Y-53848000D02*
X101346000Y-53848000D01*
G04 #@! TD*
D24*
G04 #@! TO.N,Net-(A1-Pad29)*
G36*
X153035000Y-52197000D02*
X133604000Y-52197000D01*
X133555399Y-52206667D01*
X133514197Y-52234197D01*
X121322197Y-64426197D01*
X121294667Y-64467399D01*
X121285000Y-64516000D01*
X121285000Y-66109786D01*
X121284227Y-66111652D01*
X121281647Y-66117880D01*
X121251195Y-66270973D01*
X121210000Y-66478075D01*
X121210001Y-80587926D01*
X121223643Y-80656509D01*
X121223643Y-80656514D01*
X121281647Y-80948119D01*
X121281647Y-80948120D01*
X121285000Y-80956215D01*
X121285000Y-82323000D01*
X19023000Y-82323000D01*
X19023000Y-66764000D01*
X77800560Y-66764000D01*
X77800560Y-68364000D01*
X77849843Y-68611765D01*
X77990191Y-68821809D01*
X78200235Y-68962157D01*
X78448000Y-69011440D01*
X80048000Y-69011440D01*
X80295765Y-68962157D01*
X80505809Y-68821809D01*
X80646157Y-68611765D01*
X80672785Y-68477894D01*
X80753423Y-68598577D01*
X81228091Y-68915740D01*
X81646667Y-68999000D01*
X81929333Y-68999000D01*
X82347909Y-68915740D01*
X82822577Y-68598577D01*
X83058000Y-68246242D01*
X83293423Y-68598577D01*
X83768091Y-68915740D01*
X84186667Y-68999000D01*
X84469333Y-68999000D01*
X84887909Y-68915740D01*
X85362577Y-68598577D01*
X85618947Y-68214892D01*
X85715611Y-68419134D01*
X86130577Y-68795041D01*
X86518961Y-68955904D01*
X86741000Y-68833915D01*
X86741000Y-67691000D01*
X86721000Y-67691000D01*
X86721000Y-67437000D01*
X86741000Y-67437000D01*
X86741000Y-67417000D01*
X86995000Y-67417000D01*
X86995000Y-67437000D01*
X87015000Y-67437000D01*
X87015000Y-67691000D01*
X86995000Y-67691000D01*
X86995000Y-68833915D01*
X87217039Y-68955904D01*
X87605423Y-68795041D01*
X88020389Y-68419134D01*
X88117053Y-68214892D01*
X88373423Y-68598577D01*
X88848091Y-68915740D01*
X89266667Y-68999000D01*
X89549333Y-68999000D01*
X89967909Y-68915740D01*
X90442577Y-68598577D01*
X90678000Y-68246242D01*
X90913423Y-68598577D01*
X91388091Y-68915740D01*
X91806667Y-68999000D01*
X92089333Y-68999000D01*
X92507909Y-68915740D01*
X92982577Y-68598577D01*
X93218000Y-68246242D01*
X93453423Y-68598577D01*
X93928091Y-68915740D01*
X94346667Y-68999000D01*
X94629333Y-68999000D01*
X95047909Y-68915740D01*
X95522577Y-68598577D01*
X95758000Y-68246242D01*
X95993423Y-68598577D01*
X96468091Y-68915740D01*
X96886667Y-68999000D01*
X97169333Y-68999000D01*
X97587909Y-68915740D01*
X98062577Y-68598577D01*
X98298000Y-68246242D01*
X98533423Y-68598577D01*
X99008091Y-68915740D01*
X99426667Y-68999000D01*
X99709333Y-68999000D01*
X100127909Y-68915740D01*
X100602577Y-68598577D01*
X100838000Y-68246242D01*
X101073423Y-68598577D01*
X101548091Y-68915740D01*
X101966667Y-68999000D01*
X102249333Y-68999000D01*
X102667909Y-68915740D01*
X103142577Y-68598577D01*
X103378000Y-68246242D01*
X103613423Y-68598577D01*
X104088091Y-68915740D01*
X104506667Y-68999000D01*
X104789333Y-68999000D01*
X105207909Y-68915740D01*
X105682577Y-68598577D01*
X105918000Y-68246242D01*
X106153423Y-68598577D01*
X106628091Y-68915740D01*
X107046667Y-68999000D01*
X107329333Y-68999000D01*
X107747909Y-68915740D01*
X108222577Y-68598577D01*
X108458000Y-68246242D01*
X108693423Y-68598577D01*
X109168091Y-68915740D01*
X109586667Y-68999000D01*
X109869333Y-68999000D01*
X110287909Y-68915740D01*
X110762577Y-68598577D01*
X110998000Y-68246242D01*
X111233423Y-68598577D01*
X111708091Y-68915740D01*
X112126667Y-68999000D01*
X112409333Y-68999000D01*
X112827909Y-68915740D01*
X113302577Y-68598577D01*
X113538000Y-68246242D01*
X113773423Y-68598577D01*
X114248091Y-68915740D01*
X114666667Y-68999000D01*
X114949333Y-68999000D01*
X115367909Y-68915740D01*
X115842577Y-68598577D01*
X116159740Y-68123909D01*
X116271113Y-67564000D01*
X116159740Y-67004091D01*
X116106893Y-66925000D01*
X117514839Y-66925000D01*
X117602000Y-66942337D01*
X117689161Y-66925000D01*
X117689165Y-66925000D01*
X117947310Y-66873652D01*
X118240049Y-66678049D01*
X118289425Y-66604153D01*
X133716579Y-51177000D01*
X140628839Y-51177000D01*
X140716000Y-51194337D01*
X140803161Y-51177000D01*
X140803165Y-51177000D01*
X141061310Y-51125652D01*
X141354049Y-50930049D01*
X141403425Y-50856153D01*
X141534153Y-50725425D01*
X141608049Y-50676049D01*
X141803652Y-50383310D01*
X141847807Y-50161327D01*
X142004577Y-50056577D01*
X142260947Y-49672892D01*
X142357611Y-49877134D01*
X142772577Y-50253041D01*
X143160961Y-50413904D01*
X143383000Y-50291915D01*
X143383000Y-49149000D01*
X143637000Y-49149000D01*
X143637000Y-50291915D01*
X143859039Y-50413904D01*
X144247423Y-50253041D01*
X144662389Y-49877134D01*
X144901914Y-49371041D01*
X144780629Y-49149000D01*
X143637000Y-49149000D01*
X143383000Y-49149000D01*
X143363000Y-49149000D01*
X143363000Y-48895000D01*
X143383000Y-48895000D01*
X143383000Y-47752085D01*
X143637000Y-47752085D01*
X143637000Y-48895000D01*
X144780629Y-48895000D01*
X144901914Y-48672959D01*
X144662389Y-48166866D01*
X144247423Y-47790959D01*
X143859039Y-47630096D01*
X143637000Y-47752085D01*
X143383000Y-47752085D01*
X143160961Y-47630096D01*
X142772577Y-47790959D01*
X142357611Y-48166866D01*
X142260947Y-48371108D01*
X142004577Y-47987423D01*
X141529909Y-47670260D01*
X141111333Y-47587000D01*
X140828667Y-47587000D01*
X140410091Y-47670260D01*
X139935423Y-47987423D01*
X139854785Y-48108106D01*
X139828157Y-47974235D01*
X139687809Y-47764191D01*
X139477765Y-47623843D01*
X139230000Y-47574560D01*
X137630000Y-47574560D01*
X137382235Y-47623843D01*
X137172191Y-47764191D01*
X137031843Y-47974235D01*
X137005215Y-48108106D01*
X136924577Y-47987423D01*
X136449909Y-47670260D01*
X136031333Y-47587000D01*
X135748667Y-47587000D01*
X135330091Y-47670260D01*
X134855423Y-47987423D01*
X134755479Y-48137000D01*
X133437161Y-48137000D01*
X133350000Y-48119663D01*
X133262839Y-48137000D01*
X133262835Y-48137000D01*
X133019239Y-48185454D01*
X133004690Y-48188348D01*
X132785845Y-48334576D01*
X132785844Y-48334577D01*
X132711951Y-48383951D01*
X132662577Y-48457844D01*
X116727422Y-64393000D01*
X81621159Y-64393000D01*
X81533999Y-64375663D01*
X81446839Y-64393000D01*
X81446835Y-64393000D01*
X81188690Y-64444348D01*
X81120682Y-64489790D01*
X80969845Y-64590576D01*
X80969844Y-64590577D01*
X80895951Y-64639951D01*
X80846577Y-64713844D01*
X79443862Y-66116560D01*
X78448000Y-66116560D01*
X78200235Y-66165843D01*
X77990191Y-66306191D01*
X77849843Y-66516235D01*
X77800560Y-66764000D01*
X19023000Y-66764000D01*
X19023000Y-58382000D01*
X24206560Y-58382000D01*
X24206560Y-59982000D01*
X24255843Y-60229765D01*
X24396191Y-60439809D01*
X24606235Y-60580157D01*
X24854000Y-60629440D01*
X26454000Y-60629440D01*
X26701765Y-60580157D01*
X26911809Y-60439809D01*
X27052157Y-60229765D01*
X27060117Y-60189745D01*
X29825861Y-60189745D01*
X29899995Y-60435864D01*
X30437223Y-60628965D01*
X31007454Y-60601778D01*
X31408005Y-60435864D01*
X31482139Y-60189745D01*
X30654000Y-59361605D01*
X29825861Y-60189745D01*
X27060117Y-60189745D01*
X27101440Y-59982000D01*
X27101440Y-58965223D01*
X29207035Y-58965223D01*
X29234222Y-59535454D01*
X29400136Y-59936005D01*
X29646255Y-60010139D01*
X30474395Y-59182000D01*
X30833605Y-59182000D01*
X31661745Y-60010139D01*
X31907864Y-59936005D01*
X32100965Y-59398777D01*
X32073778Y-58828546D01*
X31907864Y-58427995D01*
X31755165Y-58382000D01*
X43002560Y-58382000D01*
X43002560Y-59982000D01*
X43051843Y-60229765D01*
X43192191Y-60439809D01*
X43402235Y-60580157D01*
X43650000Y-60629440D01*
X45250000Y-60629440D01*
X45497765Y-60580157D01*
X45707809Y-60439809D01*
X45848157Y-60229765D01*
X45856117Y-60189745D01*
X48621861Y-60189745D01*
X48695995Y-60435864D01*
X49233223Y-60628965D01*
X49803454Y-60601778D01*
X50204005Y-60435864D01*
X50278139Y-60189745D01*
X49450000Y-59361605D01*
X48621861Y-60189745D01*
X45856117Y-60189745D01*
X45897440Y-59982000D01*
X45897440Y-58965223D01*
X48003035Y-58965223D01*
X48030222Y-59535454D01*
X48196136Y-59936005D01*
X48442255Y-60010139D01*
X49270395Y-59182000D01*
X49629605Y-59182000D01*
X50457745Y-60010139D01*
X50703864Y-59936005D01*
X50896965Y-59398777D01*
X50869778Y-58828546D01*
X50703864Y-58427995D01*
X50551165Y-58382000D01*
X62052560Y-58382000D01*
X62052560Y-59982000D01*
X62101843Y-60229765D01*
X62242191Y-60439809D01*
X62452235Y-60580157D01*
X62700000Y-60629440D01*
X64300000Y-60629440D01*
X64547765Y-60580157D01*
X64757809Y-60439809D01*
X64898157Y-60229765D01*
X64906117Y-60189745D01*
X67671861Y-60189745D01*
X67745995Y-60435864D01*
X68283223Y-60628965D01*
X68853454Y-60601778D01*
X69254005Y-60435864D01*
X69328139Y-60189745D01*
X68500000Y-59361605D01*
X67671861Y-60189745D01*
X64906117Y-60189745D01*
X64930533Y-60067000D01*
X65618839Y-60067000D01*
X65706000Y-60084337D01*
X65793161Y-60067000D01*
X65793165Y-60067000D01*
X66051310Y-60015652D01*
X66344049Y-59820049D01*
X66393425Y-59746153D01*
X67058556Y-59081022D01*
X67080222Y-59535454D01*
X67246136Y-59936005D01*
X67492255Y-60010139D01*
X68320395Y-59182000D01*
X68679605Y-59182000D01*
X69507745Y-60010139D01*
X69753864Y-59936005D01*
X69946965Y-59398777D01*
X69919778Y-58828546D01*
X69753864Y-58427995D01*
X69507745Y-58353861D01*
X68679605Y-59182000D01*
X68320395Y-59182000D01*
X68306252Y-59167858D01*
X68485858Y-58988252D01*
X68500000Y-59002395D01*
X69328139Y-58174255D01*
X69254005Y-57928136D01*
X68716777Y-57735035D01*
X68388911Y-57750667D01*
X73815578Y-52324000D01*
X77784887Y-52324000D01*
X77896260Y-52883909D01*
X78213423Y-53358577D01*
X78688091Y-53675740D01*
X79106667Y-53759000D01*
X79389333Y-53759000D01*
X79807909Y-53675740D01*
X80282577Y-53358577D01*
X80538947Y-52974892D01*
X80635611Y-53179134D01*
X81050577Y-53555041D01*
X81438961Y-53715904D01*
X81661000Y-53593915D01*
X81661000Y-52451000D01*
X81641000Y-52451000D01*
X81641000Y-52197000D01*
X81661000Y-52197000D01*
X81661000Y-52177000D01*
X81915000Y-52177000D01*
X81915000Y-52197000D01*
X81935000Y-52197000D01*
X81935000Y-52451000D01*
X81915000Y-52451000D01*
X81915000Y-53593915D01*
X82137039Y-53715904D01*
X82525423Y-53555041D01*
X82940389Y-53179134D01*
X83037053Y-52974892D01*
X83293423Y-53358577D01*
X83768091Y-53675740D01*
X84186667Y-53759000D01*
X84469333Y-53759000D01*
X84887909Y-53675740D01*
X85362577Y-53358577D01*
X85598000Y-53006242D01*
X85833423Y-53358577D01*
X86308091Y-53675740D01*
X86726667Y-53759000D01*
X87009333Y-53759000D01*
X87427909Y-53675740D01*
X87902577Y-53358577D01*
X88138000Y-53006242D01*
X88373423Y-53358577D01*
X88848091Y-53675740D01*
X89266667Y-53759000D01*
X89549333Y-53759000D01*
X89967909Y-53675740D01*
X90442577Y-53358577D01*
X90678000Y-53006242D01*
X90913423Y-53358577D01*
X91388091Y-53675740D01*
X91806667Y-53759000D01*
X92089333Y-53759000D01*
X92507909Y-53675740D01*
X92982577Y-53358577D01*
X93218000Y-53006242D01*
X93453423Y-53358577D01*
X93603001Y-53458522D01*
X93603000Y-56073993D01*
X93453000Y-56436126D01*
X93453000Y-56847874D01*
X93610569Y-57228280D01*
X93901720Y-57519431D01*
X94282126Y-57677000D01*
X94693874Y-57677000D01*
X95074280Y-57519431D01*
X95365431Y-57228280D01*
X95523000Y-56847874D01*
X95523000Y-56436126D01*
X95373000Y-56073993D01*
X95373000Y-53458521D01*
X95522577Y-53358577D01*
X95758000Y-53006242D01*
X95993423Y-53358577D01*
X96143001Y-53458522D01*
X96143000Y-55057993D01*
X95993000Y-55420126D01*
X95993000Y-55831874D01*
X96150569Y-56212280D01*
X96441720Y-56503431D01*
X96822126Y-56661000D01*
X97233874Y-56661000D01*
X97614280Y-56503431D01*
X97905431Y-56212280D01*
X98063000Y-55831874D01*
X98063000Y-55420126D01*
X97913000Y-55057993D01*
X97913000Y-53458521D01*
X98062577Y-53358577D01*
X98298000Y-53006242D01*
X98533423Y-53358577D01*
X98683001Y-53458521D01*
X98683000Y-54041993D01*
X98533000Y-54404126D01*
X98533000Y-54815874D01*
X98690569Y-55196280D01*
X98981720Y-55487431D01*
X99362126Y-55645000D01*
X99773874Y-55645000D01*
X100154280Y-55487431D01*
X100445431Y-55196280D01*
X100603000Y-54815874D01*
X100603000Y-54568711D01*
X100759720Y-54725431D01*
X101140126Y-54883000D01*
X101551874Y-54883000D01*
X101914007Y-54733000D01*
X115990839Y-54733000D01*
X116078000Y-54750337D01*
X116165161Y-54733000D01*
X116165165Y-54733000D01*
X116423310Y-54681652D01*
X116716049Y-54486049D01*
X116765425Y-54412153D01*
X117460579Y-53717000D01*
X124045467Y-53717000D01*
X124077843Y-53879765D01*
X124218191Y-54089809D01*
X124428235Y-54230157D01*
X124676000Y-54279440D01*
X126276000Y-54279440D01*
X126523765Y-54230157D01*
X126733809Y-54089809D01*
X126874157Y-53879765D01*
X126923440Y-53632000D01*
X126923440Y-52032000D01*
X126874157Y-51784235D01*
X126832156Y-51721377D01*
X126876049Y-51692049D01*
X126925425Y-51618153D01*
X143840560Y-34703019D01*
X143840560Y-35344000D01*
X143889843Y-35591765D01*
X144030191Y-35801809D01*
X144240235Y-35942157D01*
X144488000Y-35991440D01*
X146088000Y-35991440D01*
X146335765Y-35942157D01*
X146545809Y-35801809D01*
X146686157Y-35591765D01*
X146694117Y-35551745D01*
X149459861Y-35551745D01*
X149533995Y-35797864D01*
X150071223Y-35990965D01*
X150641454Y-35963778D01*
X151042005Y-35797864D01*
X151116139Y-35551745D01*
X150288000Y-34723605D01*
X149459861Y-35551745D01*
X146694117Y-35551745D01*
X146735440Y-35344000D01*
X146735440Y-34327223D01*
X148841035Y-34327223D01*
X148868222Y-34897454D01*
X149034136Y-35298005D01*
X149280255Y-35372139D01*
X150108395Y-34544000D01*
X150467605Y-34544000D01*
X151295745Y-35372139D01*
X151541864Y-35298005D01*
X151734965Y-34760777D01*
X151707778Y-34190546D01*
X151541864Y-33789995D01*
X151295745Y-33715861D01*
X150467605Y-34544000D01*
X150108395Y-34544000D01*
X149280255Y-33715861D01*
X149034136Y-33789995D01*
X148841035Y-34327223D01*
X146735440Y-34327223D01*
X146735440Y-33744000D01*
X146694118Y-33536255D01*
X149459861Y-33536255D01*
X150288000Y-34364395D01*
X151116139Y-33536255D01*
X151042005Y-33290136D01*
X150504777Y-33097035D01*
X149934546Y-33124222D01*
X149533995Y-33290136D01*
X149459861Y-33536255D01*
X146694118Y-33536255D01*
X146686157Y-33496235D01*
X146545809Y-33286191D01*
X146335765Y-33145843D01*
X146088000Y-33096560D01*
X145447019Y-33096560D01*
X146460156Y-32083423D01*
X146534049Y-32034049D01*
X146631669Y-31887952D01*
X146729651Y-31741311D01*
X146729652Y-31741310D01*
X146781000Y-31483165D01*
X146781000Y-31483161D01*
X146798337Y-31396001D01*
X146781000Y-31308841D01*
X146781000Y-23034251D01*
X146858480Y-22982481D01*
X147153542Y-22540891D01*
X147231000Y-22151485D01*
X147231000Y-21288516D01*
X147231000Y-21288515D01*
X149061000Y-21288515D01*
X149061000Y-22151484D01*
X149138458Y-22540890D01*
X149433519Y-22982480D01*
X149875109Y-23277542D01*
X150396000Y-23381154D01*
X150916890Y-23277542D01*
X151358480Y-22982481D01*
X151653542Y-22540891D01*
X151731000Y-22151485D01*
X151731000Y-21288516D01*
X151653542Y-20899109D01*
X151358481Y-20457519D01*
X150916891Y-20162458D01*
X150396000Y-20058846D01*
X149875110Y-20162458D01*
X149433520Y-20457519D01*
X149138458Y-20899109D01*
X149061000Y-21288515D01*
X147231000Y-21288515D01*
X147153542Y-20899109D01*
X146858481Y-20457519D01*
X146416891Y-20162458D01*
X145896000Y-20058846D01*
X145375110Y-20162458D01*
X144933520Y-20457519D01*
X144638458Y-20899109D01*
X144561000Y-21288515D01*
X144561000Y-22151484D01*
X144638458Y-22540890D01*
X144933519Y-22982480D01*
X145011000Y-23034251D01*
X145011001Y-31029420D01*
X133473000Y-42567422D01*
X133473000Y-35551745D01*
X134981861Y-35551745D01*
X135055995Y-35797864D01*
X135593223Y-35990965D01*
X136163454Y-35963778D01*
X136564005Y-35797864D01*
X136638139Y-35551745D01*
X135810000Y-34723605D01*
X134981861Y-35551745D01*
X133473000Y-35551745D01*
X133473000Y-34327223D01*
X134363035Y-34327223D01*
X134390222Y-34897454D01*
X134556136Y-35298005D01*
X134802255Y-35372139D01*
X135630395Y-34544000D01*
X135989605Y-34544000D01*
X136817745Y-35372139D01*
X137063864Y-35298005D01*
X137256965Y-34760777D01*
X137229778Y-34190546D01*
X137063864Y-33789995D01*
X136817745Y-33715861D01*
X135989605Y-34544000D01*
X135630395Y-34544000D01*
X134802255Y-33715861D01*
X134556136Y-33789995D01*
X134363035Y-34327223D01*
X133473000Y-34327223D01*
X133473000Y-33536255D01*
X134981861Y-33536255D01*
X135810000Y-34364395D01*
X136638139Y-33536255D01*
X136564005Y-33290136D01*
X136026777Y-33097035D01*
X135456546Y-33124222D01*
X135055995Y-33290136D01*
X134981861Y-33536255D01*
X133473000Y-33536255D01*
X133473000Y-33107159D01*
X133490337Y-33019999D01*
X133473000Y-32932839D01*
X133473000Y-32932835D01*
X133421652Y-32674690D01*
X133303591Y-32498000D01*
X133275424Y-32455845D01*
X133275423Y-32455844D01*
X133226049Y-32381951D01*
X133152156Y-32332577D01*
X132811000Y-31991422D01*
X132811000Y-23034251D01*
X132888480Y-22982481D01*
X133183542Y-22540891D01*
X133261000Y-22151485D01*
X133261000Y-21288516D01*
X133261000Y-21288515D01*
X135091000Y-21288515D01*
X135091000Y-22151484D01*
X135168458Y-22540890D01*
X135463519Y-22982480D01*
X135905109Y-23277542D01*
X136426000Y-23381154D01*
X136946890Y-23277542D01*
X137388480Y-22982481D01*
X137683542Y-22540891D01*
X137761000Y-22151485D01*
X137761000Y-21288516D01*
X137683542Y-20899109D01*
X137388481Y-20457519D01*
X136946891Y-20162458D01*
X136426000Y-20058846D01*
X135905110Y-20162458D01*
X135463520Y-20457519D01*
X135168458Y-20899109D01*
X135091000Y-21288515D01*
X133261000Y-21288515D01*
X133183542Y-20899109D01*
X132888481Y-20457519D01*
X132446891Y-20162458D01*
X131926000Y-20058846D01*
X131405110Y-20162458D01*
X131187000Y-20308194D01*
X131187000Y-19969000D01*
X131796895Y-19969000D01*
X132508090Y-19674414D01*
X133052414Y-19130090D01*
X133347000Y-18418895D01*
X133347000Y-17649105D01*
X134477000Y-17649105D01*
X134477000Y-18418895D01*
X134771586Y-19130090D01*
X135315910Y-19674414D01*
X136027105Y-19969000D01*
X136796895Y-19969000D01*
X137508090Y-19674414D01*
X138052414Y-19130090D01*
X138347000Y-18418895D01*
X138347000Y-17649105D01*
X139477000Y-17649105D01*
X139477000Y-18418895D01*
X139771586Y-19130090D01*
X140315910Y-19674414D01*
X141027105Y-19969000D01*
X141796895Y-19969000D01*
X142508090Y-19674414D01*
X143052414Y-19130090D01*
X143347000Y-18418895D01*
X143347000Y-17649105D01*
X144477000Y-17649105D01*
X144477000Y-18418895D01*
X144771586Y-19130090D01*
X145315910Y-19674414D01*
X146027105Y-19969000D01*
X146796895Y-19969000D01*
X147508090Y-19674414D01*
X148052414Y-19130090D01*
X148347000Y-18418895D01*
X148347000Y-17649105D01*
X148052414Y-16937910D01*
X147508090Y-16393586D01*
X146796895Y-16099000D01*
X146027105Y-16099000D01*
X145315910Y-16393586D01*
X144771586Y-16937910D01*
X144477000Y-17649105D01*
X143347000Y-17649105D01*
X143052414Y-16937910D01*
X142508090Y-16393586D01*
X141796895Y-16099000D01*
X141027105Y-16099000D01*
X140315910Y-16393586D01*
X139771586Y-16937910D01*
X139477000Y-17649105D01*
X138347000Y-17649105D01*
X138052414Y-16937910D01*
X137508090Y-16393586D01*
X136796895Y-16099000D01*
X136027105Y-16099000D01*
X135315910Y-16393586D01*
X134771586Y-16937910D01*
X134477000Y-17649105D01*
X133347000Y-17649105D01*
X133052414Y-16937910D01*
X132508090Y-16393586D01*
X131796895Y-16099000D01*
X131027105Y-16099000D01*
X130315910Y-16393586D01*
X129771586Y-16937910D01*
X129477000Y-17649105D01*
X129477000Y-18418895D01*
X129570803Y-18645356D01*
X129468348Y-18798691D01*
X129399663Y-19144000D01*
X129417001Y-19231165D01*
X129417000Y-22772839D01*
X129399663Y-22860000D01*
X129417000Y-22947161D01*
X129417000Y-22947164D01*
X129468348Y-23205309D01*
X129663951Y-23498049D01*
X129737847Y-23547425D01*
X129925001Y-23734579D01*
X129925000Y-33113467D01*
X129762235Y-33145843D01*
X129552191Y-33286191D01*
X129411843Y-33496235D01*
X129362560Y-33744000D01*
X129362560Y-35344000D01*
X129411843Y-35591765D01*
X129552191Y-35801809D01*
X129762235Y-35942157D01*
X130010000Y-35991440D01*
X131610000Y-35991440D01*
X131703000Y-35972941D01*
X131703001Y-43321420D01*
X126893405Y-48131017D01*
X126922965Y-48048777D01*
X126895778Y-47478546D01*
X126729864Y-47077995D01*
X126483745Y-47003861D01*
X125655605Y-47832000D01*
X125669748Y-47846142D01*
X125490142Y-48025748D01*
X125476000Y-48011605D01*
X124647861Y-48839745D01*
X124721995Y-49085864D01*
X125259223Y-49278965D01*
X125769800Y-49254622D01*
X125617422Y-49407000D01*
X106767161Y-49407000D01*
X106680000Y-49389663D01*
X106592839Y-49407000D01*
X106592835Y-49407000D01*
X106334690Y-49458348D01*
X106115845Y-49604576D01*
X106115844Y-49604577D01*
X106041951Y-49653951D01*
X105992577Y-49727844D01*
X104824439Y-50895983D01*
X104793708Y-50889870D01*
X108011828Y-47671750D01*
X109621000Y-47671750D01*
X109621000Y-48762309D01*
X109717673Y-48995698D01*
X109896301Y-49174327D01*
X110129690Y-49271000D01*
X111220250Y-49271000D01*
X111379000Y-49112250D01*
X111379000Y-47513000D01*
X111633000Y-47513000D01*
X111633000Y-49112250D01*
X111791750Y-49271000D01*
X112882310Y-49271000D01*
X113115699Y-49174327D01*
X113294327Y-48995698D01*
X113391000Y-48762309D01*
X113391000Y-47671750D01*
X113334473Y-47615223D01*
X124029035Y-47615223D01*
X124056222Y-48185454D01*
X124222136Y-48586005D01*
X124468255Y-48660139D01*
X125296395Y-47832000D01*
X124468255Y-47003861D01*
X124222136Y-47077995D01*
X124029035Y-47615223D01*
X113334473Y-47615223D01*
X113232250Y-47513000D01*
X111633000Y-47513000D01*
X111379000Y-47513000D01*
X109779750Y-47513000D01*
X109621000Y-47671750D01*
X108011828Y-47671750D01*
X109621000Y-46062578D01*
X109621000Y-47100250D01*
X109779750Y-47259000D01*
X111379000Y-47259000D01*
X111379000Y-45659750D01*
X111633000Y-45659750D01*
X111633000Y-47259000D01*
X113232250Y-47259000D01*
X113391000Y-47100250D01*
X113391000Y-46824255D01*
X124647861Y-46824255D01*
X125476000Y-47652395D01*
X126304139Y-46824255D01*
X126230005Y-46578136D01*
X125692777Y-46385035D01*
X125122546Y-46412222D01*
X124721995Y-46578136D01*
X124647861Y-46824255D01*
X113391000Y-46824255D01*
X113391000Y-46009691D01*
X113294327Y-45776302D01*
X113115699Y-45597673D01*
X112882310Y-45501000D01*
X111791750Y-45501000D01*
X111633000Y-45659750D01*
X111379000Y-45659750D01*
X111220250Y-45501000D01*
X110182579Y-45501000D01*
X116642156Y-39041423D01*
X116716049Y-38992049D01*
X116911652Y-38699310D01*
X116963000Y-38441165D01*
X116963000Y-38441161D01*
X116980337Y-38354001D01*
X116963000Y-38266841D01*
X116963000Y-35991440D01*
X118148000Y-35991440D01*
X118395765Y-35942157D01*
X118605809Y-35801809D01*
X118746157Y-35591765D01*
X118754117Y-35551745D01*
X121519861Y-35551745D01*
X121593995Y-35797864D01*
X122131223Y-35990965D01*
X122701454Y-35963778D01*
X123102005Y-35797864D01*
X123176139Y-35551745D01*
X122348000Y-34723605D01*
X121519861Y-35551745D01*
X118754117Y-35551745D01*
X118795440Y-35344000D01*
X118795440Y-34327223D01*
X120901035Y-34327223D01*
X120928222Y-34897454D01*
X121094136Y-35298005D01*
X121340255Y-35372139D01*
X122168395Y-34544000D01*
X122527605Y-34544000D01*
X123355745Y-35372139D01*
X123601864Y-35298005D01*
X123794965Y-34760777D01*
X123767778Y-34190546D01*
X123601864Y-33789995D01*
X123355745Y-33715861D01*
X122527605Y-34544000D01*
X122168395Y-34544000D01*
X121340255Y-33715861D01*
X121094136Y-33789995D01*
X120901035Y-34327223D01*
X118795440Y-34327223D01*
X118795440Y-33744000D01*
X118754118Y-33536255D01*
X121519861Y-33536255D01*
X122348000Y-34364395D01*
X123176139Y-33536255D01*
X123102005Y-33290136D01*
X122564777Y-33097035D01*
X121994546Y-33124222D01*
X121593995Y-33290136D01*
X121519861Y-33536255D01*
X118754118Y-33536255D01*
X118746157Y-33496235D01*
X118605809Y-33286191D01*
X118395765Y-33145843D01*
X118233000Y-33113467D01*
X118233000Y-25766578D01*
X121454954Y-22544625D01*
X121747519Y-22982480D01*
X122189109Y-23277542D01*
X122710000Y-23381154D01*
X123230890Y-23277542D01*
X123672480Y-22982481D01*
X123967542Y-22540891D01*
X124045000Y-22151485D01*
X124045000Y-21288516D01*
X123967542Y-20899109D01*
X123672481Y-20457519D01*
X123230891Y-20162458D01*
X122710000Y-20058846D01*
X122297000Y-20140997D01*
X122297000Y-19981440D01*
X122712000Y-19981440D01*
X122959765Y-19932157D01*
X123169809Y-19791809D01*
X123310157Y-19581765D01*
X123359440Y-19334000D01*
X123359440Y-17649105D01*
X124477000Y-17649105D01*
X124477000Y-18418895D01*
X124771586Y-19130090D01*
X125315910Y-19674414D01*
X126027105Y-19969000D01*
X126796895Y-19969000D01*
X127508090Y-19674414D01*
X128052414Y-19130090D01*
X128347000Y-18418895D01*
X128347000Y-17649105D01*
X128052414Y-16937910D01*
X127508090Y-16393586D01*
X126796895Y-16099000D01*
X126027105Y-16099000D01*
X125315910Y-16393586D01*
X124771586Y-16937910D01*
X124477000Y-17649105D01*
X123359440Y-17649105D01*
X123359440Y-16734000D01*
X123310157Y-16486235D01*
X123169809Y-16276191D01*
X122959765Y-16135843D01*
X122712000Y-16086560D01*
X120112000Y-16086560D01*
X119864235Y-16135843D01*
X119654191Y-16276191D01*
X119513843Y-16486235D01*
X119464560Y-16734000D01*
X119464560Y-19334000D01*
X119513843Y-19581765D01*
X119654191Y-19791809D01*
X119864235Y-19932157D01*
X120112000Y-19981440D01*
X120527000Y-19981440D01*
X120527000Y-20969421D01*
X119545000Y-21951421D01*
X119545000Y-21288516D01*
X119467542Y-20899109D01*
X119172481Y-20457519D01*
X118730891Y-20162458D01*
X118210000Y-20058846D01*
X117689110Y-20162458D01*
X117247520Y-20457519D01*
X116952458Y-20899109D01*
X116875000Y-21288515D01*
X116875000Y-22151484D01*
X116952458Y-22540890D01*
X117246086Y-22980335D01*
X115513847Y-24712575D01*
X115439951Y-24761951D01*
X115244348Y-25054691D01*
X115193000Y-25312836D01*
X115193000Y-25312839D01*
X115175663Y-25400000D01*
X115193000Y-25487161D01*
X115193001Y-37987420D01*
X102284439Y-50895983D01*
X102249333Y-50889000D01*
X101966667Y-50889000D01*
X101548091Y-50972260D01*
X101073423Y-51289423D01*
X100838000Y-51641758D01*
X100602577Y-51289423D01*
X100127909Y-50972260D01*
X99709333Y-50889000D01*
X99426667Y-50889000D01*
X99008091Y-50972260D01*
X98533423Y-51289423D01*
X98298000Y-51641758D01*
X98062577Y-51289423D01*
X97587909Y-50972260D01*
X97169333Y-50889000D01*
X96886667Y-50889000D01*
X96468091Y-50972260D01*
X95993423Y-51289423D01*
X95758000Y-51641758D01*
X95522577Y-51289423D01*
X95047909Y-50972260D01*
X94629333Y-50889000D01*
X94346667Y-50889000D01*
X93928091Y-50972260D01*
X93453423Y-51289423D01*
X93218000Y-51641758D01*
X92982577Y-51289423D01*
X92507909Y-50972260D01*
X92089333Y-50889000D01*
X91806667Y-50889000D01*
X91388091Y-50972260D01*
X90913423Y-51289423D01*
X90678000Y-51641758D01*
X90442577Y-51289423D01*
X89967909Y-50972260D01*
X89549333Y-50889000D01*
X89266667Y-50889000D01*
X88848091Y-50972260D01*
X88373423Y-51289423D01*
X88138000Y-51641758D01*
X87902577Y-51289423D01*
X87427909Y-50972260D01*
X87009333Y-50889000D01*
X86726667Y-50889000D01*
X86308091Y-50972260D01*
X85833423Y-51289423D01*
X85598000Y-51641758D01*
X85362577Y-51289423D01*
X84887909Y-50972260D01*
X84469333Y-50889000D01*
X84186667Y-50889000D01*
X83768091Y-50972260D01*
X83293423Y-51289423D01*
X83037053Y-51673108D01*
X82940389Y-51468866D01*
X82525423Y-51092959D01*
X82213406Y-50963726D01*
X84290132Y-48887000D01*
X94884217Y-48887000D01*
X94996000Y-48909235D01*
X95107783Y-48887000D01*
X95302480Y-48848273D01*
X95438233Y-48984026D01*
X96131050Y-49271000D01*
X96880950Y-49271000D01*
X97573767Y-48984026D01*
X98104026Y-48453767D01*
X98391000Y-47760950D01*
X98391000Y-47011050D01*
X98104026Y-46318233D01*
X97573767Y-45787974D01*
X96880950Y-45501000D01*
X96131050Y-45501000D01*
X95438233Y-45787974D01*
X94907974Y-46318233D01*
X94904489Y-46326647D01*
X94543711Y-46567711D01*
X94510777Y-46617000D01*
X90557961Y-46617000D01*
X90789000Y-46059222D01*
X90789000Y-45408778D01*
X90540086Y-44807847D01*
X90080153Y-44347914D01*
X89479222Y-44099000D01*
X88828778Y-44099000D01*
X88227847Y-44347914D01*
X87767914Y-44807847D01*
X87519000Y-45408778D01*
X87519000Y-46059222D01*
X87750039Y-46617000D01*
X85557961Y-46617000D01*
X85789000Y-46059222D01*
X85789000Y-45408778D01*
X85540086Y-44807847D01*
X85080153Y-44347914D01*
X84479222Y-44099000D01*
X83828778Y-44099000D01*
X83227847Y-44347914D01*
X82767914Y-44807847D01*
X82519000Y-45408778D01*
X82519000Y-46059222D01*
X82767914Y-46660153D01*
X83025546Y-46917785D01*
X83001711Y-46933711D01*
X82938389Y-47028479D01*
X79070718Y-50896151D01*
X78688091Y-50972260D01*
X78213423Y-51289423D01*
X77896260Y-51764091D01*
X77784887Y-52324000D01*
X73815578Y-52324000D01*
X78787625Y-47351954D01*
X78828778Y-47369000D01*
X79479222Y-47369000D01*
X80080153Y-47120086D01*
X80540086Y-46660153D01*
X80789000Y-46059222D01*
X80789000Y-45408778D01*
X80540086Y-44807847D01*
X80080153Y-44347914D01*
X79479222Y-44099000D01*
X78828778Y-44099000D01*
X78227847Y-44347914D01*
X77767914Y-44807847D01*
X77519000Y-45408778D01*
X77519000Y-46059222D01*
X77536046Y-46100375D01*
X65339422Y-58297000D01*
X64930533Y-58297000D01*
X64898157Y-58134235D01*
X64757809Y-57924191D01*
X64547765Y-57783843D01*
X64300000Y-57734560D01*
X62700000Y-57734560D01*
X62452235Y-57783843D01*
X62242191Y-57924191D01*
X62101843Y-58134235D01*
X62052560Y-58382000D01*
X50551165Y-58382000D01*
X50457745Y-58353861D01*
X49629605Y-59182000D01*
X49270395Y-59182000D01*
X48442255Y-58353861D01*
X48196136Y-58427995D01*
X48003035Y-58965223D01*
X45897440Y-58965223D01*
X45897440Y-58382000D01*
X45856118Y-58174255D01*
X48621861Y-58174255D01*
X49450000Y-59002395D01*
X50278139Y-58174255D01*
X50204005Y-57928136D01*
X49666777Y-57735035D01*
X49096546Y-57762222D01*
X48695995Y-57928136D01*
X48621861Y-58174255D01*
X45856118Y-58174255D01*
X45848157Y-58134235D01*
X45707809Y-57924191D01*
X45497765Y-57783843D01*
X45335000Y-57751467D01*
X45335000Y-56420578D01*
X54403625Y-47351954D01*
X54444778Y-47369000D01*
X55095222Y-47369000D01*
X55696153Y-47120086D01*
X56156086Y-46660153D01*
X56405000Y-46059222D01*
X56405000Y-45408778D01*
X58135000Y-45408778D01*
X58135000Y-46059222D01*
X58383914Y-46660153D01*
X58843847Y-47120086D01*
X59444778Y-47369000D01*
X60095222Y-47369000D01*
X60696153Y-47120086D01*
X61156086Y-46660153D01*
X61405000Y-46059222D01*
X61405000Y-45408778D01*
X63135000Y-45408778D01*
X63135000Y-46059222D01*
X63383914Y-46660153D01*
X63843847Y-47120086D01*
X64444778Y-47369000D01*
X65095222Y-47369000D01*
X65696153Y-47120086D01*
X66156086Y-46660153D01*
X66405000Y-46059222D01*
X66405000Y-45408778D01*
X72519000Y-45408778D01*
X72519000Y-46059222D01*
X72767914Y-46660153D01*
X73227847Y-47120086D01*
X73828778Y-47369000D01*
X74479222Y-47369000D01*
X75080153Y-47120086D01*
X75540086Y-46660153D01*
X75789000Y-46059222D01*
X75789000Y-45408778D01*
X75540086Y-44807847D01*
X75080153Y-44347914D01*
X74479222Y-44099000D01*
X73828778Y-44099000D01*
X73227847Y-44347914D01*
X72767914Y-44807847D01*
X72519000Y-45408778D01*
X66405000Y-45408778D01*
X66156086Y-44807847D01*
X65696153Y-44347914D01*
X65095222Y-44099000D01*
X64444778Y-44099000D01*
X63843847Y-44347914D01*
X63383914Y-44807847D01*
X63135000Y-45408778D01*
X61405000Y-45408778D01*
X61156086Y-44807847D01*
X60696153Y-44347914D01*
X60095222Y-44099000D01*
X59444778Y-44099000D01*
X58843847Y-44347914D01*
X58383914Y-44807847D01*
X58135000Y-45408778D01*
X56405000Y-45408778D01*
X56156086Y-44807847D01*
X55696153Y-44347914D01*
X55095222Y-44099000D01*
X54444778Y-44099000D01*
X53843847Y-44347914D01*
X53383914Y-44807847D01*
X53135000Y-45408778D01*
X53135000Y-46059222D01*
X53152046Y-46100375D01*
X43885845Y-55366577D01*
X43811952Y-55415951D01*
X43762578Y-55489844D01*
X43762576Y-55489846D01*
X43616348Y-55708691D01*
X43547663Y-56054000D01*
X43565001Y-56141165D01*
X43565000Y-57751467D01*
X43402235Y-57783843D01*
X43192191Y-57924191D01*
X43051843Y-58134235D01*
X43002560Y-58382000D01*
X31755165Y-58382000D01*
X31661745Y-58353861D01*
X30833605Y-59182000D01*
X30474395Y-59182000D01*
X29646255Y-58353861D01*
X29400136Y-58427995D01*
X29207035Y-58965223D01*
X27101440Y-58965223D01*
X27101440Y-58382000D01*
X27060118Y-58174255D01*
X29825861Y-58174255D01*
X30654000Y-59002395D01*
X31482139Y-58174255D01*
X31408005Y-57928136D01*
X30870777Y-57735035D01*
X30300546Y-57762222D01*
X29899995Y-57928136D01*
X29825861Y-58174255D01*
X27060118Y-58174255D01*
X27052157Y-58134235D01*
X26911809Y-57924191D01*
X26701765Y-57783843D01*
X26539000Y-57751467D01*
X26539000Y-51086578D01*
X30273625Y-47351954D01*
X30314778Y-47369000D01*
X30965222Y-47369000D01*
X31566153Y-47120086D01*
X32026086Y-46660153D01*
X32275000Y-46059222D01*
X32275000Y-45408778D01*
X34005000Y-45408778D01*
X34005000Y-46059222D01*
X34253914Y-46660153D01*
X34713847Y-47120086D01*
X35314778Y-47369000D01*
X35965222Y-47369000D01*
X36566153Y-47120086D01*
X37026086Y-46660153D01*
X37275000Y-46059222D01*
X37275000Y-45408778D01*
X39005000Y-45408778D01*
X39005000Y-46059222D01*
X39253914Y-46660153D01*
X39713847Y-47120086D01*
X40314778Y-47369000D01*
X40965222Y-47369000D01*
X41566153Y-47120086D01*
X42026086Y-46660153D01*
X42275000Y-46059222D01*
X42275000Y-45408778D01*
X48135000Y-45408778D01*
X48135000Y-46059222D01*
X48383914Y-46660153D01*
X48843847Y-47120086D01*
X49444778Y-47369000D01*
X50095222Y-47369000D01*
X50696153Y-47120086D01*
X51156086Y-46660153D01*
X51405000Y-46059222D01*
X51405000Y-45408778D01*
X51156086Y-44807847D01*
X50696153Y-44347914D01*
X50095222Y-44099000D01*
X49444778Y-44099000D01*
X48843847Y-44347914D01*
X48383914Y-44807847D01*
X48135000Y-45408778D01*
X42275000Y-45408778D01*
X42026086Y-44807847D01*
X41566153Y-44347914D01*
X40965222Y-44099000D01*
X40314778Y-44099000D01*
X39713847Y-44347914D01*
X39253914Y-44807847D01*
X39005000Y-45408778D01*
X37275000Y-45408778D01*
X37026086Y-44807847D01*
X36566153Y-44347914D01*
X35965222Y-44099000D01*
X35314778Y-44099000D01*
X34713847Y-44347914D01*
X34253914Y-44807847D01*
X34005000Y-45408778D01*
X32275000Y-45408778D01*
X32026086Y-44807847D01*
X31566153Y-44347914D01*
X30965222Y-44099000D01*
X30314778Y-44099000D01*
X29713847Y-44347914D01*
X29253914Y-44807847D01*
X29005000Y-45408778D01*
X29005000Y-46059222D01*
X29022046Y-46100375D01*
X25089845Y-50032577D01*
X25015952Y-50081951D01*
X24966578Y-50155844D01*
X24966576Y-50155846D01*
X24820348Y-50374691D01*
X24751663Y-50720000D01*
X24769001Y-50807165D01*
X24769000Y-57751467D01*
X24606235Y-57783843D01*
X24396191Y-57924191D01*
X24255843Y-58134235D01*
X24206560Y-58382000D01*
X19023000Y-58382000D01*
X19023000Y-45408778D01*
X24005000Y-45408778D01*
X24005000Y-46059222D01*
X24253914Y-46660153D01*
X24713847Y-47120086D01*
X25314778Y-47369000D01*
X25965222Y-47369000D01*
X26566153Y-47120086D01*
X27026086Y-46660153D01*
X27275000Y-46059222D01*
X27275000Y-45408778D01*
X27026086Y-44807847D01*
X26566153Y-44347914D01*
X25965222Y-44099000D01*
X25314778Y-44099000D01*
X24713847Y-44347914D01*
X24253914Y-44807847D01*
X24005000Y-45408778D01*
X19023000Y-45408778D01*
X19023000Y-42291000D01*
X22372533Y-42291000D01*
X22729119Y-42353875D01*
X22790074Y-42366000D01*
X42995926Y-42366000D01*
X43056874Y-42353877D01*
X43413468Y-42291000D01*
X71140533Y-42291000D01*
X71497119Y-42353875D01*
X71558074Y-42366000D01*
X91763926Y-42366000D01*
X91824874Y-42353877D01*
X92181468Y-42291000D01*
X94488000Y-42291000D01*
X94536601Y-42281333D01*
X94577803Y-42253803D01*
X94605333Y-42212601D01*
X94615000Y-42164000D01*
X94615000Y-38481000D01*
X114046000Y-38481000D01*
X114094601Y-38471333D01*
X114135803Y-38443803D01*
X114163333Y-38402601D01*
X114173000Y-38354000D01*
X114173000Y-13320000D01*
X115862560Y-13320000D01*
X115862560Y-15320000D01*
X115911843Y-15567765D01*
X116052191Y-15777809D01*
X116262235Y-15918157D01*
X116510000Y-15967440D01*
X117910000Y-15967440D01*
X118157765Y-15918157D01*
X118367809Y-15777809D01*
X118508157Y-15567765D01*
X118557440Y-15320000D01*
X118557440Y-15205000D01*
X122362560Y-15205000D01*
X122362560Y-15320000D01*
X122411843Y-15567765D01*
X122552191Y-15777809D01*
X122762235Y-15918157D01*
X123010000Y-15967440D01*
X124410000Y-15967440D01*
X124657765Y-15918157D01*
X124867809Y-15777809D01*
X125008157Y-15567765D01*
X125057440Y-15320000D01*
X125057440Y-13320000D01*
X129578560Y-13320000D01*
X129578560Y-15320000D01*
X129627843Y-15567765D01*
X129768191Y-15777809D01*
X129978235Y-15918157D01*
X130226000Y-15967440D01*
X131626000Y-15967440D01*
X131873765Y-15918157D01*
X132083809Y-15777809D01*
X132224157Y-15567765D01*
X132273440Y-15320000D01*
X132273440Y-15205000D01*
X136078560Y-15205000D01*
X136078560Y-15320000D01*
X136127843Y-15567765D01*
X136268191Y-15777809D01*
X136478235Y-15918157D01*
X136726000Y-15967440D01*
X138126000Y-15967440D01*
X138373765Y-15918157D01*
X138583809Y-15777809D01*
X138724157Y-15567765D01*
X138773440Y-15320000D01*
X138773440Y-13320000D01*
X143548560Y-13320000D01*
X143548560Y-15320000D01*
X143597843Y-15567765D01*
X143738191Y-15777809D01*
X143948235Y-15918157D01*
X144196000Y-15967440D01*
X145596000Y-15967440D01*
X145843765Y-15918157D01*
X146053809Y-15777809D01*
X146194157Y-15567765D01*
X146243440Y-15320000D01*
X146243440Y-15205000D01*
X150048560Y-15205000D01*
X150048560Y-15320000D01*
X150097843Y-15567765D01*
X150238191Y-15777809D01*
X150448235Y-15918157D01*
X150696000Y-15967440D01*
X152096000Y-15967440D01*
X152343765Y-15918157D01*
X152553809Y-15777809D01*
X152694157Y-15567765D01*
X152743440Y-15320000D01*
X152743440Y-13320000D01*
X152694157Y-13072235D01*
X152553809Y-12862191D01*
X152343765Y-12721843D01*
X152096000Y-12672560D01*
X150696000Y-12672560D01*
X150448235Y-12721843D01*
X150238191Y-12862191D01*
X150097843Y-13072235D01*
X150048560Y-13320000D01*
X150048560Y-13435000D01*
X146243440Y-13435000D01*
X146243440Y-13320000D01*
X146194157Y-13072235D01*
X146053809Y-12862191D01*
X145843765Y-12721843D01*
X145596000Y-12672560D01*
X144196000Y-12672560D01*
X143948235Y-12721843D01*
X143738191Y-12862191D01*
X143597843Y-13072235D01*
X143548560Y-13320000D01*
X138773440Y-13320000D01*
X138724157Y-13072235D01*
X138583809Y-12862191D01*
X138373765Y-12721843D01*
X138126000Y-12672560D01*
X136726000Y-12672560D01*
X136478235Y-12721843D01*
X136268191Y-12862191D01*
X136127843Y-13072235D01*
X136078560Y-13320000D01*
X136078560Y-13435000D01*
X132273440Y-13435000D01*
X132273440Y-13320000D01*
X132224157Y-13072235D01*
X132083809Y-12862191D01*
X131873765Y-12721843D01*
X131626000Y-12672560D01*
X130226000Y-12672560D01*
X129978235Y-12721843D01*
X129768191Y-12862191D01*
X129627843Y-13072235D01*
X129578560Y-13320000D01*
X125057440Y-13320000D01*
X125008157Y-13072235D01*
X124867809Y-12862191D01*
X124657765Y-12721843D01*
X124410000Y-12672560D01*
X123010000Y-12672560D01*
X122762235Y-12721843D01*
X122552191Y-12862191D01*
X122411843Y-13072235D01*
X122362560Y-13320000D01*
X122362560Y-13435000D01*
X118557440Y-13435000D01*
X118557440Y-13320000D01*
X118508157Y-13072235D01*
X118367809Y-12862191D01*
X118157765Y-12721843D01*
X117910000Y-12672560D01*
X116510000Y-12672560D01*
X116262235Y-12721843D01*
X116052191Y-12862191D01*
X115911843Y-13072235D01*
X115862560Y-13320000D01*
X114173000Y-13320000D01*
X114173000Y-11811000D01*
X153035000Y-11811000D01*
X153035000Y-52197000D01*
X153035000Y-52197000D01*
G37*
X153035000Y-52197000D02*
X133604000Y-52197000D01*
X133555399Y-52206667D01*
X133514197Y-52234197D01*
X121322197Y-64426197D01*
X121294667Y-64467399D01*
X121285000Y-64516000D01*
X121285000Y-66109786D01*
X121284227Y-66111652D01*
X121281647Y-66117880D01*
X121251195Y-66270973D01*
X121210000Y-66478075D01*
X121210001Y-80587926D01*
X121223643Y-80656509D01*
X121223643Y-80656514D01*
X121281647Y-80948119D01*
X121281647Y-80948120D01*
X121285000Y-80956215D01*
X121285000Y-82323000D01*
X19023000Y-82323000D01*
X19023000Y-66764000D01*
X77800560Y-66764000D01*
X77800560Y-68364000D01*
X77849843Y-68611765D01*
X77990191Y-68821809D01*
X78200235Y-68962157D01*
X78448000Y-69011440D01*
X80048000Y-69011440D01*
X80295765Y-68962157D01*
X80505809Y-68821809D01*
X80646157Y-68611765D01*
X80672785Y-68477894D01*
X80753423Y-68598577D01*
X81228091Y-68915740D01*
X81646667Y-68999000D01*
X81929333Y-68999000D01*
X82347909Y-68915740D01*
X82822577Y-68598577D01*
X83058000Y-68246242D01*
X83293423Y-68598577D01*
X83768091Y-68915740D01*
X84186667Y-68999000D01*
X84469333Y-68999000D01*
X84887909Y-68915740D01*
X85362577Y-68598577D01*
X85618947Y-68214892D01*
X85715611Y-68419134D01*
X86130577Y-68795041D01*
X86518961Y-68955904D01*
X86741000Y-68833915D01*
X86741000Y-67691000D01*
X86721000Y-67691000D01*
X86721000Y-67437000D01*
X86741000Y-67437000D01*
X86741000Y-67417000D01*
X86995000Y-67417000D01*
X86995000Y-67437000D01*
X87015000Y-67437000D01*
X87015000Y-67691000D01*
X86995000Y-67691000D01*
X86995000Y-68833915D01*
X87217039Y-68955904D01*
X87605423Y-68795041D01*
X88020389Y-68419134D01*
X88117053Y-68214892D01*
X88373423Y-68598577D01*
X88848091Y-68915740D01*
X89266667Y-68999000D01*
X89549333Y-68999000D01*
X89967909Y-68915740D01*
X90442577Y-68598577D01*
X90678000Y-68246242D01*
X90913423Y-68598577D01*
X91388091Y-68915740D01*
X91806667Y-68999000D01*
X92089333Y-68999000D01*
X92507909Y-68915740D01*
X92982577Y-68598577D01*
X93218000Y-68246242D01*
X93453423Y-68598577D01*
X93928091Y-68915740D01*
X94346667Y-68999000D01*
X94629333Y-68999000D01*
X95047909Y-68915740D01*
X95522577Y-68598577D01*
X95758000Y-68246242D01*
X95993423Y-68598577D01*
X96468091Y-68915740D01*
X96886667Y-68999000D01*
X97169333Y-68999000D01*
X97587909Y-68915740D01*
X98062577Y-68598577D01*
X98298000Y-68246242D01*
X98533423Y-68598577D01*
X99008091Y-68915740D01*
X99426667Y-68999000D01*
X99709333Y-68999000D01*
X100127909Y-68915740D01*
X100602577Y-68598577D01*
X100838000Y-68246242D01*
X101073423Y-68598577D01*
X101548091Y-68915740D01*
X101966667Y-68999000D01*
X102249333Y-68999000D01*
X102667909Y-68915740D01*
X103142577Y-68598577D01*
X103378000Y-68246242D01*
X103613423Y-68598577D01*
X104088091Y-68915740D01*
X104506667Y-68999000D01*
X104789333Y-68999000D01*
X105207909Y-68915740D01*
X105682577Y-68598577D01*
X105918000Y-68246242D01*
X106153423Y-68598577D01*
X106628091Y-68915740D01*
X107046667Y-68999000D01*
X107329333Y-68999000D01*
X107747909Y-68915740D01*
X108222577Y-68598577D01*
X108458000Y-68246242D01*
X108693423Y-68598577D01*
X109168091Y-68915740D01*
X109586667Y-68999000D01*
X109869333Y-68999000D01*
X110287909Y-68915740D01*
X110762577Y-68598577D01*
X110998000Y-68246242D01*
X111233423Y-68598577D01*
X111708091Y-68915740D01*
X112126667Y-68999000D01*
X112409333Y-68999000D01*
X112827909Y-68915740D01*
X113302577Y-68598577D01*
X113538000Y-68246242D01*
X113773423Y-68598577D01*
X114248091Y-68915740D01*
X114666667Y-68999000D01*
X114949333Y-68999000D01*
X115367909Y-68915740D01*
X115842577Y-68598577D01*
X116159740Y-68123909D01*
X116271113Y-67564000D01*
X116159740Y-67004091D01*
X116106893Y-66925000D01*
X117514839Y-66925000D01*
X117602000Y-66942337D01*
X117689161Y-66925000D01*
X117689165Y-66925000D01*
X117947310Y-66873652D01*
X118240049Y-66678049D01*
X118289425Y-66604153D01*
X133716579Y-51177000D01*
X140628839Y-51177000D01*
X140716000Y-51194337D01*
X140803161Y-51177000D01*
X140803165Y-51177000D01*
X141061310Y-51125652D01*
X141354049Y-50930049D01*
X141403425Y-50856153D01*
X141534153Y-50725425D01*
X141608049Y-50676049D01*
X141803652Y-50383310D01*
X141847807Y-50161327D01*
X142004577Y-50056577D01*
X142260947Y-49672892D01*
X142357611Y-49877134D01*
X142772577Y-50253041D01*
X143160961Y-50413904D01*
X143383000Y-50291915D01*
X143383000Y-49149000D01*
X143637000Y-49149000D01*
X143637000Y-50291915D01*
X143859039Y-50413904D01*
X144247423Y-50253041D01*
X144662389Y-49877134D01*
X144901914Y-49371041D01*
X144780629Y-49149000D01*
X143637000Y-49149000D01*
X143383000Y-49149000D01*
X143363000Y-49149000D01*
X143363000Y-48895000D01*
X143383000Y-48895000D01*
X143383000Y-47752085D01*
X143637000Y-47752085D01*
X143637000Y-48895000D01*
X144780629Y-48895000D01*
X144901914Y-48672959D01*
X144662389Y-48166866D01*
X144247423Y-47790959D01*
X143859039Y-47630096D01*
X143637000Y-47752085D01*
X143383000Y-47752085D01*
X143160961Y-47630096D01*
X142772577Y-47790959D01*
X142357611Y-48166866D01*
X142260947Y-48371108D01*
X142004577Y-47987423D01*
X141529909Y-47670260D01*
X141111333Y-47587000D01*
X140828667Y-47587000D01*
X140410091Y-47670260D01*
X139935423Y-47987423D01*
X139854785Y-48108106D01*
X139828157Y-47974235D01*
X139687809Y-47764191D01*
X139477765Y-47623843D01*
X139230000Y-47574560D01*
X137630000Y-47574560D01*
X137382235Y-47623843D01*
X137172191Y-47764191D01*
X137031843Y-47974235D01*
X137005215Y-48108106D01*
X136924577Y-47987423D01*
X136449909Y-47670260D01*
X136031333Y-47587000D01*
X135748667Y-47587000D01*
X135330091Y-47670260D01*
X134855423Y-47987423D01*
X134755479Y-48137000D01*
X133437161Y-48137000D01*
X133350000Y-48119663D01*
X133262839Y-48137000D01*
X133262835Y-48137000D01*
X133019239Y-48185454D01*
X133004690Y-48188348D01*
X132785845Y-48334576D01*
X132785844Y-48334577D01*
X132711951Y-48383951D01*
X132662577Y-48457844D01*
X116727422Y-64393000D01*
X81621159Y-64393000D01*
X81533999Y-64375663D01*
X81446839Y-64393000D01*
X81446835Y-64393000D01*
X81188690Y-64444348D01*
X81120682Y-64489790D01*
X80969845Y-64590576D01*
X80969844Y-64590577D01*
X80895951Y-64639951D01*
X80846577Y-64713844D01*
X79443862Y-66116560D01*
X78448000Y-66116560D01*
X78200235Y-66165843D01*
X77990191Y-66306191D01*
X77849843Y-66516235D01*
X77800560Y-66764000D01*
X19023000Y-66764000D01*
X19023000Y-58382000D01*
X24206560Y-58382000D01*
X24206560Y-59982000D01*
X24255843Y-60229765D01*
X24396191Y-60439809D01*
X24606235Y-60580157D01*
X24854000Y-60629440D01*
X26454000Y-60629440D01*
X26701765Y-60580157D01*
X26911809Y-60439809D01*
X27052157Y-60229765D01*
X27060117Y-60189745D01*
X29825861Y-60189745D01*
X29899995Y-60435864D01*
X30437223Y-60628965D01*
X31007454Y-60601778D01*
X31408005Y-60435864D01*
X31482139Y-60189745D01*
X30654000Y-59361605D01*
X29825861Y-60189745D01*
X27060117Y-60189745D01*
X27101440Y-59982000D01*
X27101440Y-58965223D01*
X29207035Y-58965223D01*
X29234222Y-59535454D01*
X29400136Y-59936005D01*
X29646255Y-60010139D01*
X30474395Y-59182000D01*
X30833605Y-59182000D01*
X31661745Y-60010139D01*
X31907864Y-59936005D01*
X32100965Y-59398777D01*
X32073778Y-58828546D01*
X31907864Y-58427995D01*
X31755165Y-58382000D01*
X43002560Y-58382000D01*
X43002560Y-59982000D01*
X43051843Y-60229765D01*
X43192191Y-60439809D01*
X43402235Y-60580157D01*
X43650000Y-60629440D01*
X45250000Y-60629440D01*
X45497765Y-60580157D01*
X45707809Y-60439809D01*
X45848157Y-60229765D01*
X45856117Y-60189745D01*
X48621861Y-60189745D01*
X48695995Y-60435864D01*
X49233223Y-60628965D01*
X49803454Y-60601778D01*
X50204005Y-60435864D01*
X50278139Y-60189745D01*
X49450000Y-59361605D01*
X48621861Y-60189745D01*
X45856117Y-60189745D01*
X45897440Y-59982000D01*
X45897440Y-58965223D01*
X48003035Y-58965223D01*
X48030222Y-59535454D01*
X48196136Y-59936005D01*
X48442255Y-60010139D01*
X49270395Y-59182000D01*
X49629605Y-59182000D01*
X50457745Y-60010139D01*
X50703864Y-59936005D01*
X50896965Y-59398777D01*
X50869778Y-58828546D01*
X50703864Y-58427995D01*
X50551165Y-58382000D01*
X62052560Y-58382000D01*
X62052560Y-59982000D01*
X62101843Y-60229765D01*
X62242191Y-60439809D01*
X62452235Y-60580157D01*
X62700000Y-60629440D01*
X64300000Y-60629440D01*
X64547765Y-60580157D01*
X64757809Y-60439809D01*
X64898157Y-60229765D01*
X64906117Y-60189745D01*
X67671861Y-60189745D01*
X67745995Y-60435864D01*
X68283223Y-60628965D01*
X68853454Y-60601778D01*
X69254005Y-60435864D01*
X69328139Y-60189745D01*
X68500000Y-59361605D01*
X67671861Y-60189745D01*
X64906117Y-60189745D01*
X64930533Y-60067000D01*
X65618839Y-60067000D01*
X65706000Y-60084337D01*
X65793161Y-60067000D01*
X65793165Y-60067000D01*
X66051310Y-60015652D01*
X66344049Y-59820049D01*
X66393425Y-59746153D01*
X67058556Y-59081022D01*
X67080222Y-59535454D01*
X67246136Y-59936005D01*
X67492255Y-60010139D01*
X68320395Y-59182000D01*
X68679605Y-59182000D01*
X69507745Y-60010139D01*
X69753864Y-59936005D01*
X69946965Y-59398777D01*
X69919778Y-58828546D01*
X69753864Y-58427995D01*
X69507745Y-58353861D01*
X68679605Y-59182000D01*
X68320395Y-59182000D01*
X68306252Y-59167858D01*
X68485858Y-58988252D01*
X68500000Y-59002395D01*
X69328139Y-58174255D01*
X69254005Y-57928136D01*
X68716777Y-57735035D01*
X68388911Y-57750667D01*
X73815578Y-52324000D01*
X77784887Y-52324000D01*
X77896260Y-52883909D01*
X78213423Y-53358577D01*
X78688091Y-53675740D01*
X79106667Y-53759000D01*
X79389333Y-53759000D01*
X79807909Y-53675740D01*
X80282577Y-53358577D01*
X80538947Y-52974892D01*
X80635611Y-53179134D01*
X81050577Y-53555041D01*
X81438961Y-53715904D01*
X81661000Y-53593915D01*
X81661000Y-52451000D01*
X81641000Y-52451000D01*
X81641000Y-52197000D01*
X81661000Y-52197000D01*
X81661000Y-52177000D01*
X81915000Y-52177000D01*
X81915000Y-52197000D01*
X81935000Y-52197000D01*
X81935000Y-52451000D01*
X81915000Y-52451000D01*
X81915000Y-53593915D01*
X82137039Y-53715904D01*
X82525423Y-53555041D01*
X82940389Y-53179134D01*
X83037053Y-52974892D01*
X83293423Y-53358577D01*
X83768091Y-53675740D01*
X84186667Y-53759000D01*
X84469333Y-53759000D01*
X84887909Y-53675740D01*
X85362577Y-53358577D01*
X85598000Y-53006242D01*
X85833423Y-53358577D01*
X86308091Y-53675740D01*
X86726667Y-53759000D01*
X87009333Y-53759000D01*
X87427909Y-53675740D01*
X87902577Y-53358577D01*
X88138000Y-53006242D01*
X88373423Y-53358577D01*
X88848091Y-53675740D01*
X89266667Y-53759000D01*
X89549333Y-53759000D01*
X89967909Y-53675740D01*
X90442577Y-53358577D01*
X90678000Y-53006242D01*
X90913423Y-53358577D01*
X91388091Y-53675740D01*
X91806667Y-53759000D01*
X92089333Y-53759000D01*
X92507909Y-53675740D01*
X92982577Y-53358577D01*
X93218000Y-53006242D01*
X93453423Y-53358577D01*
X93603001Y-53458522D01*
X93603000Y-56073993D01*
X93453000Y-56436126D01*
X93453000Y-56847874D01*
X93610569Y-57228280D01*
X93901720Y-57519431D01*
X94282126Y-57677000D01*
X94693874Y-57677000D01*
X95074280Y-57519431D01*
X95365431Y-57228280D01*
X95523000Y-56847874D01*
X95523000Y-56436126D01*
X95373000Y-56073993D01*
X95373000Y-53458521D01*
X95522577Y-53358577D01*
X95758000Y-53006242D01*
X95993423Y-53358577D01*
X96143001Y-53458522D01*
X96143000Y-55057993D01*
X95993000Y-55420126D01*
X95993000Y-55831874D01*
X96150569Y-56212280D01*
X96441720Y-56503431D01*
X96822126Y-56661000D01*
X97233874Y-56661000D01*
X97614280Y-56503431D01*
X97905431Y-56212280D01*
X98063000Y-55831874D01*
X98063000Y-55420126D01*
X97913000Y-55057993D01*
X97913000Y-53458521D01*
X98062577Y-53358577D01*
X98298000Y-53006242D01*
X98533423Y-53358577D01*
X98683001Y-53458521D01*
X98683000Y-54041993D01*
X98533000Y-54404126D01*
X98533000Y-54815874D01*
X98690569Y-55196280D01*
X98981720Y-55487431D01*
X99362126Y-55645000D01*
X99773874Y-55645000D01*
X100154280Y-55487431D01*
X100445431Y-55196280D01*
X100603000Y-54815874D01*
X100603000Y-54568711D01*
X100759720Y-54725431D01*
X101140126Y-54883000D01*
X101551874Y-54883000D01*
X101914007Y-54733000D01*
X115990839Y-54733000D01*
X116078000Y-54750337D01*
X116165161Y-54733000D01*
X116165165Y-54733000D01*
X116423310Y-54681652D01*
X116716049Y-54486049D01*
X116765425Y-54412153D01*
X117460579Y-53717000D01*
X124045467Y-53717000D01*
X124077843Y-53879765D01*
X124218191Y-54089809D01*
X124428235Y-54230157D01*
X124676000Y-54279440D01*
X126276000Y-54279440D01*
X126523765Y-54230157D01*
X126733809Y-54089809D01*
X126874157Y-53879765D01*
X126923440Y-53632000D01*
X126923440Y-52032000D01*
X126874157Y-51784235D01*
X126832156Y-51721377D01*
X126876049Y-51692049D01*
X126925425Y-51618153D01*
X143840560Y-34703019D01*
X143840560Y-35344000D01*
X143889843Y-35591765D01*
X144030191Y-35801809D01*
X144240235Y-35942157D01*
X144488000Y-35991440D01*
X146088000Y-35991440D01*
X146335765Y-35942157D01*
X146545809Y-35801809D01*
X146686157Y-35591765D01*
X146694117Y-35551745D01*
X149459861Y-35551745D01*
X149533995Y-35797864D01*
X150071223Y-35990965D01*
X150641454Y-35963778D01*
X151042005Y-35797864D01*
X151116139Y-35551745D01*
X150288000Y-34723605D01*
X149459861Y-35551745D01*
X146694117Y-35551745D01*
X146735440Y-35344000D01*
X146735440Y-34327223D01*
X148841035Y-34327223D01*
X148868222Y-34897454D01*
X149034136Y-35298005D01*
X149280255Y-35372139D01*
X150108395Y-34544000D01*
X150467605Y-34544000D01*
X151295745Y-35372139D01*
X151541864Y-35298005D01*
X151734965Y-34760777D01*
X151707778Y-34190546D01*
X151541864Y-33789995D01*
X151295745Y-33715861D01*
X150467605Y-34544000D01*
X150108395Y-34544000D01*
X149280255Y-33715861D01*
X149034136Y-33789995D01*
X148841035Y-34327223D01*
X146735440Y-34327223D01*
X146735440Y-33744000D01*
X146694118Y-33536255D01*
X149459861Y-33536255D01*
X150288000Y-34364395D01*
X151116139Y-33536255D01*
X151042005Y-33290136D01*
X150504777Y-33097035D01*
X149934546Y-33124222D01*
X149533995Y-33290136D01*
X149459861Y-33536255D01*
X146694118Y-33536255D01*
X146686157Y-33496235D01*
X146545809Y-33286191D01*
X146335765Y-33145843D01*
X146088000Y-33096560D01*
X145447019Y-33096560D01*
X146460156Y-32083423D01*
X146534049Y-32034049D01*
X146631669Y-31887952D01*
X146729651Y-31741311D01*
X146729652Y-31741310D01*
X146781000Y-31483165D01*
X146781000Y-31483161D01*
X146798337Y-31396001D01*
X146781000Y-31308841D01*
X146781000Y-23034251D01*
X146858480Y-22982481D01*
X147153542Y-22540891D01*
X147231000Y-22151485D01*
X147231000Y-21288516D01*
X147231000Y-21288515D01*
X149061000Y-21288515D01*
X149061000Y-22151484D01*
X149138458Y-22540890D01*
X149433519Y-22982480D01*
X149875109Y-23277542D01*
X150396000Y-23381154D01*
X150916890Y-23277542D01*
X151358480Y-22982481D01*
X151653542Y-22540891D01*
X151731000Y-22151485D01*
X151731000Y-21288516D01*
X151653542Y-20899109D01*
X151358481Y-20457519D01*
X150916891Y-20162458D01*
X150396000Y-20058846D01*
X149875110Y-20162458D01*
X149433520Y-20457519D01*
X149138458Y-20899109D01*
X149061000Y-21288515D01*
X147231000Y-21288515D01*
X147153542Y-20899109D01*
X146858481Y-20457519D01*
X146416891Y-20162458D01*
X145896000Y-20058846D01*
X145375110Y-20162458D01*
X144933520Y-20457519D01*
X144638458Y-20899109D01*
X144561000Y-21288515D01*
X144561000Y-22151484D01*
X144638458Y-22540890D01*
X144933519Y-22982480D01*
X145011000Y-23034251D01*
X145011001Y-31029420D01*
X133473000Y-42567422D01*
X133473000Y-35551745D01*
X134981861Y-35551745D01*
X135055995Y-35797864D01*
X135593223Y-35990965D01*
X136163454Y-35963778D01*
X136564005Y-35797864D01*
X136638139Y-35551745D01*
X135810000Y-34723605D01*
X134981861Y-35551745D01*
X133473000Y-35551745D01*
X133473000Y-34327223D01*
X134363035Y-34327223D01*
X134390222Y-34897454D01*
X134556136Y-35298005D01*
X134802255Y-35372139D01*
X135630395Y-34544000D01*
X135989605Y-34544000D01*
X136817745Y-35372139D01*
X137063864Y-35298005D01*
X137256965Y-34760777D01*
X137229778Y-34190546D01*
X137063864Y-33789995D01*
X136817745Y-33715861D01*
X135989605Y-34544000D01*
X135630395Y-34544000D01*
X134802255Y-33715861D01*
X134556136Y-33789995D01*
X134363035Y-34327223D01*
X133473000Y-34327223D01*
X133473000Y-33536255D01*
X134981861Y-33536255D01*
X135810000Y-34364395D01*
X136638139Y-33536255D01*
X136564005Y-33290136D01*
X136026777Y-33097035D01*
X135456546Y-33124222D01*
X135055995Y-33290136D01*
X134981861Y-33536255D01*
X133473000Y-33536255D01*
X133473000Y-33107159D01*
X133490337Y-33019999D01*
X133473000Y-32932839D01*
X133473000Y-32932835D01*
X133421652Y-32674690D01*
X133303591Y-32498000D01*
X133275424Y-32455845D01*
X133275423Y-32455844D01*
X133226049Y-32381951D01*
X133152156Y-32332577D01*
X132811000Y-31991422D01*
X132811000Y-23034251D01*
X132888480Y-22982481D01*
X133183542Y-22540891D01*
X133261000Y-22151485D01*
X133261000Y-21288516D01*
X133261000Y-21288515D01*
X135091000Y-21288515D01*
X135091000Y-22151484D01*
X135168458Y-22540890D01*
X135463519Y-22982480D01*
X135905109Y-23277542D01*
X136426000Y-23381154D01*
X136946890Y-23277542D01*
X137388480Y-22982481D01*
X137683542Y-22540891D01*
X137761000Y-22151485D01*
X137761000Y-21288516D01*
X137683542Y-20899109D01*
X137388481Y-20457519D01*
X136946891Y-20162458D01*
X136426000Y-20058846D01*
X135905110Y-20162458D01*
X135463520Y-20457519D01*
X135168458Y-20899109D01*
X135091000Y-21288515D01*
X133261000Y-21288515D01*
X133183542Y-20899109D01*
X132888481Y-20457519D01*
X132446891Y-20162458D01*
X131926000Y-20058846D01*
X131405110Y-20162458D01*
X131187000Y-20308194D01*
X131187000Y-19969000D01*
X131796895Y-19969000D01*
X132508090Y-19674414D01*
X133052414Y-19130090D01*
X133347000Y-18418895D01*
X133347000Y-17649105D01*
X134477000Y-17649105D01*
X134477000Y-18418895D01*
X134771586Y-19130090D01*
X135315910Y-19674414D01*
X136027105Y-19969000D01*
X136796895Y-19969000D01*
X137508090Y-19674414D01*
X138052414Y-19130090D01*
X138347000Y-18418895D01*
X138347000Y-17649105D01*
X139477000Y-17649105D01*
X139477000Y-18418895D01*
X139771586Y-19130090D01*
X140315910Y-19674414D01*
X141027105Y-19969000D01*
X141796895Y-19969000D01*
X142508090Y-19674414D01*
X143052414Y-19130090D01*
X143347000Y-18418895D01*
X143347000Y-17649105D01*
X144477000Y-17649105D01*
X144477000Y-18418895D01*
X144771586Y-19130090D01*
X145315910Y-19674414D01*
X146027105Y-19969000D01*
X146796895Y-19969000D01*
X147508090Y-19674414D01*
X148052414Y-19130090D01*
X148347000Y-18418895D01*
X148347000Y-17649105D01*
X148052414Y-16937910D01*
X147508090Y-16393586D01*
X146796895Y-16099000D01*
X146027105Y-16099000D01*
X145315910Y-16393586D01*
X144771586Y-16937910D01*
X144477000Y-17649105D01*
X143347000Y-17649105D01*
X143052414Y-16937910D01*
X142508090Y-16393586D01*
X141796895Y-16099000D01*
X141027105Y-16099000D01*
X140315910Y-16393586D01*
X139771586Y-16937910D01*
X139477000Y-17649105D01*
X138347000Y-17649105D01*
X138052414Y-16937910D01*
X137508090Y-16393586D01*
X136796895Y-16099000D01*
X136027105Y-16099000D01*
X135315910Y-16393586D01*
X134771586Y-16937910D01*
X134477000Y-17649105D01*
X133347000Y-17649105D01*
X133052414Y-16937910D01*
X132508090Y-16393586D01*
X131796895Y-16099000D01*
X131027105Y-16099000D01*
X130315910Y-16393586D01*
X129771586Y-16937910D01*
X129477000Y-17649105D01*
X129477000Y-18418895D01*
X129570803Y-18645356D01*
X129468348Y-18798691D01*
X129399663Y-19144000D01*
X129417001Y-19231165D01*
X129417000Y-22772839D01*
X129399663Y-22860000D01*
X129417000Y-22947161D01*
X129417000Y-22947164D01*
X129468348Y-23205309D01*
X129663951Y-23498049D01*
X129737847Y-23547425D01*
X129925001Y-23734579D01*
X129925000Y-33113467D01*
X129762235Y-33145843D01*
X129552191Y-33286191D01*
X129411843Y-33496235D01*
X129362560Y-33744000D01*
X129362560Y-35344000D01*
X129411843Y-35591765D01*
X129552191Y-35801809D01*
X129762235Y-35942157D01*
X130010000Y-35991440D01*
X131610000Y-35991440D01*
X131703000Y-35972941D01*
X131703001Y-43321420D01*
X126893405Y-48131017D01*
X126922965Y-48048777D01*
X126895778Y-47478546D01*
X126729864Y-47077995D01*
X126483745Y-47003861D01*
X125655605Y-47832000D01*
X125669748Y-47846142D01*
X125490142Y-48025748D01*
X125476000Y-48011605D01*
X124647861Y-48839745D01*
X124721995Y-49085864D01*
X125259223Y-49278965D01*
X125769800Y-49254622D01*
X125617422Y-49407000D01*
X106767161Y-49407000D01*
X106680000Y-49389663D01*
X106592839Y-49407000D01*
X106592835Y-49407000D01*
X106334690Y-49458348D01*
X106115845Y-49604576D01*
X106115844Y-49604577D01*
X106041951Y-49653951D01*
X105992577Y-49727844D01*
X104824439Y-50895983D01*
X104793708Y-50889870D01*
X108011828Y-47671750D01*
X109621000Y-47671750D01*
X109621000Y-48762309D01*
X109717673Y-48995698D01*
X109896301Y-49174327D01*
X110129690Y-49271000D01*
X111220250Y-49271000D01*
X111379000Y-49112250D01*
X111379000Y-47513000D01*
X111633000Y-47513000D01*
X111633000Y-49112250D01*
X111791750Y-49271000D01*
X112882310Y-49271000D01*
X113115699Y-49174327D01*
X113294327Y-48995698D01*
X113391000Y-48762309D01*
X113391000Y-47671750D01*
X113334473Y-47615223D01*
X124029035Y-47615223D01*
X124056222Y-48185454D01*
X124222136Y-48586005D01*
X124468255Y-48660139D01*
X125296395Y-47832000D01*
X124468255Y-47003861D01*
X124222136Y-47077995D01*
X124029035Y-47615223D01*
X113334473Y-47615223D01*
X113232250Y-47513000D01*
X111633000Y-47513000D01*
X111379000Y-47513000D01*
X109779750Y-47513000D01*
X109621000Y-47671750D01*
X108011828Y-47671750D01*
X109621000Y-46062578D01*
X109621000Y-47100250D01*
X109779750Y-47259000D01*
X111379000Y-47259000D01*
X111379000Y-45659750D01*
X111633000Y-45659750D01*
X111633000Y-47259000D01*
X113232250Y-47259000D01*
X113391000Y-47100250D01*
X113391000Y-46824255D01*
X124647861Y-46824255D01*
X125476000Y-47652395D01*
X126304139Y-46824255D01*
X126230005Y-46578136D01*
X125692777Y-46385035D01*
X125122546Y-46412222D01*
X124721995Y-46578136D01*
X124647861Y-46824255D01*
X113391000Y-46824255D01*
X113391000Y-46009691D01*
X113294327Y-45776302D01*
X113115699Y-45597673D01*
X112882310Y-45501000D01*
X111791750Y-45501000D01*
X111633000Y-45659750D01*
X111379000Y-45659750D01*
X111220250Y-45501000D01*
X110182579Y-45501000D01*
X116642156Y-39041423D01*
X116716049Y-38992049D01*
X116911652Y-38699310D01*
X116963000Y-38441165D01*
X116963000Y-38441161D01*
X116980337Y-38354001D01*
X116963000Y-38266841D01*
X116963000Y-35991440D01*
X118148000Y-35991440D01*
X118395765Y-35942157D01*
X118605809Y-35801809D01*
X118746157Y-35591765D01*
X118754117Y-35551745D01*
X121519861Y-35551745D01*
X121593995Y-35797864D01*
X122131223Y-35990965D01*
X122701454Y-35963778D01*
X123102005Y-35797864D01*
X123176139Y-35551745D01*
X122348000Y-34723605D01*
X121519861Y-35551745D01*
X118754117Y-35551745D01*
X118795440Y-35344000D01*
X118795440Y-34327223D01*
X120901035Y-34327223D01*
X120928222Y-34897454D01*
X121094136Y-35298005D01*
X121340255Y-35372139D01*
X122168395Y-34544000D01*
X122527605Y-34544000D01*
X123355745Y-35372139D01*
X123601864Y-35298005D01*
X123794965Y-34760777D01*
X123767778Y-34190546D01*
X123601864Y-33789995D01*
X123355745Y-33715861D01*
X122527605Y-34544000D01*
X122168395Y-34544000D01*
X121340255Y-33715861D01*
X121094136Y-33789995D01*
X120901035Y-34327223D01*
X118795440Y-34327223D01*
X118795440Y-33744000D01*
X118754118Y-33536255D01*
X121519861Y-33536255D01*
X122348000Y-34364395D01*
X123176139Y-33536255D01*
X123102005Y-33290136D01*
X122564777Y-33097035D01*
X121994546Y-33124222D01*
X121593995Y-33290136D01*
X121519861Y-33536255D01*
X118754118Y-33536255D01*
X118746157Y-33496235D01*
X118605809Y-33286191D01*
X118395765Y-33145843D01*
X118233000Y-33113467D01*
X118233000Y-25766578D01*
X121454954Y-22544625D01*
X121747519Y-22982480D01*
X122189109Y-23277542D01*
X122710000Y-23381154D01*
X123230890Y-23277542D01*
X123672480Y-22982481D01*
X123967542Y-22540891D01*
X124045000Y-22151485D01*
X124045000Y-21288516D01*
X123967542Y-20899109D01*
X123672481Y-20457519D01*
X123230891Y-20162458D01*
X122710000Y-20058846D01*
X122297000Y-20140997D01*
X122297000Y-19981440D01*
X122712000Y-19981440D01*
X122959765Y-19932157D01*
X123169809Y-19791809D01*
X123310157Y-19581765D01*
X123359440Y-19334000D01*
X123359440Y-17649105D01*
X124477000Y-17649105D01*
X124477000Y-18418895D01*
X124771586Y-19130090D01*
X125315910Y-19674414D01*
X126027105Y-19969000D01*
X126796895Y-19969000D01*
X127508090Y-19674414D01*
X128052414Y-19130090D01*
X128347000Y-18418895D01*
X128347000Y-17649105D01*
X128052414Y-16937910D01*
X127508090Y-16393586D01*
X126796895Y-16099000D01*
X126027105Y-16099000D01*
X125315910Y-16393586D01*
X124771586Y-16937910D01*
X124477000Y-17649105D01*
X123359440Y-17649105D01*
X123359440Y-16734000D01*
X123310157Y-16486235D01*
X123169809Y-16276191D01*
X122959765Y-16135843D01*
X122712000Y-16086560D01*
X120112000Y-16086560D01*
X119864235Y-16135843D01*
X119654191Y-16276191D01*
X119513843Y-16486235D01*
X119464560Y-16734000D01*
X119464560Y-19334000D01*
X119513843Y-19581765D01*
X119654191Y-19791809D01*
X119864235Y-19932157D01*
X120112000Y-19981440D01*
X120527000Y-19981440D01*
X120527000Y-20969421D01*
X119545000Y-21951421D01*
X119545000Y-21288516D01*
X119467542Y-20899109D01*
X119172481Y-20457519D01*
X118730891Y-20162458D01*
X118210000Y-20058846D01*
X117689110Y-20162458D01*
X117247520Y-20457519D01*
X116952458Y-20899109D01*
X116875000Y-21288515D01*
X116875000Y-22151484D01*
X116952458Y-22540890D01*
X117246086Y-22980335D01*
X115513847Y-24712575D01*
X115439951Y-24761951D01*
X115244348Y-25054691D01*
X115193000Y-25312836D01*
X115193000Y-25312839D01*
X115175663Y-25400000D01*
X115193000Y-25487161D01*
X115193001Y-37987420D01*
X102284439Y-50895983D01*
X102249333Y-50889000D01*
X101966667Y-50889000D01*
X101548091Y-50972260D01*
X101073423Y-51289423D01*
X100838000Y-51641758D01*
X100602577Y-51289423D01*
X100127909Y-50972260D01*
X99709333Y-50889000D01*
X99426667Y-50889000D01*
X99008091Y-50972260D01*
X98533423Y-51289423D01*
X98298000Y-51641758D01*
X98062577Y-51289423D01*
X97587909Y-50972260D01*
X97169333Y-50889000D01*
X96886667Y-50889000D01*
X96468091Y-50972260D01*
X95993423Y-51289423D01*
X95758000Y-51641758D01*
X95522577Y-51289423D01*
X95047909Y-50972260D01*
X94629333Y-50889000D01*
X94346667Y-50889000D01*
X93928091Y-50972260D01*
X93453423Y-51289423D01*
X93218000Y-51641758D01*
X92982577Y-51289423D01*
X92507909Y-50972260D01*
X92089333Y-50889000D01*
X91806667Y-50889000D01*
X91388091Y-50972260D01*
X90913423Y-51289423D01*
X90678000Y-51641758D01*
X90442577Y-51289423D01*
X89967909Y-50972260D01*
X89549333Y-50889000D01*
X89266667Y-50889000D01*
X88848091Y-50972260D01*
X88373423Y-51289423D01*
X88138000Y-51641758D01*
X87902577Y-51289423D01*
X87427909Y-50972260D01*
X87009333Y-50889000D01*
X86726667Y-50889000D01*
X86308091Y-50972260D01*
X85833423Y-51289423D01*
X85598000Y-51641758D01*
X85362577Y-51289423D01*
X84887909Y-50972260D01*
X84469333Y-50889000D01*
X84186667Y-50889000D01*
X83768091Y-50972260D01*
X83293423Y-51289423D01*
X83037053Y-51673108D01*
X82940389Y-51468866D01*
X82525423Y-51092959D01*
X82213406Y-50963726D01*
X84290132Y-48887000D01*
X94884217Y-48887000D01*
X94996000Y-48909235D01*
X95107783Y-48887000D01*
X95302480Y-48848273D01*
X95438233Y-48984026D01*
X96131050Y-49271000D01*
X96880950Y-49271000D01*
X97573767Y-48984026D01*
X98104026Y-48453767D01*
X98391000Y-47760950D01*
X98391000Y-47011050D01*
X98104026Y-46318233D01*
X97573767Y-45787974D01*
X96880950Y-45501000D01*
X96131050Y-45501000D01*
X95438233Y-45787974D01*
X94907974Y-46318233D01*
X94904489Y-46326647D01*
X94543711Y-46567711D01*
X94510777Y-46617000D01*
X90557961Y-46617000D01*
X90789000Y-46059222D01*
X90789000Y-45408778D01*
X90540086Y-44807847D01*
X90080153Y-44347914D01*
X89479222Y-44099000D01*
X88828778Y-44099000D01*
X88227847Y-44347914D01*
X87767914Y-44807847D01*
X87519000Y-45408778D01*
X87519000Y-46059222D01*
X87750039Y-46617000D01*
X85557961Y-46617000D01*
X85789000Y-46059222D01*
X85789000Y-45408778D01*
X85540086Y-44807847D01*
X85080153Y-44347914D01*
X84479222Y-44099000D01*
X83828778Y-44099000D01*
X83227847Y-44347914D01*
X82767914Y-44807847D01*
X82519000Y-45408778D01*
X82519000Y-46059222D01*
X82767914Y-46660153D01*
X83025546Y-46917785D01*
X83001711Y-46933711D01*
X82938389Y-47028479D01*
X79070718Y-50896151D01*
X78688091Y-50972260D01*
X78213423Y-51289423D01*
X77896260Y-51764091D01*
X77784887Y-52324000D01*
X73815578Y-52324000D01*
X78787625Y-47351954D01*
X78828778Y-47369000D01*
X79479222Y-47369000D01*
X80080153Y-47120086D01*
X80540086Y-46660153D01*
X80789000Y-46059222D01*
X80789000Y-45408778D01*
X80540086Y-44807847D01*
X80080153Y-44347914D01*
X79479222Y-44099000D01*
X78828778Y-44099000D01*
X78227847Y-44347914D01*
X77767914Y-44807847D01*
X77519000Y-45408778D01*
X77519000Y-46059222D01*
X77536046Y-46100375D01*
X65339422Y-58297000D01*
X64930533Y-58297000D01*
X64898157Y-58134235D01*
X64757809Y-57924191D01*
X64547765Y-57783843D01*
X64300000Y-57734560D01*
X62700000Y-57734560D01*
X62452235Y-57783843D01*
X62242191Y-57924191D01*
X62101843Y-58134235D01*
X62052560Y-58382000D01*
X50551165Y-58382000D01*
X50457745Y-58353861D01*
X49629605Y-59182000D01*
X49270395Y-59182000D01*
X48442255Y-58353861D01*
X48196136Y-58427995D01*
X48003035Y-58965223D01*
X45897440Y-58965223D01*
X45897440Y-58382000D01*
X45856118Y-58174255D01*
X48621861Y-58174255D01*
X49450000Y-59002395D01*
X50278139Y-58174255D01*
X50204005Y-57928136D01*
X49666777Y-57735035D01*
X49096546Y-57762222D01*
X48695995Y-57928136D01*
X48621861Y-58174255D01*
X45856118Y-58174255D01*
X45848157Y-58134235D01*
X45707809Y-57924191D01*
X45497765Y-57783843D01*
X45335000Y-57751467D01*
X45335000Y-56420578D01*
X54403625Y-47351954D01*
X54444778Y-47369000D01*
X55095222Y-47369000D01*
X55696153Y-47120086D01*
X56156086Y-46660153D01*
X56405000Y-46059222D01*
X56405000Y-45408778D01*
X58135000Y-45408778D01*
X58135000Y-46059222D01*
X58383914Y-46660153D01*
X58843847Y-47120086D01*
X59444778Y-47369000D01*
X60095222Y-47369000D01*
X60696153Y-47120086D01*
X61156086Y-46660153D01*
X61405000Y-46059222D01*
X61405000Y-45408778D01*
X63135000Y-45408778D01*
X63135000Y-46059222D01*
X63383914Y-46660153D01*
X63843847Y-47120086D01*
X64444778Y-47369000D01*
X65095222Y-47369000D01*
X65696153Y-47120086D01*
X66156086Y-46660153D01*
X66405000Y-46059222D01*
X66405000Y-45408778D01*
X72519000Y-45408778D01*
X72519000Y-46059222D01*
X72767914Y-46660153D01*
X73227847Y-47120086D01*
X73828778Y-47369000D01*
X74479222Y-47369000D01*
X75080153Y-47120086D01*
X75540086Y-46660153D01*
X75789000Y-46059222D01*
X75789000Y-45408778D01*
X75540086Y-44807847D01*
X75080153Y-44347914D01*
X74479222Y-44099000D01*
X73828778Y-44099000D01*
X73227847Y-44347914D01*
X72767914Y-44807847D01*
X72519000Y-45408778D01*
X66405000Y-45408778D01*
X66156086Y-44807847D01*
X65696153Y-44347914D01*
X65095222Y-44099000D01*
X64444778Y-44099000D01*
X63843847Y-44347914D01*
X63383914Y-44807847D01*
X63135000Y-45408778D01*
X61405000Y-45408778D01*
X61156086Y-44807847D01*
X60696153Y-44347914D01*
X60095222Y-44099000D01*
X59444778Y-44099000D01*
X58843847Y-44347914D01*
X58383914Y-44807847D01*
X58135000Y-45408778D01*
X56405000Y-45408778D01*
X56156086Y-44807847D01*
X55696153Y-44347914D01*
X55095222Y-44099000D01*
X54444778Y-44099000D01*
X53843847Y-44347914D01*
X53383914Y-44807847D01*
X53135000Y-45408778D01*
X53135000Y-46059222D01*
X53152046Y-46100375D01*
X43885845Y-55366577D01*
X43811952Y-55415951D01*
X43762578Y-55489844D01*
X43762576Y-55489846D01*
X43616348Y-55708691D01*
X43547663Y-56054000D01*
X43565001Y-56141165D01*
X43565000Y-57751467D01*
X43402235Y-57783843D01*
X43192191Y-57924191D01*
X43051843Y-58134235D01*
X43002560Y-58382000D01*
X31755165Y-58382000D01*
X31661745Y-58353861D01*
X30833605Y-59182000D01*
X30474395Y-59182000D01*
X29646255Y-58353861D01*
X29400136Y-58427995D01*
X29207035Y-58965223D01*
X27101440Y-58965223D01*
X27101440Y-58382000D01*
X27060118Y-58174255D01*
X29825861Y-58174255D01*
X30654000Y-59002395D01*
X31482139Y-58174255D01*
X31408005Y-57928136D01*
X30870777Y-57735035D01*
X30300546Y-57762222D01*
X29899995Y-57928136D01*
X29825861Y-58174255D01*
X27060118Y-58174255D01*
X27052157Y-58134235D01*
X26911809Y-57924191D01*
X26701765Y-57783843D01*
X26539000Y-57751467D01*
X26539000Y-51086578D01*
X30273625Y-47351954D01*
X30314778Y-47369000D01*
X30965222Y-47369000D01*
X31566153Y-47120086D01*
X32026086Y-46660153D01*
X32275000Y-46059222D01*
X32275000Y-45408778D01*
X34005000Y-45408778D01*
X34005000Y-46059222D01*
X34253914Y-46660153D01*
X34713847Y-47120086D01*
X35314778Y-47369000D01*
X35965222Y-47369000D01*
X36566153Y-47120086D01*
X37026086Y-46660153D01*
X37275000Y-46059222D01*
X37275000Y-45408778D01*
X39005000Y-45408778D01*
X39005000Y-46059222D01*
X39253914Y-46660153D01*
X39713847Y-47120086D01*
X40314778Y-47369000D01*
X40965222Y-47369000D01*
X41566153Y-47120086D01*
X42026086Y-46660153D01*
X42275000Y-46059222D01*
X42275000Y-45408778D01*
X48135000Y-45408778D01*
X48135000Y-46059222D01*
X48383914Y-46660153D01*
X48843847Y-47120086D01*
X49444778Y-47369000D01*
X50095222Y-47369000D01*
X50696153Y-47120086D01*
X51156086Y-46660153D01*
X51405000Y-46059222D01*
X51405000Y-45408778D01*
X51156086Y-44807847D01*
X50696153Y-44347914D01*
X50095222Y-44099000D01*
X49444778Y-44099000D01*
X48843847Y-44347914D01*
X48383914Y-44807847D01*
X48135000Y-45408778D01*
X42275000Y-45408778D01*
X42026086Y-44807847D01*
X41566153Y-44347914D01*
X40965222Y-44099000D01*
X40314778Y-44099000D01*
X39713847Y-44347914D01*
X39253914Y-44807847D01*
X39005000Y-45408778D01*
X37275000Y-45408778D01*
X37026086Y-44807847D01*
X36566153Y-44347914D01*
X35965222Y-44099000D01*
X35314778Y-44099000D01*
X34713847Y-44347914D01*
X34253914Y-44807847D01*
X34005000Y-45408778D01*
X32275000Y-45408778D01*
X32026086Y-44807847D01*
X31566153Y-44347914D01*
X30965222Y-44099000D01*
X30314778Y-44099000D01*
X29713847Y-44347914D01*
X29253914Y-44807847D01*
X29005000Y-45408778D01*
X29005000Y-46059222D01*
X29022046Y-46100375D01*
X25089845Y-50032577D01*
X25015952Y-50081951D01*
X24966578Y-50155844D01*
X24966576Y-50155846D01*
X24820348Y-50374691D01*
X24751663Y-50720000D01*
X24769001Y-50807165D01*
X24769000Y-57751467D01*
X24606235Y-57783843D01*
X24396191Y-57924191D01*
X24255843Y-58134235D01*
X24206560Y-58382000D01*
X19023000Y-58382000D01*
X19023000Y-45408778D01*
X24005000Y-45408778D01*
X24005000Y-46059222D01*
X24253914Y-46660153D01*
X24713847Y-47120086D01*
X25314778Y-47369000D01*
X25965222Y-47369000D01*
X26566153Y-47120086D01*
X27026086Y-46660153D01*
X27275000Y-46059222D01*
X27275000Y-45408778D01*
X27026086Y-44807847D01*
X26566153Y-44347914D01*
X25965222Y-44099000D01*
X25314778Y-44099000D01*
X24713847Y-44347914D01*
X24253914Y-44807847D01*
X24005000Y-45408778D01*
X19023000Y-45408778D01*
X19023000Y-42291000D01*
X22372533Y-42291000D01*
X22729119Y-42353875D01*
X22790074Y-42366000D01*
X42995926Y-42366000D01*
X43056874Y-42353877D01*
X43413468Y-42291000D01*
X71140533Y-42291000D01*
X71497119Y-42353875D01*
X71558074Y-42366000D01*
X91763926Y-42366000D01*
X91824874Y-42353877D01*
X92181468Y-42291000D01*
X94488000Y-42291000D01*
X94536601Y-42281333D01*
X94577803Y-42253803D01*
X94605333Y-42212601D01*
X94615000Y-42164000D01*
X94615000Y-38481000D01*
X114046000Y-38481000D01*
X114094601Y-38471333D01*
X114135803Y-38443803D01*
X114163333Y-38402601D01*
X114173000Y-38354000D01*
X114173000Y-13320000D01*
X115862560Y-13320000D01*
X115862560Y-15320000D01*
X115911843Y-15567765D01*
X116052191Y-15777809D01*
X116262235Y-15918157D01*
X116510000Y-15967440D01*
X117910000Y-15967440D01*
X118157765Y-15918157D01*
X118367809Y-15777809D01*
X118508157Y-15567765D01*
X118557440Y-15320000D01*
X118557440Y-15205000D01*
X122362560Y-15205000D01*
X122362560Y-15320000D01*
X122411843Y-15567765D01*
X122552191Y-15777809D01*
X122762235Y-15918157D01*
X123010000Y-15967440D01*
X124410000Y-15967440D01*
X124657765Y-15918157D01*
X124867809Y-15777809D01*
X125008157Y-15567765D01*
X125057440Y-15320000D01*
X125057440Y-13320000D01*
X129578560Y-13320000D01*
X129578560Y-15320000D01*
X129627843Y-15567765D01*
X129768191Y-15777809D01*
X129978235Y-15918157D01*
X130226000Y-15967440D01*
X131626000Y-15967440D01*
X131873765Y-15918157D01*
X132083809Y-15777809D01*
X132224157Y-15567765D01*
X132273440Y-15320000D01*
X132273440Y-15205000D01*
X136078560Y-15205000D01*
X136078560Y-15320000D01*
X136127843Y-15567765D01*
X136268191Y-15777809D01*
X136478235Y-15918157D01*
X136726000Y-15967440D01*
X138126000Y-15967440D01*
X138373765Y-15918157D01*
X138583809Y-15777809D01*
X138724157Y-15567765D01*
X138773440Y-15320000D01*
X138773440Y-13320000D01*
X143548560Y-13320000D01*
X143548560Y-15320000D01*
X143597843Y-15567765D01*
X143738191Y-15777809D01*
X143948235Y-15918157D01*
X144196000Y-15967440D01*
X145596000Y-15967440D01*
X145843765Y-15918157D01*
X146053809Y-15777809D01*
X146194157Y-15567765D01*
X146243440Y-15320000D01*
X146243440Y-15205000D01*
X150048560Y-15205000D01*
X150048560Y-15320000D01*
X150097843Y-15567765D01*
X150238191Y-15777809D01*
X150448235Y-15918157D01*
X150696000Y-15967440D01*
X152096000Y-15967440D01*
X152343765Y-15918157D01*
X152553809Y-15777809D01*
X152694157Y-15567765D01*
X152743440Y-15320000D01*
X152743440Y-13320000D01*
X152694157Y-13072235D01*
X152553809Y-12862191D01*
X152343765Y-12721843D01*
X152096000Y-12672560D01*
X150696000Y-12672560D01*
X150448235Y-12721843D01*
X150238191Y-12862191D01*
X150097843Y-13072235D01*
X150048560Y-13320000D01*
X150048560Y-13435000D01*
X146243440Y-13435000D01*
X146243440Y-13320000D01*
X146194157Y-13072235D01*
X146053809Y-12862191D01*
X145843765Y-12721843D01*
X145596000Y-12672560D01*
X144196000Y-12672560D01*
X143948235Y-12721843D01*
X143738191Y-12862191D01*
X143597843Y-13072235D01*
X143548560Y-13320000D01*
X138773440Y-13320000D01*
X138724157Y-13072235D01*
X138583809Y-12862191D01*
X138373765Y-12721843D01*
X138126000Y-12672560D01*
X136726000Y-12672560D01*
X136478235Y-12721843D01*
X136268191Y-12862191D01*
X136127843Y-13072235D01*
X136078560Y-13320000D01*
X136078560Y-13435000D01*
X132273440Y-13435000D01*
X132273440Y-13320000D01*
X132224157Y-13072235D01*
X132083809Y-12862191D01*
X131873765Y-12721843D01*
X131626000Y-12672560D01*
X130226000Y-12672560D01*
X129978235Y-12721843D01*
X129768191Y-12862191D01*
X129627843Y-13072235D01*
X129578560Y-13320000D01*
X125057440Y-13320000D01*
X125008157Y-13072235D01*
X124867809Y-12862191D01*
X124657765Y-12721843D01*
X124410000Y-12672560D01*
X123010000Y-12672560D01*
X122762235Y-12721843D01*
X122552191Y-12862191D01*
X122411843Y-13072235D01*
X122362560Y-13320000D01*
X122362560Y-13435000D01*
X118557440Y-13435000D01*
X118557440Y-13320000D01*
X118508157Y-13072235D01*
X118367809Y-12862191D01*
X118157765Y-12721843D01*
X117910000Y-12672560D01*
X116510000Y-12672560D01*
X116262235Y-12721843D01*
X116052191Y-12862191D01*
X115911843Y-13072235D01*
X115862560Y-13320000D01*
X114173000Y-13320000D01*
X114173000Y-11811000D01*
X153035000Y-11811000D01*
X153035000Y-52197000D01*
G04 #@! TO.N,Net-(J2-Pad1)*
G36*
X134737611Y-55786866D02*
X134498086Y-56292959D01*
X134619371Y-56515000D01*
X135763000Y-56515000D01*
X135763000Y-56495000D01*
X136017000Y-56495000D01*
X136017000Y-56515000D01*
X136037000Y-56515000D01*
X136037000Y-56769000D01*
X136017000Y-56769000D01*
X136017000Y-57911915D01*
X136239039Y-58033904D01*
X136627423Y-57873041D01*
X137042389Y-57497134D01*
X137139053Y-57292892D01*
X137395423Y-57676577D01*
X137545000Y-57776521D01*
X137545001Y-69693000D01*
X136949105Y-69693000D01*
X136237910Y-69987586D01*
X135693586Y-70531910D01*
X135399000Y-71243105D01*
X135399000Y-72012895D01*
X135693586Y-72724090D01*
X136237910Y-73268414D01*
X136949105Y-73563000D01*
X137718895Y-73563000D01*
X138430090Y-73268414D01*
X138974414Y-72724090D01*
X139269000Y-72012895D01*
X139269000Y-71243105D01*
X139173419Y-71012352D01*
X139263652Y-70877310D01*
X139315000Y-70619165D01*
X139315000Y-70619160D01*
X139332337Y-70532001D01*
X139315000Y-70444841D01*
X139315000Y-57776521D01*
X139464577Y-57676577D01*
X139545215Y-57555894D01*
X139571843Y-57689765D01*
X139712191Y-57899809D01*
X139922235Y-58040157D01*
X140170000Y-58089440D01*
X141770000Y-58089440D01*
X142017765Y-58040157D01*
X142227809Y-57899809D01*
X142368157Y-57689765D01*
X142394785Y-57555894D01*
X142475423Y-57676577D01*
X142625000Y-57776521D01*
X142625001Y-69693000D01*
X141949105Y-69693000D01*
X141237910Y-69987586D01*
X140693586Y-70531910D01*
X140399000Y-71243105D01*
X140399000Y-72012895D01*
X140693586Y-72724090D01*
X141237910Y-73268414D01*
X141949105Y-73563000D01*
X142718895Y-73563000D01*
X143430090Y-73268414D01*
X143974414Y-72724090D01*
X144269000Y-72012895D01*
X144269000Y-71243105D01*
X145399000Y-71243105D01*
X145399000Y-72012895D01*
X145693586Y-72724090D01*
X146237910Y-73268414D01*
X146949105Y-73563000D01*
X147718895Y-73563000D01*
X148430090Y-73268414D01*
X148974414Y-72724090D01*
X149269000Y-72012895D01*
X149269000Y-71243105D01*
X148974414Y-70531910D01*
X148430090Y-69987586D01*
X147718895Y-69693000D01*
X146949105Y-69693000D01*
X146237910Y-69987586D01*
X145693586Y-70531910D01*
X145399000Y-71243105D01*
X144269000Y-71243105D01*
X144183578Y-71036877D01*
X144343652Y-70797310D01*
X144395000Y-70539165D01*
X144395000Y-70539161D01*
X144412337Y-70452001D01*
X144395000Y-70364841D01*
X144395000Y-57776521D01*
X144544577Y-57676577D01*
X144861740Y-57201909D01*
X144973113Y-56642000D01*
X144861740Y-56082091D01*
X144544577Y-55607423D01*
X144382310Y-55499000D01*
X153035000Y-55499000D01*
X153035000Y-82323000D01*
X124333000Y-82323000D01*
X124333000Y-71913750D01*
X130399000Y-71913750D01*
X130399000Y-73054310D01*
X130495673Y-73287699D01*
X130674302Y-73466327D01*
X130907691Y-73563000D01*
X132048250Y-73563000D01*
X132207000Y-73404250D01*
X132207000Y-71755000D01*
X132461000Y-71755000D01*
X132461000Y-73404250D01*
X132619750Y-73563000D01*
X133760309Y-73563000D01*
X133993698Y-73466327D01*
X134172327Y-73287699D01*
X134269000Y-73054310D01*
X134269000Y-71913750D01*
X134110250Y-71755000D01*
X132461000Y-71755000D01*
X132207000Y-71755000D01*
X130557750Y-71755000D01*
X130399000Y-71913750D01*
X124333000Y-71913750D01*
X124333000Y-70201690D01*
X130399000Y-70201690D01*
X130399000Y-71342250D01*
X130557750Y-71501000D01*
X132207000Y-71501000D01*
X132207000Y-69851750D01*
X132461000Y-69851750D01*
X132461000Y-71501000D01*
X134110250Y-71501000D01*
X134269000Y-71342250D01*
X134269000Y-70201690D01*
X134172327Y-69968301D01*
X133993698Y-69789673D01*
X133760309Y-69693000D01*
X132619750Y-69693000D01*
X132461000Y-69851750D01*
X132207000Y-69851750D01*
X132048250Y-69693000D01*
X130907691Y-69693000D01*
X130674302Y-69789673D01*
X130495673Y-69968301D01*
X130399000Y-70201690D01*
X124333000Y-70201690D01*
X124333000Y-65838606D01*
X133180565Y-56991041D01*
X134498086Y-56991041D01*
X134737611Y-57497134D01*
X135152577Y-57873041D01*
X135540961Y-58033904D01*
X135763000Y-57911915D01*
X135763000Y-56769000D01*
X134619371Y-56769000D01*
X134498086Y-56991041D01*
X133180565Y-56991041D01*
X134672606Y-55499000D01*
X135055388Y-55499000D01*
X134737611Y-55786866D01*
X134737611Y-55786866D01*
G37*
X134737611Y-55786866D02*
X134498086Y-56292959D01*
X134619371Y-56515000D01*
X135763000Y-56515000D01*
X135763000Y-56495000D01*
X136017000Y-56495000D01*
X136017000Y-56515000D01*
X136037000Y-56515000D01*
X136037000Y-56769000D01*
X136017000Y-56769000D01*
X136017000Y-57911915D01*
X136239039Y-58033904D01*
X136627423Y-57873041D01*
X137042389Y-57497134D01*
X137139053Y-57292892D01*
X137395423Y-57676577D01*
X137545000Y-57776521D01*
X137545001Y-69693000D01*
X136949105Y-69693000D01*
X136237910Y-69987586D01*
X135693586Y-70531910D01*
X135399000Y-71243105D01*
X135399000Y-72012895D01*
X135693586Y-72724090D01*
X136237910Y-73268414D01*
X136949105Y-73563000D01*
X137718895Y-73563000D01*
X138430090Y-73268414D01*
X138974414Y-72724090D01*
X139269000Y-72012895D01*
X139269000Y-71243105D01*
X139173419Y-71012352D01*
X139263652Y-70877310D01*
X139315000Y-70619165D01*
X139315000Y-70619160D01*
X139332337Y-70532001D01*
X139315000Y-70444841D01*
X139315000Y-57776521D01*
X139464577Y-57676577D01*
X139545215Y-57555894D01*
X139571843Y-57689765D01*
X139712191Y-57899809D01*
X139922235Y-58040157D01*
X140170000Y-58089440D01*
X141770000Y-58089440D01*
X142017765Y-58040157D01*
X142227809Y-57899809D01*
X142368157Y-57689765D01*
X142394785Y-57555894D01*
X142475423Y-57676577D01*
X142625000Y-57776521D01*
X142625001Y-69693000D01*
X141949105Y-69693000D01*
X141237910Y-69987586D01*
X140693586Y-70531910D01*
X140399000Y-71243105D01*
X140399000Y-72012895D01*
X140693586Y-72724090D01*
X141237910Y-73268414D01*
X141949105Y-73563000D01*
X142718895Y-73563000D01*
X143430090Y-73268414D01*
X143974414Y-72724090D01*
X144269000Y-72012895D01*
X144269000Y-71243105D01*
X145399000Y-71243105D01*
X145399000Y-72012895D01*
X145693586Y-72724090D01*
X146237910Y-73268414D01*
X146949105Y-73563000D01*
X147718895Y-73563000D01*
X148430090Y-73268414D01*
X148974414Y-72724090D01*
X149269000Y-72012895D01*
X149269000Y-71243105D01*
X148974414Y-70531910D01*
X148430090Y-69987586D01*
X147718895Y-69693000D01*
X146949105Y-69693000D01*
X146237910Y-69987586D01*
X145693586Y-70531910D01*
X145399000Y-71243105D01*
X144269000Y-71243105D01*
X144183578Y-71036877D01*
X144343652Y-70797310D01*
X144395000Y-70539165D01*
X144395000Y-70539161D01*
X144412337Y-70452001D01*
X144395000Y-70364841D01*
X144395000Y-57776521D01*
X144544577Y-57676577D01*
X144861740Y-57201909D01*
X144973113Y-56642000D01*
X144861740Y-56082091D01*
X144544577Y-55607423D01*
X144382310Y-55499000D01*
X153035000Y-55499000D01*
X153035000Y-82323000D01*
X124333000Y-82323000D01*
X124333000Y-71913750D01*
X130399000Y-71913750D01*
X130399000Y-73054310D01*
X130495673Y-73287699D01*
X130674302Y-73466327D01*
X130907691Y-73563000D01*
X132048250Y-73563000D01*
X132207000Y-73404250D01*
X132207000Y-71755000D01*
X132461000Y-71755000D01*
X132461000Y-73404250D01*
X132619750Y-73563000D01*
X133760309Y-73563000D01*
X133993698Y-73466327D01*
X134172327Y-73287699D01*
X134269000Y-73054310D01*
X134269000Y-71913750D01*
X134110250Y-71755000D01*
X132461000Y-71755000D01*
X132207000Y-71755000D01*
X130557750Y-71755000D01*
X130399000Y-71913750D01*
X124333000Y-71913750D01*
X124333000Y-70201690D01*
X130399000Y-70201690D01*
X130399000Y-71342250D01*
X130557750Y-71501000D01*
X132207000Y-71501000D01*
X132207000Y-69851750D01*
X132461000Y-69851750D01*
X132461000Y-71501000D01*
X134110250Y-71501000D01*
X134269000Y-71342250D01*
X134269000Y-70201690D01*
X134172327Y-69968301D01*
X133993698Y-69789673D01*
X133760309Y-69693000D01*
X132619750Y-69693000D01*
X132461000Y-69851750D01*
X132207000Y-69851750D01*
X132048250Y-69693000D01*
X130907691Y-69693000D01*
X130674302Y-69789673D01*
X130495673Y-69968301D01*
X130399000Y-70201690D01*
X124333000Y-70201690D01*
X124333000Y-65838606D01*
X133180565Y-56991041D01*
X134498086Y-56991041D01*
X134737611Y-57497134D01*
X135152577Y-57873041D01*
X135540961Y-58033904D01*
X135763000Y-57911915D01*
X135763000Y-56769000D01*
X134619371Y-56769000D01*
X134498086Y-56991041D01*
X133180565Y-56991041D01*
X134672606Y-55499000D01*
X135055388Y-55499000D01*
X134737611Y-55786866D01*
G04 #@! TD*
M02*
