G04 #@! TF.GenerationSoftware,KiCad,Pcbnew,5.0.2-bee76a0~70~ubuntu18.04.1*
G04 #@! TF.CreationDate,2019-10-09T11:35:59+02:00*
G04 #@! TF.ProjectId,AmpMeter,416d704d-6574-4657-922e-6b696361645f,rev?*
G04 #@! TF.SameCoordinates,Original*
G04 #@! TF.FileFunction,Paste,Top*
G04 #@! TF.FilePolarity,Positive*
%FSLAX46Y46*%
G04 Gerber Fmt 4.6, Leading zero omitted, Abs format (unit mm)*
G04 Created by KiCad (PCBNEW 5.0.2-bee76a0~70~ubuntu18.04.1) date Mi 09 Okt 2019 11:35:59 CEST*
%MOMM*%
%LPD*%
G01*
G04 APERTURE LIST*
%ADD10C,0.100000*%
%ADD11C,1.250000*%
G04 APERTURE END LIST*
D10*
G04 #@! TO.C,R1*
G36*
X138959504Y-60594204D02*
X138983773Y-60597804D01*
X139007571Y-60603765D01*
X139030671Y-60612030D01*
X139052849Y-60622520D01*
X139073893Y-60635133D01*
X139093598Y-60649747D01*
X139111777Y-60666223D01*
X139128253Y-60684402D01*
X139142867Y-60704107D01*
X139155480Y-60725151D01*
X139165970Y-60747329D01*
X139174235Y-60770429D01*
X139180196Y-60794227D01*
X139183796Y-60818496D01*
X139185000Y-60843000D01*
X139185000Y-62093000D01*
X139183796Y-62117504D01*
X139180196Y-62141773D01*
X139174235Y-62165571D01*
X139165970Y-62188671D01*
X139155480Y-62210849D01*
X139142867Y-62231893D01*
X139128253Y-62251598D01*
X139111777Y-62269777D01*
X139093598Y-62286253D01*
X139073893Y-62300867D01*
X139052849Y-62313480D01*
X139030671Y-62323970D01*
X139007571Y-62332235D01*
X138983773Y-62338196D01*
X138959504Y-62341796D01*
X138935000Y-62343000D01*
X138185000Y-62343000D01*
X138160496Y-62341796D01*
X138136227Y-62338196D01*
X138112429Y-62332235D01*
X138089329Y-62323970D01*
X138067151Y-62313480D01*
X138046107Y-62300867D01*
X138026402Y-62286253D01*
X138008223Y-62269777D01*
X137991747Y-62251598D01*
X137977133Y-62231893D01*
X137964520Y-62210849D01*
X137954030Y-62188671D01*
X137945765Y-62165571D01*
X137939804Y-62141773D01*
X137936204Y-62117504D01*
X137935000Y-62093000D01*
X137935000Y-60843000D01*
X137936204Y-60818496D01*
X137939804Y-60794227D01*
X137945765Y-60770429D01*
X137954030Y-60747329D01*
X137964520Y-60725151D01*
X137977133Y-60704107D01*
X137991747Y-60684402D01*
X138008223Y-60666223D01*
X138026402Y-60649747D01*
X138046107Y-60635133D01*
X138067151Y-60622520D01*
X138089329Y-60612030D01*
X138112429Y-60603765D01*
X138136227Y-60597804D01*
X138160496Y-60594204D01*
X138185000Y-60593000D01*
X138935000Y-60593000D01*
X138959504Y-60594204D01*
X138959504Y-60594204D01*
G37*
D11*
X138560000Y-61468000D03*
D10*
G36*
X136159504Y-60594204D02*
X136183773Y-60597804D01*
X136207571Y-60603765D01*
X136230671Y-60612030D01*
X136252849Y-60622520D01*
X136273893Y-60635133D01*
X136293598Y-60649747D01*
X136311777Y-60666223D01*
X136328253Y-60684402D01*
X136342867Y-60704107D01*
X136355480Y-60725151D01*
X136365970Y-60747329D01*
X136374235Y-60770429D01*
X136380196Y-60794227D01*
X136383796Y-60818496D01*
X136385000Y-60843000D01*
X136385000Y-62093000D01*
X136383796Y-62117504D01*
X136380196Y-62141773D01*
X136374235Y-62165571D01*
X136365970Y-62188671D01*
X136355480Y-62210849D01*
X136342867Y-62231893D01*
X136328253Y-62251598D01*
X136311777Y-62269777D01*
X136293598Y-62286253D01*
X136273893Y-62300867D01*
X136252849Y-62313480D01*
X136230671Y-62323970D01*
X136207571Y-62332235D01*
X136183773Y-62338196D01*
X136159504Y-62341796D01*
X136135000Y-62343000D01*
X135385000Y-62343000D01*
X135360496Y-62341796D01*
X135336227Y-62338196D01*
X135312429Y-62332235D01*
X135289329Y-62323970D01*
X135267151Y-62313480D01*
X135246107Y-62300867D01*
X135226402Y-62286253D01*
X135208223Y-62269777D01*
X135191747Y-62251598D01*
X135177133Y-62231893D01*
X135164520Y-62210849D01*
X135154030Y-62188671D01*
X135145765Y-62165571D01*
X135139804Y-62141773D01*
X135136204Y-62117504D01*
X135135000Y-62093000D01*
X135135000Y-60843000D01*
X135136204Y-60818496D01*
X135139804Y-60794227D01*
X135145765Y-60770429D01*
X135154030Y-60747329D01*
X135164520Y-60725151D01*
X135177133Y-60704107D01*
X135191747Y-60684402D01*
X135208223Y-60666223D01*
X135226402Y-60649747D01*
X135246107Y-60635133D01*
X135267151Y-60622520D01*
X135289329Y-60612030D01*
X135312429Y-60603765D01*
X135336227Y-60597804D01*
X135360496Y-60594204D01*
X135385000Y-60593000D01*
X136135000Y-60593000D01*
X136159504Y-60594204D01*
X136159504Y-60594204D01*
G37*
D11*
X135760000Y-61468000D03*
G04 #@! TD*
D10*
G04 #@! TO.C,R2*
G36*
X145185504Y-60594204D02*
X145209773Y-60597804D01*
X145233571Y-60603765D01*
X145256671Y-60612030D01*
X145278849Y-60622520D01*
X145299893Y-60635133D01*
X145319598Y-60649747D01*
X145337777Y-60666223D01*
X145354253Y-60684402D01*
X145368867Y-60704107D01*
X145381480Y-60725151D01*
X145391970Y-60747329D01*
X145400235Y-60770429D01*
X145406196Y-60794227D01*
X145409796Y-60818496D01*
X145411000Y-60843000D01*
X145411000Y-62093000D01*
X145409796Y-62117504D01*
X145406196Y-62141773D01*
X145400235Y-62165571D01*
X145391970Y-62188671D01*
X145381480Y-62210849D01*
X145368867Y-62231893D01*
X145354253Y-62251598D01*
X145337777Y-62269777D01*
X145319598Y-62286253D01*
X145299893Y-62300867D01*
X145278849Y-62313480D01*
X145256671Y-62323970D01*
X145233571Y-62332235D01*
X145209773Y-62338196D01*
X145185504Y-62341796D01*
X145161000Y-62343000D01*
X144411000Y-62343000D01*
X144386496Y-62341796D01*
X144362227Y-62338196D01*
X144338429Y-62332235D01*
X144315329Y-62323970D01*
X144293151Y-62313480D01*
X144272107Y-62300867D01*
X144252402Y-62286253D01*
X144234223Y-62269777D01*
X144217747Y-62251598D01*
X144203133Y-62231893D01*
X144190520Y-62210849D01*
X144180030Y-62188671D01*
X144171765Y-62165571D01*
X144165804Y-62141773D01*
X144162204Y-62117504D01*
X144161000Y-62093000D01*
X144161000Y-60843000D01*
X144162204Y-60818496D01*
X144165804Y-60794227D01*
X144171765Y-60770429D01*
X144180030Y-60747329D01*
X144190520Y-60725151D01*
X144203133Y-60704107D01*
X144217747Y-60684402D01*
X144234223Y-60666223D01*
X144252402Y-60649747D01*
X144272107Y-60635133D01*
X144293151Y-60622520D01*
X144315329Y-60612030D01*
X144338429Y-60603765D01*
X144362227Y-60597804D01*
X144386496Y-60594204D01*
X144411000Y-60593000D01*
X145161000Y-60593000D01*
X145185504Y-60594204D01*
X145185504Y-60594204D01*
G37*
D11*
X144786000Y-61468000D03*
D10*
G36*
X142385504Y-60594204D02*
X142409773Y-60597804D01*
X142433571Y-60603765D01*
X142456671Y-60612030D01*
X142478849Y-60622520D01*
X142499893Y-60635133D01*
X142519598Y-60649747D01*
X142537777Y-60666223D01*
X142554253Y-60684402D01*
X142568867Y-60704107D01*
X142581480Y-60725151D01*
X142591970Y-60747329D01*
X142600235Y-60770429D01*
X142606196Y-60794227D01*
X142609796Y-60818496D01*
X142611000Y-60843000D01*
X142611000Y-62093000D01*
X142609796Y-62117504D01*
X142606196Y-62141773D01*
X142600235Y-62165571D01*
X142591970Y-62188671D01*
X142581480Y-62210849D01*
X142568867Y-62231893D01*
X142554253Y-62251598D01*
X142537777Y-62269777D01*
X142519598Y-62286253D01*
X142499893Y-62300867D01*
X142478849Y-62313480D01*
X142456671Y-62323970D01*
X142433571Y-62332235D01*
X142409773Y-62338196D01*
X142385504Y-62341796D01*
X142361000Y-62343000D01*
X141611000Y-62343000D01*
X141586496Y-62341796D01*
X141562227Y-62338196D01*
X141538429Y-62332235D01*
X141515329Y-62323970D01*
X141493151Y-62313480D01*
X141472107Y-62300867D01*
X141452402Y-62286253D01*
X141434223Y-62269777D01*
X141417747Y-62251598D01*
X141403133Y-62231893D01*
X141390520Y-62210849D01*
X141380030Y-62188671D01*
X141371765Y-62165571D01*
X141365804Y-62141773D01*
X141362204Y-62117504D01*
X141361000Y-62093000D01*
X141361000Y-60843000D01*
X141362204Y-60818496D01*
X141365804Y-60794227D01*
X141371765Y-60770429D01*
X141380030Y-60747329D01*
X141390520Y-60725151D01*
X141403133Y-60704107D01*
X141417747Y-60684402D01*
X141434223Y-60666223D01*
X141452402Y-60649747D01*
X141472107Y-60635133D01*
X141493151Y-60622520D01*
X141515329Y-60612030D01*
X141538429Y-60603765D01*
X141562227Y-60597804D01*
X141586496Y-60594204D01*
X141611000Y-60593000D01*
X142361000Y-60593000D01*
X142385504Y-60594204D01*
X142385504Y-60594204D01*
G37*
D11*
X141986000Y-61468000D03*
G04 #@! TD*
D10*
G04 #@! TO.C,R3*
G36*
X69865504Y-51958204D02*
X69889773Y-51961804D01*
X69913571Y-51967765D01*
X69936671Y-51976030D01*
X69958849Y-51986520D01*
X69979893Y-51999133D01*
X69999598Y-52013747D01*
X70017777Y-52030223D01*
X70034253Y-52048402D01*
X70048867Y-52068107D01*
X70061480Y-52089151D01*
X70071970Y-52111329D01*
X70080235Y-52134429D01*
X70086196Y-52158227D01*
X70089796Y-52182496D01*
X70091000Y-52207000D01*
X70091000Y-53457000D01*
X70089796Y-53481504D01*
X70086196Y-53505773D01*
X70080235Y-53529571D01*
X70071970Y-53552671D01*
X70061480Y-53574849D01*
X70048867Y-53595893D01*
X70034253Y-53615598D01*
X70017777Y-53633777D01*
X69999598Y-53650253D01*
X69979893Y-53664867D01*
X69958849Y-53677480D01*
X69936671Y-53687970D01*
X69913571Y-53696235D01*
X69889773Y-53702196D01*
X69865504Y-53705796D01*
X69841000Y-53707000D01*
X69091000Y-53707000D01*
X69066496Y-53705796D01*
X69042227Y-53702196D01*
X69018429Y-53696235D01*
X68995329Y-53687970D01*
X68973151Y-53677480D01*
X68952107Y-53664867D01*
X68932402Y-53650253D01*
X68914223Y-53633777D01*
X68897747Y-53615598D01*
X68883133Y-53595893D01*
X68870520Y-53574849D01*
X68860030Y-53552671D01*
X68851765Y-53529571D01*
X68845804Y-53505773D01*
X68842204Y-53481504D01*
X68841000Y-53457000D01*
X68841000Y-52207000D01*
X68842204Y-52182496D01*
X68845804Y-52158227D01*
X68851765Y-52134429D01*
X68860030Y-52111329D01*
X68870520Y-52089151D01*
X68883133Y-52068107D01*
X68897747Y-52048402D01*
X68914223Y-52030223D01*
X68932402Y-52013747D01*
X68952107Y-51999133D01*
X68973151Y-51986520D01*
X68995329Y-51976030D01*
X69018429Y-51967765D01*
X69042227Y-51961804D01*
X69066496Y-51958204D01*
X69091000Y-51957000D01*
X69841000Y-51957000D01*
X69865504Y-51958204D01*
X69865504Y-51958204D01*
G37*
D11*
X69466000Y-52832000D03*
D10*
G36*
X72665504Y-51958204D02*
X72689773Y-51961804D01*
X72713571Y-51967765D01*
X72736671Y-51976030D01*
X72758849Y-51986520D01*
X72779893Y-51999133D01*
X72799598Y-52013747D01*
X72817777Y-52030223D01*
X72834253Y-52048402D01*
X72848867Y-52068107D01*
X72861480Y-52089151D01*
X72871970Y-52111329D01*
X72880235Y-52134429D01*
X72886196Y-52158227D01*
X72889796Y-52182496D01*
X72891000Y-52207000D01*
X72891000Y-53457000D01*
X72889796Y-53481504D01*
X72886196Y-53505773D01*
X72880235Y-53529571D01*
X72871970Y-53552671D01*
X72861480Y-53574849D01*
X72848867Y-53595893D01*
X72834253Y-53615598D01*
X72817777Y-53633777D01*
X72799598Y-53650253D01*
X72779893Y-53664867D01*
X72758849Y-53677480D01*
X72736671Y-53687970D01*
X72713571Y-53696235D01*
X72689773Y-53702196D01*
X72665504Y-53705796D01*
X72641000Y-53707000D01*
X71891000Y-53707000D01*
X71866496Y-53705796D01*
X71842227Y-53702196D01*
X71818429Y-53696235D01*
X71795329Y-53687970D01*
X71773151Y-53677480D01*
X71752107Y-53664867D01*
X71732402Y-53650253D01*
X71714223Y-53633777D01*
X71697747Y-53615598D01*
X71683133Y-53595893D01*
X71670520Y-53574849D01*
X71660030Y-53552671D01*
X71651765Y-53529571D01*
X71645804Y-53505773D01*
X71642204Y-53481504D01*
X71641000Y-53457000D01*
X71641000Y-52207000D01*
X71642204Y-52182496D01*
X71645804Y-52158227D01*
X71651765Y-52134429D01*
X71660030Y-52111329D01*
X71670520Y-52089151D01*
X71683133Y-52068107D01*
X71697747Y-52048402D01*
X71714223Y-52030223D01*
X71732402Y-52013747D01*
X71752107Y-51999133D01*
X71773151Y-51986520D01*
X71795329Y-51976030D01*
X71818429Y-51967765D01*
X71842227Y-51961804D01*
X71866496Y-51958204D01*
X71891000Y-51957000D01*
X72641000Y-51957000D01*
X72665504Y-51958204D01*
X72665504Y-51958204D01*
G37*
D11*
X72266000Y-52832000D03*
G04 #@! TD*
D10*
G04 #@! TO.C,R4*
G36*
X59575504Y-51958204D02*
X59599773Y-51961804D01*
X59623571Y-51967765D01*
X59646671Y-51976030D01*
X59668849Y-51986520D01*
X59689893Y-51999133D01*
X59709598Y-52013747D01*
X59727777Y-52030223D01*
X59744253Y-52048402D01*
X59758867Y-52068107D01*
X59771480Y-52089151D01*
X59781970Y-52111329D01*
X59790235Y-52134429D01*
X59796196Y-52158227D01*
X59799796Y-52182496D01*
X59801000Y-52207000D01*
X59801000Y-53457000D01*
X59799796Y-53481504D01*
X59796196Y-53505773D01*
X59790235Y-53529571D01*
X59781970Y-53552671D01*
X59771480Y-53574849D01*
X59758867Y-53595893D01*
X59744253Y-53615598D01*
X59727777Y-53633777D01*
X59709598Y-53650253D01*
X59689893Y-53664867D01*
X59668849Y-53677480D01*
X59646671Y-53687970D01*
X59623571Y-53696235D01*
X59599773Y-53702196D01*
X59575504Y-53705796D01*
X59551000Y-53707000D01*
X58801000Y-53707000D01*
X58776496Y-53705796D01*
X58752227Y-53702196D01*
X58728429Y-53696235D01*
X58705329Y-53687970D01*
X58683151Y-53677480D01*
X58662107Y-53664867D01*
X58642402Y-53650253D01*
X58624223Y-53633777D01*
X58607747Y-53615598D01*
X58593133Y-53595893D01*
X58580520Y-53574849D01*
X58570030Y-53552671D01*
X58561765Y-53529571D01*
X58555804Y-53505773D01*
X58552204Y-53481504D01*
X58551000Y-53457000D01*
X58551000Y-52207000D01*
X58552204Y-52182496D01*
X58555804Y-52158227D01*
X58561765Y-52134429D01*
X58570030Y-52111329D01*
X58580520Y-52089151D01*
X58593133Y-52068107D01*
X58607747Y-52048402D01*
X58624223Y-52030223D01*
X58642402Y-52013747D01*
X58662107Y-51999133D01*
X58683151Y-51986520D01*
X58705329Y-51976030D01*
X58728429Y-51967765D01*
X58752227Y-51961804D01*
X58776496Y-51958204D01*
X58801000Y-51957000D01*
X59551000Y-51957000D01*
X59575504Y-51958204D01*
X59575504Y-51958204D01*
G37*
D11*
X59176000Y-52832000D03*
D10*
G36*
X62375504Y-51958204D02*
X62399773Y-51961804D01*
X62423571Y-51967765D01*
X62446671Y-51976030D01*
X62468849Y-51986520D01*
X62489893Y-51999133D01*
X62509598Y-52013747D01*
X62527777Y-52030223D01*
X62544253Y-52048402D01*
X62558867Y-52068107D01*
X62571480Y-52089151D01*
X62581970Y-52111329D01*
X62590235Y-52134429D01*
X62596196Y-52158227D01*
X62599796Y-52182496D01*
X62601000Y-52207000D01*
X62601000Y-53457000D01*
X62599796Y-53481504D01*
X62596196Y-53505773D01*
X62590235Y-53529571D01*
X62581970Y-53552671D01*
X62571480Y-53574849D01*
X62558867Y-53595893D01*
X62544253Y-53615598D01*
X62527777Y-53633777D01*
X62509598Y-53650253D01*
X62489893Y-53664867D01*
X62468849Y-53677480D01*
X62446671Y-53687970D01*
X62423571Y-53696235D01*
X62399773Y-53702196D01*
X62375504Y-53705796D01*
X62351000Y-53707000D01*
X61601000Y-53707000D01*
X61576496Y-53705796D01*
X61552227Y-53702196D01*
X61528429Y-53696235D01*
X61505329Y-53687970D01*
X61483151Y-53677480D01*
X61462107Y-53664867D01*
X61442402Y-53650253D01*
X61424223Y-53633777D01*
X61407747Y-53615598D01*
X61393133Y-53595893D01*
X61380520Y-53574849D01*
X61370030Y-53552671D01*
X61361765Y-53529571D01*
X61355804Y-53505773D01*
X61352204Y-53481504D01*
X61351000Y-53457000D01*
X61351000Y-52207000D01*
X61352204Y-52182496D01*
X61355804Y-52158227D01*
X61361765Y-52134429D01*
X61370030Y-52111329D01*
X61380520Y-52089151D01*
X61393133Y-52068107D01*
X61407747Y-52048402D01*
X61424223Y-52030223D01*
X61442402Y-52013747D01*
X61462107Y-51999133D01*
X61483151Y-51986520D01*
X61505329Y-51976030D01*
X61528429Y-51967765D01*
X61552227Y-51961804D01*
X61576496Y-51958204D01*
X61601000Y-51957000D01*
X62351000Y-51957000D01*
X62375504Y-51958204D01*
X62375504Y-51958204D01*
G37*
D11*
X61976000Y-52832000D03*
G04 #@! TD*
D10*
G04 #@! TO.C,R5*
G36*
X51323504Y-51958204D02*
X51347773Y-51961804D01*
X51371571Y-51967765D01*
X51394671Y-51976030D01*
X51416849Y-51986520D01*
X51437893Y-51999133D01*
X51457598Y-52013747D01*
X51475777Y-52030223D01*
X51492253Y-52048402D01*
X51506867Y-52068107D01*
X51519480Y-52089151D01*
X51529970Y-52111329D01*
X51538235Y-52134429D01*
X51544196Y-52158227D01*
X51547796Y-52182496D01*
X51549000Y-52207000D01*
X51549000Y-53457000D01*
X51547796Y-53481504D01*
X51544196Y-53505773D01*
X51538235Y-53529571D01*
X51529970Y-53552671D01*
X51519480Y-53574849D01*
X51506867Y-53595893D01*
X51492253Y-53615598D01*
X51475777Y-53633777D01*
X51457598Y-53650253D01*
X51437893Y-53664867D01*
X51416849Y-53677480D01*
X51394671Y-53687970D01*
X51371571Y-53696235D01*
X51347773Y-53702196D01*
X51323504Y-53705796D01*
X51299000Y-53707000D01*
X50549000Y-53707000D01*
X50524496Y-53705796D01*
X50500227Y-53702196D01*
X50476429Y-53696235D01*
X50453329Y-53687970D01*
X50431151Y-53677480D01*
X50410107Y-53664867D01*
X50390402Y-53650253D01*
X50372223Y-53633777D01*
X50355747Y-53615598D01*
X50341133Y-53595893D01*
X50328520Y-53574849D01*
X50318030Y-53552671D01*
X50309765Y-53529571D01*
X50303804Y-53505773D01*
X50300204Y-53481504D01*
X50299000Y-53457000D01*
X50299000Y-52207000D01*
X50300204Y-52182496D01*
X50303804Y-52158227D01*
X50309765Y-52134429D01*
X50318030Y-52111329D01*
X50328520Y-52089151D01*
X50341133Y-52068107D01*
X50355747Y-52048402D01*
X50372223Y-52030223D01*
X50390402Y-52013747D01*
X50410107Y-51999133D01*
X50431151Y-51986520D01*
X50453329Y-51976030D01*
X50476429Y-51967765D01*
X50500227Y-51961804D01*
X50524496Y-51958204D01*
X50549000Y-51957000D01*
X51299000Y-51957000D01*
X51323504Y-51958204D01*
X51323504Y-51958204D01*
G37*
D11*
X50924000Y-52832000D03*
D10*
G36*
X54123504Y-51958204D02*
X54147773Y-51961804D01*
X54171571Y-51967765D01*
X54194671Y-51976030D01*
X54216849Y-51986520D01*
X54237893Y-51999133D01*
X54257598Y-52013747D01*
X54275777Y-52030223D01*
X54292253Y-52048402D01*
X54306867Y-52068107D01*
X54319480Y-52089151D01*
X54329970Y-52111329D01*
X54338235Y-52134429D01*
X54344196Y-52158227D01*
X54347796Y-52182496D01*
X54349000Y-52207000D01*
X54349000Y-53457000D01*
X54347796Y-53481504D01*
X54344196Y-53505773D01*
X54338235Y-53529571D01*
X54329970Y-53552671D01*
X54319480Y-53574849D01*
X54306867Y-53595893D01*
X54292253Y-53615598D01*
X54275777Y-53633777D01*
X54257598Y-53650253D01*
X54237893Y-53664867D01*
X54216849Y-53677480D01*
X54194671Y-53687970D01*
X54171571Y-53696235D01*
X54147773Y-53702196D01*
X54123504Y-53705796D01*
X54099000Y-53707000D01*
X53349000Y-53707000D01*
X53324496Y-53705796D01*
X53300227Y-53702196D01*
X53276429Y-53696235D01*
X53253329Y-53687970D01*
X53231151Y-53677480D01*
X53210107Y-53664867D01*
X53190402Y-53650253D01*
X53172223Y-53633777D01*
X53155747Y-53615598D01*
X53141133Y-53595893D01*
X53128520Y-53574849D01*
X53118030Y-53552671D01*
X53109765Y-53529571D01*
X53103804Y-53505773D01*
X53100204Y-53481504D01*
X53099000Y-53457000D01*
X53099000Y-52207000D01*
X53100204Y-52182496D01*
X53103804Y-52158227D01*
X53109765Y-52134429D01*
X53118030Y-52111329D01*
X53128520Y-52089151D01*
X53141133Y-52068107D01*
X53155747Y-52048402D01*
X53172223Y-52030223D01*
X53190402Y-52013747D01*
X53210107Y-51999133D01*
X53231151Y-51986520D01*
X53253329Y-51976030D01*
X53276429Y-51967765D01*
X53300227Y-51961804D01*
X53324496Y-51958204D01*
X53349000Y-51957000D01*
X54099000Y-51957000D01*
X54123504Y-51958204D01*
X54123504Y-51958204D01*
G37*
D11*
X53724000Y-52832000D03*
G04 #@! TD*
D10*
G04 #@! TO.C,R6*
G36*
X40909504Y-51958204D02*
X40933773Y-51961804D01*
X40957571Y-51967765D01*
X40980671Y-51976030D01*
X41002849Y-51986520D01*
X41023893Y-51999133D01*
X41043598Y-52013747D01*
X41061777Y-52030223D01*
X41078253Y-52048402D01*
X41092867Y-52068107D01*
X41105480Y-52089151D01*
X41115970Y-52111329D01*
X41124235Y-52134429D01*
X41130196Y-52158227D01*
X41133796Y-52182496D01*
X41135000Y-52207000D01*
X41135000Y-53457000D01*
X41133796Y-53481504D01*
X41130196Y-53505773D01*
X41124235Y-53529571D01*
X41115970Y-53552671D01*
X41105480Y-53574849D01*
X41092867Y-53595893D01*
X41078253Y-53615598D01*
X41061777Y-53633777D01*
X41043598Y-53650253D01*
X41023893Y-53664867D01*
X41002849Y-53677480D01*
X40980671Y-53687970D01*
X40957571Y-53696235D01*
X40933773Y-53702196D01*
X40909504Y-53705796D01*
X40885000Y-53707000D01*
X40135000Y-53707000D01*
X40110496Y-53705796D01*
X40086227Y-53702196D01*
X40062429Y-53696235D01*
X40039329Y-53687970D01*
X40017151Y-53677480D01*
X39996107Y-53664867D01*
X39976402Y-53650253D01*
X39958223Y-53633777D01*
X39941747Y-53615598D01*
X39927133Y-53595893D01*
X39914520Y-53574849D01*
X39904030Y-53552671D01*
X39895765Y-53529571D01*
X39889804Y-53505773D01*
X39886204Y-53481504D01*
X39885000Y-53457000D01*
X39885000Y-52207000D01*
X39886204Y-52182496D01*
X39889804Y-52158227D01*
X39895765Y-52134429D01*
X39904030Y-52111329D01*
X39914520Y-52089151D01*
X39927133Y-52068107D01*
X39941747Y-52048402D01*
X39958223Y-52030223D01*
X39976402Y-52013747D01*
X39996107Y-51999133D01*
X40017151Y-51986520D01*
X40039329Y-51976030D01*
X40062429Y-51967765D01*
X40086227Y-51961804D01*
X40110496Y-51958204D01*
X40135000Y-51957000D01*
X40885000Y-51957000D01*
X40909504Y-51958204D01*
X40909504Y-51958204D01*
G37*
D11*
X40510000Y-52832000D03*
D10*
G36*
X43709504Y-51958204D02*
X43733773Y-51961804D01*
X43757571Y-51967765D01*
X43780671Y-51976030D01*
X43802849Y-51986520D01*
X43823893Y-51999133D01*
X43843598Y-52013747D01*
X43861777Y-52030223D01*
X43878253Y-52048402D01*
X43892867Y-52068107D01*
X43905480Y-52089151D01*
X43915970Y-52111329D01*
X43924235Y-52134429D01*
X43930196Y-52158227D01*
X43933796Y-52182496D01*
X43935000Y-52207000D01*
X43935000Y-53457000D01*
X43933796Y-53481504D01*
X43930196Y-53505773D01*
X43924235Y-53529571D01*
X43915970Y-53552671D01*
X43905480Y-53574849D01*
X43892867Y-53595893D01*
X43878253Y-53615598D01*
X43861777Y-53633777D01*
X43843598Y-53650253D01*
X43823893Y-53664867D01*
X43802849Y-53677480D01*
X43780671Y-53687970D01*
X43757571Y-53696235D01*
X43733773Y-53702196D01*
X43709504Y-53705796D01*
X43685000Y-53707000D01*
X42935000Y-53707000D01*
X42910496Y-53705796D01*
X42886227Y-53702196D01*
X42862429Y-53696235D01*
X42839329Y-53687970D01*
X42817151Y-53677480D01*
X42796107Y-53664867D01*
X42776402Y-53650253D01*
X42758223Y-53633777D01*
X42741747Y-53615598D01*
X42727133Y-53595893D01*
X42714520Y-53574849D01*
X42704030Y-53552671D01*
X42695765Y-53529571D01*
X42689804Y-53505773D01*
X42686204Y-53481504D01*
X42685000Y-53457000D01*
X42685000Y-52207000D01*
X42686204Y-52182496D01*
X42689804Y-52158227D01*
X42695765Y-52134429D01*
X42704030Y-52111329D01*
X42714520Y-52089151D01*
X42727133Y-52068107D01*
X42741747Y-52048402D01*
X42758223Y-52030223D01*
X42776402Y-52013747D01*
X42796107Y-51999133D01*
X42817151Y-51986520D01*
X42839329Y-51976030D01*
X42862429Y-51967765D01*
X42886227Y-51961804D01*
X42910496Y-51958204D01*
X42935000Y-51957000D01*
X43685000Y-51957000D01*
X43709504Y-51958204D01*
X43709504Y-51958204D01*
G37*
D11*
X43310000Y-52832000D03*
G04 #@! TD*
D10*
G04 #@! TO.C,R7*
G36*
X32019504Y-51958204D02*
X32043773Y-51961804D01*
X32067571Y-51967765D01*
X32090671Y-51976030D01*
X32112849Y-51986520D01*
X32133893Y-51999133D01*
X32153598Y-52013747D01*
X32171777Y-52030223D01*
X32188253Y-52048402D01*
X32202867Y-52068107D01*
X32215480Y-52089151D01*
X32225970Y-52111329D01*
X32234235Y-52134429D01*
X32240196Y-52158227D01*
X32243796Y-52182496D01*
X32245000Y-52207000D01*
X32245000Y-53457000D01*
X32243796Y-53481504D01*
X32240196Y-53505773D01*
X32234235Y-53529571D01*
X32225970Y-53552671D01*
X32215480Y-53574849D01*
X32202867Y-53595893D01*
X32188253Y-53615598D01*
X32171777Y-53633777D01*
X32153598Y-53650253D01*
X32133893Y-53664867D01*
X32112849Y-53677480D01*
X32090671Y-53687970D01*
X32067571Y-53696235D01*
X32043773Y-53702196D01*
X32019504Y-53705796D01*
X31995000Y-53707000D01*
X31245000Y-53707000D01*
X31220496Y-53705796D01*
X31196227Y-53702196D01*
X31172429Y-53696235D01*
X31149329Y-53687970D01*
X31127151Y-53677480D01*
X31106107Y-53664867D01*
X31086402Y-53650253D01*
X31068223Y-53633777D01*
X31051747Y-53615598D01*
X31037133Y-53595893D01*
X31024520Y-53574849D01*
X31014030Y-53552671D01*
X31005765Y-53529571D01*
X30999804Y-53505773D01*
X30996204Y-53481504D01*
X30995000Y-53457000D01*
X30995000Y-52207000D01*
X30996204Y-52182496D01*
X30999804Y-52158227D01*
X31005765Y-52134429D01*
X31014030Y-52111329D01*
X31024520Y-52089151D01*
X31037133Y-52068107D01*
X31051747Y-52048402D01*
X31068223Y-52030223D01*
X31086402Y-52013747D01*
X31106107Y-51999133D01*
X31127151Y-51986520D01*
X31149329Y-51976030D01*
X31172429Y-51967765D01*
X31196227Y-51961804D01*
X31220496Y-51958204D01*
X31245000Y-51957000D01*
X31995000Y-51957000D01*
X32019504Y-51958204D01*
X32019504Y-51958204D01*
G37*
D11*
X31620000Y-52832000D03*
D10*
G36*
X34819504Y-51958204D02*
X34843773Y-51961804D01*
X34867571Y-51967765D01*
X34890671Y-51976030D01*
X34912849Y-51986520D01*
X34933893Y-51999133D01*
X34953598Y-52013747D01*
X34971777Y-52030223D01*
X34988253Y-52048402D01*
X35002867Y-52068107D01*
X35015480Y-52089151D01*
X35025970Y-52111329D01*
X35034235Y-52134429D01*
X35040196Y-52158227D01*
X35043796Y-52182496D01*
X35045000Y-52207000D01*
X35045000Y-53457000D01*
X35043796Y-53481504D01*
X35040196Y-53505773D01*
X35034235Y-53529571D01*
X35025970Y-53552671D01*
X35015480Y-53574849D01*
X35002867Y-53595893D01*
X34988253Y-53615598D01*
X34971777Y-53633777D01*
X34953598Y-53650253D01*
X34933893Y-53664867D01*
X34912849Y-53677480D01*
X34890671Y-53687970D01*
X34867571Y-53696235D01*
X34843773Y-53702196D01*
X34819504Y-53705796D01*
X34795000Y-53707000D01*
X34045000Y-53707000D01*
X34020496Y-53705796D01*
X33996227Y-53702196D01*
X33972429Y-53696235D01*
X33949329Y-53687970D01*
X33927151Y-53677480D01*
X33906107Y-53664867D01*
X33886402Y-53650253D01*
X33868223Y-53633777D01*
X33851747Y-53615598D01*
X33837133Y-53595893D01*
X33824520Y-53574849D01*
X33814030Y-53552671D01*
X33805765Y-53529571D01*
X33799804Y-53505773D01*
X33796204Y-53481504D01*
X33795000Y-53457000D01*
X33795000Y-52207000D01*
X33796204Y-52182496D01*
X33799804Y-52158227D01*
X33805765Y-52134429D01*
X33814030Y-52111329D01*
X33824520Y-52089151D01*
X33837133Y-52068107D01*
X33851747Y-52048402D01*
X33868223Y-52030223D01*
X33886402Y-52013747D01*
X33906107Y-51999133D01*
X33927151Y-51986520D01*
X33949329Y-51976030D01*
X33972429Y-51967765D01*
X33996227Y-51961804D01*
X34020496Y-51958204D01*
X34045000Y-51957000D01*
X34795000Y-51957000D01*
X34819504Y-51958204D01*
X34819504Y-51958204D01*
G37*
D11*
X34420000Y-52832000D03*
G04 #@! TD*
D10*
G04 #@! TO.C,R8*
G36*
X21729504Y-51958204D02*
X21753773Y-51961804D01*
X21777571Y-51967765D01*
X21800671Y-51976030D01*
X21822849Y-51986520D01*
X21843893Y-51999133D01*
X21863598Y-52013747D01*
X21881777Y-52030223D01*
X21898253Y-52048402D01*
X21912867Y-52068107D01*
X21925480Y-52089151D01*
X21935970Y-52111329D01*
X21944235Y-52134429D01*
X21950196Y-52158227D01*
X21953796Y-52182496D01*
X21955000Y-52207000D01*
X21955000Y-53457000D01*
X21953796Y-53481504D01*
X21950196Y-53505773D01*
X21944235Y-53529571D01*
X21935970Y-53552671D01*
X21925480Y-53574849D01*
X21912867Y-53595893D01*
X21898253Y-53615598D01*
X21881777Y-53633777D01*
X21863598Y-53650253D01*
X21843893Y-53664867D01*
X21822849Y-53677480D01*
X21800671Y-53687970D01*
X21777571Y-53696235D01*
X21753773Y-53702196D01*
X21729504Y-53705796D01*
X21705000Y-53707000D01*
X20955000Y-53707000D01*
X20930496Y-53705796D01*
X20906227Y-53702196D01*
X20882429Y-53696235D01*
X20859329Y-53687970D01*
X20837151Y-53677480D01*
X20816107Y-53664867D01*
X20796402Y-53650253D01*
X20778223Y-53633777D01*
X20761747Y-53615598D01*
X20747133Y-53595893D01*
X20734520Y-53574849D01*
X20724030Y-53552671D01*
X20715765Y-53529571D01*
X20709804Y-53505773D01*
X20706204Y-53481504D01*
X20705000Y-53457000D01*
X20705000Y-52207000D01*
X20706204Y-52182496D01*
X20709804Y-52158227D01*
X20715765Y-52134429D01*
X20724030Y-52111329D01*
X20734520Y-52089151D01*
X20747133Y-52068107D01*
X20761747Y-52048402D01*
X20778223Y-52030223D01*
X20796402Y-52013747D01*
X20816107Y-51999133D01*
X20837151Y-51986520D01*
X20859329Y-51976030D01*
X20882429Y-51967765D01*
X20906227Y-51961804D01*
X20930496Y-51958204D01*
X20955000Y-51957000D01*
X21705000Y-51957000D01*
X21729504Y-51958204D01*
X21729504Y-51958204D01*
G37*
D11*
X21330000Y-52832000D03*
D10*
G36*
X24529504Y-51958204D02*
X24553773Y-51961804D01*
X24577571Y-51967765D01*
X24600671Y-51976030D01*
X24622849Y-51986520D01*
X24643893Y-51999133D01*
X24663598Y-52013747D01*
X24681777Y-52030223D01*
X24698253Y-52048402D01*
X24712867Y-52068107D01*
X24725480Y-52089151D01*
X24735970Y-52111329D01*
X24744235Y-52134429D01*
X24750196Y-52158227D01*
X24753796Y-52182496D01*
X24755000Y-52207000D01*
X24755000Y-53457000D01*
X24753796Y-53481504D01*
X24750196Y-53505773D01*
X24744235Y-53529571D01*
X24735970Y-53552671D01*
X24725480Y-53574849D01*
X24712867Y-53595893D01*
X24698253Y-53615598D01*
X24681777Y-53633777D01*
X24663598Y-53650253D01*
X24643893Y-53664867D01*
X24622849Y-53677480D01*
X24600671Y-53687970D01*
X24577571Y-53696235D01*
X24553773Y-53702196D01*
X24529504Y-53705796D01*
X24505000Y-53707000D01*
X23755000Y-53707000D01*
X23730496Y-53705796D01*
X23706227Y-53702196D01*
X23682429Y-53696235D01*
X23659329Y-53687970D01*
X23637151Y-53677480D01*
X23616107Y-53664867D01*
X23596402Y-53650253D01*
X23578223Y-53633777D01*
X23561747Y-53615598D01*
X23547133Y-53595893D01*
X23534520Y-53574849D01*
X23524030Y-53552671D01*
X23515765Y-53529571D01*
X23509804Y-53505773D01*
X23506204Y-53481504D01*
X23505000Y-53457000D01*
X23505000Y-52207000D01*
X23506204Y-52182496D01*
X23509804Y-52158227D01*
X23515765Y-52134429D01*
X23524030Y-52111329D01*
X23534520Y-52089151D01*
X23547133Y-52068107D01*
X23561747Y-52048402D01*
X23578223Y-52030223D01*
X23596402Y-52013747D01*
X23616107Y-51999133D01*
X23637151Y-51986520D01*
X23659329Y-51976030D01*
X23682429Y-51967765D01*
X23706227Y-51961804D01*
X23730496Y-51958204D01*
X23755000Y-51957000D01*
X24505000Y-51957000D01*
X24529504Y-51958204D01*
X24529504Y-51958204D01*
G37*
D11*
X24130000Y-52832000D03*
G04 #@! TD*
D10*
G04 #@! TO.C,R9*
G36*
X138959504Y-44592204D02*
X138983773Y-44595804D01*
X139007571Y-44601765D01*
X139030671Y-44610030D01*
X139052849Y-44620520D01*
X139073893Y-44633133D01*
X139093598Y-44647747D01*
X139111777Y-44664223D01*
X139128253Y-44682402D01*
X139142867Y-44702107D01*
X139155480Y-44723151D01*
X139165970Y-44745329D01*
X139174235Y-44768429D01*
X139180196Y-44792227D01*
X139183796Y-44816496D01*
X139185000Y-44841000D01*
X139185000Y-46091000D01*
X139183796Y-46115504D01*
X139180196Y-46139773D01*
X139174235Y-46163571D01*
X139165970Y-46186671D01*
X139155480Y-46208849D01*
X139142867Y-46229893D01*
X139128253Y-46249598D01*
X139111777Y-46267777D01*
X139093598Y-46284253D01*
X139073893Y-46298867D01*
X139052849Y-46311480D01*
X139030671Y-46321970D01*
X139007571Y-46330235D01*
X138983773Y-46336196D01*
X138959504Y-46339796D01*
X138935000Y-46341000D01*
X138185000Y-46341000D01*
X138160496Y-46339796D01*
X138136227Y-46336196D01*
X138112429Y-46330235D01*
X138089329Y-46321970D01*
X138067151Y-46311480D01*
X138046107Y-46298867D01*
X138026402Y-46284253D01*
X138008223Y-46267777D01*
X137991747Y-46249598D01*
X137977133Y-46229893D01*
X137964520Y-46208849D01*
X137954030Y-46186671D01*
X137945765Y-46163571D01*
X137939804Y-46139773D01*
X137936204Y-46115504D01*
X137935000Y-46091000D01*
X137935000Y-44841000D01*
X137936204Y-44816496D01*
X137939804Y-44792227D01*
X137945765Y-44768429D01*
X137954030Y-44745329D01*
X137964520Y-44723151D01*
X137977133Y-44702107D01*
X137991747Y-44682402D01*
X138008223Y-44664223D01*
X138026402Y-44647747D01*
X138046107Y-44633133D01*
X138067151Y-44620520D01*
X138089329Y-44610030D01*
X138112429Y-44601765D01*
X138136227Y-44595804D01*
X138160496Y-44592204D01*
X138185000Y-44591000D01*
X138935000Y-44591000D01*
X138959504Y-44592204D01*
X138959504Y-44592204D01*
G37*
D11*
X138560000Y-45466000D03*
D10*
G36*
X136159504Y-44592204D02*
X136183773Y-44595804D01*
X136207571Y-44601765D01*
X136230671Y-44610030D01*
X136252849Y-44620520D01*
X136273893Y-44633133D01*
X136293598Y-44647747D01*
X136311777Y-44664223D01*
X136328253Y-44682402D01*
X136342867Y-44702107D01*
X136355480Y-44723151D01*
X136365970Y-44745329D01*
X136374235Y-44768429D01*
X136380196Y-44792227D01*
X136383796Y-44816496D01*
X136385000Y-44841000D01*
X136385000Y-46091000D01*
X136383796Y-46115504D01*
X136380196Y-46139773D01*
X136374235Y-46163571D01*
X136365970Y-46186671D01*
X136355480Y-46208849D01*
X136342867Y-46229893D01*
X136328253Y-46249598D01*
X136311777Y-46267777D01*
X136293598Y-46284253D01*
X136273893Y-46298867D01*
X136252849Y-46311480D01*
X136230671Y-46321970D01*
X136207571Y-46330235D01*
X136183773Y-46336196D01*
X136159504Y-46339796D01*
X136135000Y-46341000D01*
X135385000Y-46341000D01*
X135360496Y-46339796D01*
X135336227Y-46336196D01*
X135312429Y-46330235D01*
X135289329Y-46321970D01*
X135267151Y-46311480D01*
X135246107Y-46298867D01*
X135226402Y-46284253D01*
X135208223Y-46267777D01*
X135191747Y-46249598D01*
X135177133Y-46229893D01*
X135164520Y-46208849D01*
X135154030Y-46186671D01*
X135145765Y-46163571D01*
X135139804Y-46139773D01*
X135136204Y-46115504D01*
X135135000Y-46091000D01*
X135135000Y-44841000D01*
X135136204Y-44816496D01*
X135139804Y-44792227D01*
X135145765Y-44768429D01*
X135154030Y-44745329D01*
X135164520Y-44723151D01*
X135177133Y-44702107D01*
X135191747Y-44682402D01*
X135208223Y-44664223D01*
X135226402Y-44647747D01*
X135246107Y-44633133D01*
X135267151Y-44620520D01*
X135289329Y-44610030D01*
X135312429Y-44601765D01*
X135336227Y-44595804D01*
X135360496Y-44592204D01*
X135385000Y-44591000D01*
X136135000Y-44591000D01*
X136159504Y-44592204D01*
X136159504Y-44592204D01*
G37*
D11*
X135760000Y-45466000D03*
G04 #@! TD*
D10*
G04 #@! TO.C,R10*
G36*
X142255504Y-44592204D02*
X142279773Y-44595804D01*
X142303571Y-44601765D01*
X142326671Y-44610030D01*
X142348849Y-44620520D01*
X142369893Y-44633133D01*
X142389598Y-44647747D01*
X142407777Y-44664223D01*
X142424253Y-44682402D01*
X142438867Y-44702107D01*
X142451480Y-44723151D01*
X142461970Y-44745329D01*
X142470235Y-44768429D01*
X142476196Y-44792227D01*
X142479796Y-44816496D01*
X142481000Y-44841000D01*
X142481000Y-46091000D01*
X142479796Y-46115504D01*
X142476196Y-46139773D01*
X142470235Y-46163571D01*
X142461970Y-46186671D01*
X142451480Y-46208849D01*
X142438867Y-46229893D01*
X142424253Y-46249598D01*
X142407777Y-46267777D01*
X142389598Y-46284253D01*
X142369893Y-46298867D01*
X142348849Y-46311480D01*
X142326671Y-46321970D01*
X142303571Y-46330235D01*
X142279773Y-46336196D01*
X142255504Y-46339796D01*
X142231000Y-46341000D01*
X141481000Y-46341000D01*
X141456496Y-46339796D01*
X141432227Y-46336196D01*
X141408429Y-46330235D01*
X141385329Y-46321970D01*
X141363151Y-46311480D01*
X141342107Y-46298867D01*
X141322402Y-46284253D01*
X141304223Y-46267777D01*
X141287747Y-46249598D01*
X141273133Y-46229893D01*
X141260520Y-46208849D01*
X141250030Y-46186671D01*
X141241765Y-46163571D01*
X141235804Y-46139773D01*
X141232204Y-46115504D01*
X141231000Y-46091000D01*
X141231000Y-44841000D01*
X141232204Y-44816496D01*
X141235804Y-44792227D01*
X141241765Y-44768429D01*
X141250030Y-44745329D01*
X141260520Y-44723151D01*
X141273133Y-44702107D01*
X141287747Y-44682402D01*
X141304223Y-44664223D01*
X141322402Y-44647747D01*
X141342107Y-44633133D01*
X141363151Y-44620520D01*
X141385329Y-44610030D01*
X141408429Y-44601765D01*
X141432227Y-44595804D01*
X141456496Y-44592204D01*
X141481000Y-44591000D01*
X142231000Y-44591000D01*
X142255504Y-44592204D01*
X142255504Y-44592204D01*
G37*
D11*
X141856000Y-45466000D03*
D10*
G36*
X145055504Y-44592204D02*
X145079773Y-44595804D01*
X145103571Y-44601765D01*
X145126671Y-44610030D01*
X145148849Y-44620520D01*
X145169893Y-44633133D01*
X145189598Y-44647747D01*
X145207777Y-44664223D01*
X145224253Y-44682402D01*
X145238867Y-44702107D01*
X145251480Y-44723151D01*
X145261970Y-44745329D01*
X145270235Y-44768429D01*
X145276196Y-44792227D01*
X145279796Y-44816496D01*
X145281000Y-44841000D01*
X145281000Y-46091000D01*
X145279796Y-46115504D01*
X145276196Y-46139773D01*
X145270235Y-46163571D01*
X145261970Y-46186671D01*
X145251480Y-46208849D01*
X145238867Y-46229893D01*
X145224253Y-46249598D01*
X145207777Y-46267777D01*
X145189598Y-46284253D01*
X145169893Y-46298867D01*
X145148849Y-46311480D01*
X145126671Y-46321970D01*
X145103571Y-46330235D01*
X145079773Y-46336196D01*
X145055504Y-46339796D01*
X145031000Y-46341000D01*
X144281000Y-46341000D01*
X144256496Y-46339796D01*
X144232227Y-46336196D01*
X144208429Y-46330235D01*
X144185329Y-46321970D01*
X144163151Y-46311480D01*
X144142107Y-46298867D01*
X144122402Y-46284253D01*
X144104223Y-46267777D01*
X144087747Y-46249598D01*
X144073133Y-46229893D01*
X144060520Y-46208849D01*
X144050030Y-46186671D01*
X144041765Y-46163571D01*
X144035804Y-46139773D01*
X144032204Y-46115504D01*
X144031000Y-46091000D01*
X144031000Y-44841000D01*
X144032204Y-44816496D01*
X144035804Y-44792227D01*
X144041765Y-44768429D01*
X144050030Y-44745329D01*
X144060520Y-44723151D01*
X144073133Y-44702107D01*
X144087747Y-44682402D01*
X144104223Y-44664223D01*
X144122402Y-44647747D01*
X144142107Y-44633133D01*
X144163151Y-44620520D01*
X144185329Y-44610030D01*
X144208429Y-44601765D01*
X144232227Y-44595804D01*
X144256496Y-44592204D01*
X144281000Y-44591000D01*
X145031000Y-44591000D01*
X145055504Y-44592204D01*
X145055504Y-44592204D01*
G37*
D11*
X144656000Y-45466000D03*
G04 #@! TD*
D10*
G04 #@! TO.C,R11*
G36*
X62505504Y-64912204D02*
X62529773Y-64915804D01*
X62553571Y-64921765D01*
X62576671Y-64930030D01*
X62598849Y-64940520D01*
X62619893Y-64953133D01*
X62639598Y-64967747D01*
X62657777Y-64984223D01*
X62674253Y-65002402D01*
X62688867Y-65022107D01*
X62701480Y-65043151D01*
X62711970Y-65065329D01*
X62720235Y-65088429D01*
X62726196Y-65112227D01*
X62729796Y-65136496D01*
X62731000Y-65161000D01*
X62731000Y-66411000D01*
X62729796Y-66435504D01*
X62726196Y-66459773D01*
X62720235Y-66483571D01*
X62711970Y-66506671D01*
X62701480Y-66528849D01*
X62688867Y-66549893D01*
X62674253Y-66569598D01*
X62657777Y-66587777D01*
X62639598Y-66604253D01*
X62619893Y-66618867D01*
X62598849Y-66631480D01*
X62576671Y-66641970D01*
X62553571Y-66650235D01*
X62529773Y-66656196D01*
X62505504Y-66659796D01*
X62481000Y-66661000D01*
X61731000Y-66661000D01*
X61706496Y-66659796D01*
X61682227Y-66656196D01*
X61658429Y-66650235D01*
X61635329Y-66641970D01*
X61613151Y-66631480D01*
X61592107Y-66618867D01*
X61572402Y-66604253D01*
X61554223Y-66587777D01*
X61537747Y-66569598D01*
X61523133Y-66549893D01*
X61510520Y-66528849D01*
X61500030Y-66506671D01*
X61491765Y-66483571D01*
X61485804Y-66459773D01*
X61482204Y-66435504D01*
X61481000Y-66411000D01*
X61481000Y-65161000D01*
X61482204Y-65136496D01*
X61485804Y-65112227D01*
X61491765Y-65088429D01*
X61500030Y-65065329D01*
X61510520Y-65043151D01*
X61523133Y-65022107D01*
X61537747Y-65002402D01*
X61554223Y-64984223D01*
X61572402Y-64967747D01*
X61592107Y-64953133D01*
X61613151Y-64940520D01*
X61635329Y-64930030D01*
X61658429Y-64921765D01*
X61682227Y-64915804D01*
X61706496Y-64912204D01*
X61731000Y-64911000D01*
X62481000Y-64911000D01*
X62505504Y-64912204D01*
X62505504Y-64912204D01*
G37*
D11*
X62106000Y-65786000D03*
D10*
G36*
X59705504Y-64912204D02*
X59729773Y-64915804D01*
X59753571Y-64921765D01*
X59776671Y-64930030D01*
X59798849Y-64940520D01*
X59819893Y-64953133D01*
X59839598Y-64967747D01*
X59857777Y-64984223D01*
X59874253Y-65002402D01*
X59888867Y-65022107D01*
X59901480Y-65043151D01*
X59911970Y-65065329D01*
X59920235Y-65088429D01*
X59926196Y-65112227D01*
X59929796Y-65136496D01*
X59931000Y-65161000D01*
X59931000Y-66411000D01*
X59929796Y-66435504D01*
X59926196Y-66459773D01*
X59920235Y-66483571D01*
X59911970Y-66506671D01*
X59901480Y-66528849D01*
X59888867Y-66549893D01*
X59874253Y-66569598D01*
X59857777Y-66587777D01*
X59839598Y-66604253D01*
X59819893Y-66618867D01*
X59798849Y-66631480D01*
X59776671Y-66641970D01*
X59753571Y-66650235D01*
X59729773Y-66656196D01*
X59705504Y-66659796D01*
X59681000Y-66661000D01*
X58931000Y-66661000D01*
X58906496Y-66659796D01*
X58882227Y-66656196D01*
X58858429Y-66650235D01*
X58835329Y-66641970D01*
X58813151Y-66631480D01*
X58792107Y-66618867D01*
X58772402Y-66604253D01*
X58754223Y-66587777D01*
X58737747Y-66569598D01*
X58723133Y-66549893D01*
X58710520Y-66528849D01*
X58700030Y-66506671D01*
X58691765Y-66483571D01*
X58685804Y-66459773D01*
X58682204Y-66435504D01*
X58681000Y-66411000D01*
X58681000Y-65161000D01*
X58682204Y-65136496D01*
X58685804Y-65112227D01*
X58691765Y-65088429D01*
X58700030Y-65065329D01*
X58710520Y-65043151D01*
X58723133Y-65022107D01*
X58737747Y-65002402D01*
X58754223Y-64984223D01*
X58772402Y-64967747D01*
X58792107Y-64953133D01*
X58813151Y-64940520D01*
X58835329Y-64930030D01*
X58858429Y-64921765D01*
X58882227Y-64915804D01*
X58906496Y-64912204D01*
X58931000Y-64911000D01*
X59681000Y-64911000D01*
X59705504Y-64912204D01*
X59705504Y-64912204D01*
G37*
D11*
X59306000Y-65786000D03*
G04 #@! TD*
D10*
G04 #@! TO.C,R12*
G36*
X72665504Y-64912204D02*
X72689773Y-64915804D01*
X72713571Y-64921765D01*
X72736671Y-64930030D01*
X72758849Y-64940520D01*
X72779893Y-64953133D01*
X72799598Y-64967747D01*
X72817777Y-64984223D01*
X72834253Y-65002402D01*
X72848867Y-65022107D01*
X72861480Y-65043151D01*
X72871970Y-65065329D01*
X72880235Y-65088429D01*
X72886196Y-65112227D01*
X72889796Y-65136496D01*
X72891000Y-65161000D01*
X72891000Y-66411000D01*
X72889796Y-66435504D01*
X72886196Y-66459773D01*
X72880235Y-66483571D01*
X72871970Y-66506671D01*
X72861480Y-66528849D01*
X72848867Y-66549893D01*
X72834253Y-66569598D01*
X72817777Y-66587777D01*
X72799598Y-66604253D01*
X72779893Y-66618867D01*
X72758849Y-66631480D01*
X72736671Y-66641970D01*
X72713571Y-66650235D01*
X72689773Y-66656196D01*
X72665504Y-66659796D01*
X72641000Y-66661000D01*
X71891000Y-66661000D01*
X71866496Y-66659796D01*
X71842227Y-66656196D01*
X71818429Y-66650235D01*
X71795329Y-66641970D01*
X71773151Y-66631480D01*
X71752107Y-66618867D01*
X71732402Y-66604253D01*
X71714223Y-66587777D01*
X71697747Y-66569598D01*
X71683133Y-66549893D01*
X71670520Y-66528849D01*
X71660030Y-66506671D01*
X71651765Y-66483571D01*
X71645804Y-66459773D01*
X71642204Y-66435504D01*
X71641000Y-66411000D01*
X71641000Y-65161000D01*
X71642204Y-65136496D01*
X71645804Y-65112227D01*
X71651765Y-65088429D01*
X71660030Y-65065329D01*
X71670520Y-65043151D01*
X71683133Y-65022107D01*
X71697747Y-65002402D01*
X71714223Y-64984223D01*
X71732402Y-64967747D01*
X71752107Y-64953133D01*
X71773151Y-64940520D01*
X71795329Y-64930030D01*
X71818429Y-64921765D01*
X71842227Y-64915804D01*
X71866496Y-64912204D01*
X71891000Y-64911000D01*
X72641000Y-64911000D01*
X72665504Y-64912204D01*
X72665504Y-64912204D01*
G37*
D11*
X72266000Y-65786000D03*
D10*
G36*
X69865504Y-64912204D02*
X69889773Y-64915804D01*
X69913571Y-64921765D01*
X69936671Y-64930030D01*
X69958849Y-64940520D01*
X69979893Y-64953133D01*
X69999598Y-64967747D01*
X70017777Y-64984223D01*
X70034253Y-65002402D01*
X70048867Y-65022107D01*
X70061480Y-65043151D01*
X70071970Y-65065329D01*
X70080235Y-65088429D01*
X70086196Y-65112227D01*
X70089796Y-65136496D01*
X70091000Y-65161000D01*
X70091000Y-66411000D01*
X70089796Y-66435504D01*
X70086196Y-66459773D01*
X70080235Y-66483571D01*
X70071970Y-66506671D01*
X70061480Y-66528849D01*
X70048867Y-66549893D01*
X70034253Y-66569598D01*
X70017777Y-66587777D01*
X69999598Y-66604253D01*
X69979893Y-66618867D01*
X69958849Y-66631480D01*
X69936671Y-66641970D01*
X69913571Y-66650235D01*
X69889773Y-66656196D01*
X69865504Y-66659796D01*
X69841000Y-66661000D01*
X69091000Y-66661000D01*
X69066496Y-66659796D01*
X69042227Y-66656196D01*
X69018429Y-66650235D01*
X68995329Y-66641970D01*
X68973151Y-66631480D01*
X68952107Y-66618867D01*
X68932402Y-66604253D01*
X68914223Y-66587777D01*
X68897747Y-66569598D01*
X68883133Y-66549893D01*
X68870520Y-66528849D01*
X68860030Y-66506671D01*
X68851765Y-66483571D01*
X68845804Y-66459773D01*
X68842204Y-66435504D01*
X68841000Y-66411000D01*
X68841000Y-65161000D01*
X68842204Y-65136496D01*
X68845804Y-65112227D01*
X68851765Y-65088429D01*
X68860030Y-65065329D01*
X68870520Y-65043151D01*
X68883133Y-65022107D01*
X68897747Y-65002402D01*
X68914223Y-64984223D01*
X68932402Y-64967747D01*
X68952107Y-64953133D01*
X68973151Y-64940520D01*
X68995329Y-64930030D01*
X69018429Y-64921765D01*
X69042227Y-64915804D01*
X69066496Y-64912204D01*
X69091000Y-64911000D01*
X69841000Y-64911000D01*
X69865504Y-64912204D01*
X69865504Y-64912204D01*
G37*
D11*
X69466000Y-65786000D03*
G04 #@! TD*
D10*
G04 #@! TO.C,R13*
G36*
X43833504Y-64912204D02*
X43857773Y-64915804D01*
X43881571Y-64921765D01*
X43904671Y-64930030D01*
X43926849Y-64940520D01*
X43947893Y-64953133D01*
X43967598Y-64967747D01*
X43985777Y-64984223D01*
X44002253Y-65002402D01*
X44016867Y-65022107D01*
X44029480Y-65043151D01*
X44039970Y-65065329D01*
X44048235Y-65088429D01*
X44054196Y-65112227D01*
X44057796Y-65136496D01*
X44059000Y-65161000D01*
X44059000Y-66411000D01*
X44057796Y-66435504D01*
X44054196Y-66459773D01*
X44048235Y-66483571D01*
X44039970Y-66506671D01*
X44029480Y-66528849D01*
X44016867Y-66549893D01*
X44002253Y-66569598D01*
X43985777Y-66587777D01*
X43967598Y-66604253D01*
X43947893Y-66618867D01*
X43926849Y-66631480D01*
X43904671Y-66641970D01*
X43881571Y-66650235D01*
X43857773Y-66656196D01*
X43833504Y-66659796D01*
X43809000Y-66661000D01*
X43059000Y-66661000D01*
X43034496Y-66659796D01*
X43010227Y-66656196D01*
X42986429Y-66650235D01*
X42963329Y-66641970D01*
X42941151Y-66631480D01*
X42920107Y-66618867D01*
X42900402Y-66604253D01*
X42882223Y-66587777D01*
X42865747Y-66569598D01*
X42851133Y-66549893D01*
X42838520Y-66528849D01*
X42828030Y-66506671D01*
X42819765Y-66483571D01*
X42813804Y-66459773D01*
X42810204Y-66435504D01*
X42809000Y-66411000D01*
X42809000Y-65161000D01*
X42810204Y-65136496D01*
X42813804Y-65112227D01*
X42819765Y-65088429D01*
X42828030Y-65065329D01*
X42838520Y-65043151D01*
X42851133Y-65022107D01*
X42865747Y-65002402D01*
X42882223Y-64984223D01*
X42900402Y-64967747D01*
X42920107Y-64953133D01*
X42941151Y-64940520D01*
X42963329Y-64930030D01*
X42986429Y-64921765D01*
X43010227Y-64915804D01*
X43034496Y-64912204D01*
X43059000Y-64911000D01*
X43809000Y-64911000D01*
X43833504Y-64912204D01*
X43833504Y-64912204D01*
G37*
D11*
X43434000Y-65786000D03*
D10*
G36*
X41033504Y-64912204D02*
X41057773Y-64915804D01*
X41081571Y-64921765D01*
X41104671Y-64930030D01*
X41126849Y-64940520D01*
X41147893Y-64953133D01*
X41167598Y-64967747D01*
X41185777Y-64984223D01*
X41202253Y-65002402D01*
X41216867Y-65022107D01*
X41229480Y-65043151D01*
X41239970Y-65065329D01*
X41248235Y-65088429D01*
X41254196Y-65112227D01*
X41257796Y-65136496D01*
X41259000Y-65161000D01*
X41259000Y-66411000D01*
X41257796Y-66435504D01*
X41254196Y-66459773D01*
X41248235Y-66483571D01*
X41239970Y-66506671D01*
X41229480Y-66528849D01*
X41216867Y-66549893D01*
X41202253Y-66569598D01*
X41185777Y-66587777D01*
X41167598Y-66604253D01*
X41147893Y-66618867D01*
X41126849Y-66631480D01*
X41104671Y-66641970D01*
X41081571Y-66650235D01*
X41057773Y-66656196D01*
X41033504Y-66659796D01*
X41009000Y-66661000D01*
X40259000Y-66661000D01*
X40234496Y-66659796D01*
X40210227Y-66656196D01*
X40186429Y-66650235D01*
X40163329Y-66641970D01*
X40141151Y-66631480D01*
X40120107Y-66618867D01*
X40100402Y-66604253D01*
X40082223Y-66587777D01*
X40065747Y-66569598D01*
X40051133Y-66549893D01*
X40038520Y-66528849D01*
X40028030Y-66506671D01*
X40019765Y-66483571D01*
X40013804Y-66459773D01*
X40010204Y-66435504D01*
X40009000Y-66411000D01*
X40009000Y-65161000D01*
X40010204Y-65136496D01*
X40013804Y-65112227D01*
X40019765Y-65088429D01*
X40028030Y-65065329D01*
X40038520Y-65043151D01*
X40051133Y-65022107D01*
X40065747Y-65002402D01*
X40082223Y-64984223D01*
X40100402Y-64967747D01*
X40120107Y-64953133D01*
X40141151Y-64940520D01*
X40163329Y-64930030D01*
X40186429Y-64921765D01*
X40210227Y-64915804D01*
X40234496Y-64912204D01*
X40259000Y-64911000D01*
X41009000Y-64911000D01*
X41033504Y-64912204D01*
X41033504Y-64912204D01*
G37*
D11*
X40634000Y-65786000D03*
G04 #@! TD*
D10*
G04 #@! TO.C,R14*
G36*
X54123504Y-64912204D02*
X54147773Y-64915804D01*
X54171571Y-64921765D01*
X54194671Y-64930030D01*
X54216849Y-64940520D01*
X54237893Y-64953133D01*
X54257598Y-64967747D01*
X54275777Y-64984223D01*
X54292253Y-65002402D01*
X54306867Y-65022107D01*
X54319480Y-65043151D01*
X54329970Y-65065329D01*
X54338235Y-65088429D01*
X54344196Y-65112227D01*
X54347796Y-65136496D01*
X54349000Y-65161000D01*
X54349000Y-66411000D01*
X54347796Y-66435504D01*
X54344196Y-66459773D01*
X54338235Y-66483571D01*
X54329970Y-66506671D01*
X54319480Y-66528849D01*
X54306867Y-66549893D01*
X54292253Y-66569598D01*
X54275777Y-66587777D01*
X54257598Y-66604253D01*
X54237893Y-66618867D01*
X54216849Y-66631480D01*
X54194671Y-66641970D01*
X54171571Y-66650235D01*
X54147773Y-66656196D01*
X54123504Y-66659796D01*
X54099000Y-66661000D01*
X53349000Y-66661000D01*
X53324496Y-66659796D01*
X53300227Y-66656196D01*
X53276429Y-66650235D01*
X53253329Y-66641970D01*
X53231151Y-66631480D01*
X53210107Y-66618867D01*
X53190402Y-66604253D01*
X53172223Y-66587777D01*
X53155747Y-66569598D01*
X53141133Y-66549893D01*
X53128520Y-66528849D01*
X53118030Y-66506671D01*
X53109765Y-66483571D01*
X53103804Y-66459773D01*
X53100204Y-66435504D01*
X53099000Y-66411000D01*
X53099000Y-65161000D01*
X53100204Y-65136496D01*
X53103804Y-65112227D01*
X53109765Y-65088429D01*
X53118030Y-65065329D01*
X53128520Y-65043151D01*
X53141133Y-65022107D01*
X53155747Y-65002402D01*
X53172223Y-64984223D01*
X53190402Y-64967747D01*
X53210107Y-64953133D01*
X53231151Y-64940520D01*
X53253329Y-64930030D01*
X53276429Y-64921765D01*
X53300227Y-64915804D01*
X53324496Y-64912204D01*
X53349000Y-64911000D01*
X54099000Y-64911000D01*
X54123504Y-64912204D01*
X54123504Y-64912204D01*
G37*
D11*
X53724000Y-65786000D03*
D10*
G36*
X51323504Y-64912204D02*
X51347773Y-64915804D01*
X51371571Y-64921765D01*
X51394671Y-64930030D01*
X51416849Y-64940520D01*
X51437893Y-64953133D01*
X51457598Y-64967747D01*
X51475777Y-64984223D01*
X51492253Y-65002402D01*
X51506867Y-65022107D01*
X51519480Y-65043151D01*
X51529970Y-65065329D01*
X51538235Y-65088429D01*
X51544196Y-65112227D01*
X51547796Y-65136496D01*
X51549000Y-65161000D01*
X51549000Y-66411000D01*
X51547796Y-66435504D01*
X51544196Y-66459773D01*
X51538235Y-66483571D01*
X51529970Y-66506671D01*
X51519480Y-66528849D01*
X51506867Y-66549893D01*
X51492253Y-66569598D01*
X51475777Y-66587777D01*
X51457598Y-66604253D01*
X51437893Y-66618867D01*
X51416849Y-66631480D01*
X51394671Y-66641970D01*
X51371571Y-66650235D01*
X51347773Y-66656196D01*
X51323504Y-66659796D01*
X51299000Y-66661000D01*
X50549000Y-66661000D01*
X50524496Y-66659796D01*
X50500227Y-66656196D01*
X50476429Y-66650235D01*
X50453329Y-66641970D01*
X50431151Y-66631480D01*
X50410107Y-66618867D01*
X50390402Y-66604253D01*
X50372223Y-66587777D01*
X50355747Y-66569598D01*
X50341133Y-66549893D01*
X50328520Y-66528849D01*
X50318030Y-66506671D01*
X50309765Y-66483571D01*
X50303804Y-66459773D01*
X50300204Y-66435504D01*
X50299000Y-66411000D01*
X50299000Y-65161000D01*
X50300204Y-65136496D01*
X50303804Y-65112227D01*
X50309765Y-65088429D01*
X50318030Y-65065329D01*
X50328520Y-65043151D01*
X50341133Y-65022107D01*
X50355747Y-65002402D01*
X50372223Y-64984223D01*
X50390402Y-64967747D01*
X50410107Y-64953133D01*
X50431151Y-64940520D01*
X50453329Y-64930030D01*
X50476429Y-64921765D01*
X50500227Y-64915804D01*
X50524496Y-64912204D01*
X50549000Y-64911000D01*
X51299000Y-64911000D01*
X51323504Y-64912204D01*
X51323504Y-64912204D01*
G37*
D11*
X50924000Y-65786000D03*
G04 #@! TD*
D10*
G04 #@! TO.C,R15*
G36*
X24659504Y-65166204D02*
X24683773Y-65169804D01*
X24707571Y-65175765D01*
X24730671Y-65184030D01*
X24752849Y-65194520D01*
X24773893Y-65207133D01*
X24793598Y-65221747D01*
X24811777Y-65238223D01*
X24828253Y-65256402D01*
X24842867Y-65276107D01*
X24855480Y-65297151D01*
X24865970Y-65319329D01*
X24874235Y-65342429D01*
X24880196Y-65366227D01*
X24883796Y-65390496D01*
X24885000Y-65415000D01*
X24885000Y-66665000D01*
X24883796Y-66689504D01*
X24880196Y-66713773D01*
X24874235Y-66737571D01*
X24865970Y-66760671D01*
X24855480Y-66782849D01*
X24842867Y-66803893D01*
X24828253Y-66823598D01*
X24811777Y-66841777D01*
X24793598Y-66858253D01*
X24773893Y-66872867D01*
X24752849Y-66885480D01*
X24730671Y-66895970D01*
X24707571Y-66904235D01*
X24683773Y-66910196D01*
X24659504Y-66913796D01*
X24635000Y-66915000D01*
X23885000Y-66915000D01*
X23860496Y-66913796D01*
X23836227Y-66910196D01*
X23812429Y-66904235D01*
X23789329Y-66895970D01*
X23767151Y-66885480D01*
X23746107Y-66872867D01*
X23726402Y-66858253D01*
X23708223Y-66841777D01*
X23691747Y-66823598D01*
X23677133Y-66803893D01*
X23664520Y-66782849D01*
X23654030Y-66760671D01*
X23645765Y-66737571D01*
X23639804Y-66713773D01*
X23636204Y-66689504D01*
X23635000Y-66665000D01*
X23635000Y-65415000D01*
X23636204Y-65390496D01*
X23639804Y-65366227D01*
X23645765Y-65342429D01*
X23654030Y-65319329D01*
X23664520Y-65297151D01*
X23677133Y-65276107D01*
X23691747Y-65256402D01*
X23708223Y-65238223D01*
X23726402Y-65221747D01*
X23746107Y-65207133D01*
X23767151Y-65194520D01*
X23789329Y-65184030D01*
X23812429Y-65175765D01*
X23836227Y-65169804D01*
X23860496Y-65166204D01*
X23885000Y-65165000D01*
X24635000Y-65165000D01*
X24659504Y-65166204D01*
X24659504Y-65166204D01*
G37*
D11*
X24260000Y-66040000D03*
D10*
G36*
X21859504Y-65166204D02*
X21883773Y-65169804D01*
X21907571Y-65175765D01*
X21930671Y-65184030D01*
X21952849Y-65194520D01*
X21973893Y-65207133D01*
X21993598Y-65221747D01*
X22011777Y-65238223D01*
X22028253Y-65256402D01*
X22042867Y-65276107D01*
X22055480Y-65297151D01*
X22065970Y-65319329D01*
X22074235Y-65342429D01*
X22080196Y-65366227D01*
X22083796Y-65390496D01*
X22085000Y-65415000D01*
X22085000Y-66665000D01*
X22083796Y-66689504D01*
X22080196Y-66713773D01*
X22074235Y-66737571D01*
X22065970Y-66760671D01*
X22055480Y-66782849D01*
X22042867Y-66803893D01*
X22028253Y-66823598D01*
X22011777Y-66841777D01*
X21993598Y-66858253D01*
X21973893Y-66872867D01*
X21952849Y-66885480D01*
X21930671Y-66895970D01*
X21907571Y-66904235D01*
X21883773Y-66910196D01*
X21859504Y-66913796D01*
X21835000Y-66915000D01*
X21085000Y-66915000D01*
X21060496Y-66913796D01*
X21036227Y-66910196D01*
X21012429Y-66904235D01*
X20989329Y-66895970D01*
X20967151Y-66885480D01*
X20946107Y-66872867D01*
X20926402Y-66858253D01*
X20908223Y-66841777D01*
X20891747Y-66823598D01*
X20877133Y-66803893D01*
X20864520Y-66782849D01*
X20854030Y-66760671D01*
X20845765Y-66737571D01*
X20839804Y-66713773D01*
X20836204Y-66689504D01*
X20835000Y-66665000D01*
X20835000Y-65415000D01*
X20836204Y-65390496D01*
X20839804Y-65366227D01*
X20845765Y-65342429D01*
X20854030Y-65319329D01*
X20864520Y-65297151D01*
X20877133Y-65276107D01*
X20891747Y-65256402D01*
X20908223Y-65238223D01*
X20926402Y-65221747D01*
X20946107Y-65207133D01*
X20967151Y-65194520D01*
X20989329Y-65184030D01*
X21012429Y-65175765D01*
X21036227Y-65169804D01*
X21060496Y-65166204D01*
X21085000Y-65165000D01*
X21835000Y-65165000D01*
X21859504Y-65166204D01*
X21859504Y-65166204D01*
G37*
D11*
X21460000Y-66040000D03*
G04 #@! TD*
D10*
G04 #@! TO.C,R16*
G36*
X34819504Y-65166204D02*
X34843773Y-65169804D01*
X34867571Y-65175765D01*
X34890671Y-65184030D01*
X34912849Y-65194520D01*
X34933893Y-65207133D01*
X34953598Y-65221747D01*
X34971777Y-65238223D01*
X34988253Y-65256402D01*
X35002867Y-65276107D01*
X35015480Y-65297151D01*
X35025970Y-65319329D01*
X35034235Y-65342429D01*
X35040196Y-65366227D01*
X35043796Y-65390496D01*
X35045000Y-65415000D01*
X35045000Y-66665000D01*
X35043796Y-66689504D01*
X35040196Y-66713773D01*
X35034235Y-66737571D01*
X35025970Y-66760671D01*
X35015480Y-66782849D01*
X35002867Y-66803893D01*
X34988253Y-66823598D01*
X34971777Y-66841777D01*
X34953598Y-66858253D01*
X34933893Y-66872867D01*
X34912849Y-66885480D01*
X34890671Y-66895970D01*
X34867571Y-66904235D01*
X34843773Y-66910196D01*
X34819504Y-66913796D01*
X34795000Y-66915000D01*
X34045000Y-66915000D01*
X34020496Y-66913796D01*
X33996227Y-66910196D01*
X33972429Y-66904235D01*
X33949329Y-66895970D01*
X33927151Y-66885480D01*
X33906107Y-66872867D01*
X33886402Y-66858253D01*
X33868223Y-66841777D01*
X33851747Y-66823598D01*
X33837133Y-66803893D01*
X33824520Y-66782849D01*
X33814030Y-66760671D01*
X33805765Y-66737571D01*
X33799804Y-66713773D01*
X33796204Y-66689504D01*
X33795000Y-66665000D01*
X33795000Y-65415000D01*
X33796204Y-65390496D01*
X33799804Y-65366227D01*
X33805765Y-65342429D01*
X33814030Y-65319329D01*
X33824520Y-65297151D01*
X33837133Y-65276107D01*
X33851747Y-65256402D01*
X33868223Y-65238223D01*
X33886402Y-65221747D01*
X33906107Y-65207133D01*
X33927151Y-65194520D01*
X33949329Y-65184030D01*
X33972429Y-65175765D01*
X33996227Y-65169804D01*
X34020496Y-65166204D01*
X34045000Y-65165000D01*
X34795000Y-65165000D01*
X34819504Y-65166204D01*
X34819504Y-65166204D01*
G37*
D11*
X34420000Y-66040000D03*
D10*
G36*
X32019504Y-65166204D02*
X32043773Y-65169804D01*
X32067571Y-65175765D01*
X32090671Y-65184030D01*
X32112849Y-65194520D01*
X32133893Y-65207133D01*
X32153598Y-65221747D01*
X32171777Y-65238223D01*
X32188253Y-65256402D01*
X32202867Y-65276107D01*
X32215480Y-65297151D01*
X32225970Y-65319329D01*
X32234235Y-65342429D01*
X32240196Y-65366227D01*
X32243796Y-65390496D01*
X32245000Y-65415000D01*
X32245000Y-66665000D01*
X32243796Y-66689504D01*
X32240196Y-66713773D01*
X32234235Y-66737571D01*
X32225970Y-66760671D01*
X32215480Y-66782849D01*
X32202867Y-66803893D01*
X32188253Y-66823598D01*
X32171777Y-66841777D01*
X32153598Y-66858253D01*
X32133893Y-66872867D01*
X32112849Y-66885480D01*
X32090671Y-66895970D01*
X32067571Y-66904235D01*
X32043773Y-66910196D01*
X32019504Y-66913796D01*
X31995000Y-66915000D01*
X31245000Y-66915000D01*
X31220496Y-66913796D01*
X31196227Y-66910196D01*
X31172429Y-66904235D01*
X31149329Y-66895970D01*
X31127151Y-66885480D01*
X31106107Y-66872867D01*
X31086402Y-66858253D01*
X31068223Y-66841777D01*
X31051747Y-66823598D01*
X31037133Y-66803893D01*
X31024520Y-66782849D01*
X31014030Y-66760671D01*
X31005765Y-66737571D01*
X30999804Y-66713773D01*
X30996204Y-66689504D01*
X30995000Y-66665000D01*
X30995000Y-65415000D01*
X30996204Y-65390496D01*
X30999804Y-65366227D01*
X31005765Y-65342429D01*
X31014030Y-65319329D01*
X31024520Y-65297151D01*
X31037133Y-65276107D01*
X31051747Y-65256402D01*
X31068223Y-65238223D01*
X31086402Y-65221747D01*
X31106107Y-65207133D01*
X31127151Y-65194520D01*
X31149329Y-65184030D01*
X31172429Y-65175765D01*
X31196227Y-65169804D01*
X31220496Y-65166204D01*
X31245000Y-65165000D01*
X31995000Y-65165000D01*
X32019504Y-65166204D01*
X32019504Y-65166204D01*
G37*
D11*
X31620000Y-66040000D03*
G04 #@! TD*
D10*
G04 #@! TO.C,R17*
G36*
X118251504Y-27954204D02*
X118275773Y-27957804D01*
X118299571Y-27963765D01*
X118322671Y-27972030D01*
X118344849Y-27982520D01*
X118365893Y-27995133D01*
X118385598Y-28009747D01*
X118403777Y-28026223D01*
X118420253Y-28044402D01*
X118434867Y-28064107D01*
X118447480Y-28085151D01*
X118457970Y-28107329D01*
X118466235Y-28130429D01*
X118472196Y-28154227D01*
X118475796Y-28178496D01*
X118477000Y-28203000D01*
X118477000Y-28953000D01*
X118475796Y-28977504D01*
X118472196Y-29001773D01*
X118466235Y-29025571D01*
X118457970Y-29048671D01*
X118447480Y-29070849D01*
X118434867Y-29091893D01*
X118420253Y-29111598D01*
X118403777Y-29129777D01*
X118385598Y-29146253D01*
X118365893Y-29160867D01*
X118344849Y-29173480D01*
X118322671Y-29183970D01*
X118299571Y-29192235D01*
X118275773Y-29198196D01*
X118251504Y-29201796D01*
X118227000Y-29203000D01*
X116977000Y-29203000D01*
X116952496Y-29201796D01*
X116928227Y-29198196D01*
X116904429Y-29192235D01*
X116881329Y-29183970D01*
X116859151Y-29173480D01*
X116838107Y-29160867D01*
X116818402Y-29146253D01*
X116800223Y-29129777D01*
X116783747Y-29111598D01*
X116769133Y-29091893D01*
X116756520Y-29070849D01*
X116746030Y-29048671D01*
X116737765Y-29025571D01*
X116731804Y-29001773D01*
X116728204Y-28977504D01*
X116727000Y-28953000D01*
X116727000Y-28203000D01*
X116728204Y-28178496D01*
X116731804Y-28154227D01*
X116737765Y-28130429D01*
X116746030Y-28107329D01*
X116756520Y-28085151D01*
X116769133Y-28064107D01*
X116783747Y-28044402D01*
X116800223Y-28026223D01*
X116818402Y-28009747D01*
X116838107Y-27995133D01*
X116859151Y-27982520D01*
X116881329Y-27972030D01*
X116904429Y-27963765D01*
X116928227Y-27957804D01*
X116952496Y-27954204D01*
X116977000Y-27953000D01*
X118227000Y-27953000D01*
X118251504Y-27954204D01*
X118251504Y-27954204D01*
G37*
D11*
X117602000Y-28578000D03*
D10*
G36*
X118251504Y-25154204D02*
X118275773Y-25157804D01*
X118299571Y-25163765D01*
X118322671Y-25172030D01*
X118344849Y-25182520D01*
X118365893Y-25195133D01*
X118385598Y-25209747D01*
X118403777Y-25226223D01*
X118420253Y-25244402D01*
X118434867Y-25264107D01*
X118447480Y-25285151D01*
X118457970Y-25307329D01*
X118466235Y-25330429D01*
X118472196Y-25354227D01*
X118475796Y-25378496D01*
X118477000Y-25403000D01*
X118477000Y-26153000D01*
X118475796Y-26177504D01*
X118472196Y-26201773D01*
X118466235Y-26225571D01*
X118457970Y-26248671D01*
X118447480Y-26270849D01*
X118434867Y-26291893D01*
X118420253Y-26311598D01*
X118403777Y-26329777D01*
X118385598Y-26346253D01*
X118365893Y-26360867D01*
X118344849Y-26373480D01*
X118322671Y-26383970D01*
X118299571Y-26392235D01*
X118275773Y-26398196D01*
X118251504Y-26401796D01*
X118227000Y-26403000D01*
X116977000Y-26403000D01*
X116952496Y-26401796D01*
X116928227Y-26398196D01*
X116904429Y-26392235D01*
X116881329Y-26383970D01*
X116859151Y-26373480D01*
X116838107Y-26360867D01*
X116818402Y-26346253D01*
X116800223Y-26329777D01*
X116783747Y-26311598D01*
X116769133Y-26291893D01*
X116756520Y-26270849D01*
X116746030Y-26248671D01*
X116737765Y-26225571D01*
X116731804Y-26201773D01*
X116728204Y-26177504D01*
X116727000Y-26153000D01*
X116727000Y-25403000D01*
X116728204Y-25378496D01*
X116731804Y-25354227D01*
X116737765Y-25330429D01*
X116746030Y-25307329D01*
X116756520Y-25285151D01*
X116769133Y-25264107D01*
X116783747Y-25244402D01*
X116800223Y-25226223D01*
X116818402Y-25209747D01*
X116838107Y-25195133D01*
X116859151Y-25182520D01*
X116881329Y-25172030D01*
X116904429Y-25163765D01*
X116928227Y-25157804D01*
X116952496Y-25154204D01*
X116977000Y-25153000D01*
X118227000Y-25153000D01*
X118251504Y-25154204D01*
X118251504Y-25154204D01*
G37*
D11*
X117602000Y-25778000D03*
G04 #@! TD*
D10*
G04 #@! TO.C,R18*
G36*
X118887504Y-40274204D02*
X118911773Y-40277804D01*
X118935571Y-40283765D01*
X118958671Y-40292030D01*
X118980849Y-40302520D01*
X119001893Y-40315133D01*
X119021598Y-40329747D01*
X119039777Y-40346223D01*
X119056253Y-40364402D01*
X119070867Y-40384107D01*
X119083480Y-40405151D01*
X119093970Y-40427329D01*
X119102235Y-40450429D01*
X119108196Y-40474227D01*
X119111796Y-40498496D01*
X119113000Y-40523000D01*
X119113000Y-41773000D01*
X119111796Y-41797504D01*
X119108196Y-41821773D01*
X119102235Y-41845571D01*
X119093970Y-41868671D01*
X119083480Y-41890849D01*
X119070867Y-41911893D01*
X119056253Y-41931598D01*
X119039777Y-41949777D01*
X119021598Y-41966253D01*
X119001893Y-41980867D01*
X118980849Y-41993480D01*
X118958671Y-42003970D01*
X118935571Y-42012235D01*
X118911773Y-42018196D01*
X118887504Y-42021796D01*
X118863000Y-42023000D01*
X118113000Y-42023000D01*
X118088496Y-42021796D01*
X118064227Y-42018196D01*
X118040429Y-42012235D01*
X118017329Y-42003970D01*
X117995151Y-41993480D01*
X117974107Y-41980867D01*
X117954402Y-41966253D01*
X117936223Y-41949777D01*
X117919747Y-41931598D01*
X117905133Y-41911893D01*
X117892520Y-41890849D01*
X117882030Y-41868671D01*
X117873765Y-41845571D01*
X117867804Y-41821773D01*
X117864204Y-41797504D01*
X117863000Y-41773000D01*
X117863000Y-40523000D01*
X117864204Y-40498496D01*
X117867804Y-40474227D01*
X117873765Y-40450429D01*
X117882030Y-40427329D01*
X117892520Y-40405151D01*
X117905133Y-40384107D01*
X117919747Y-40364402D01*
X117936223Y-40346223D01*
X117954402Y-40329747D01*
X117974107Y-40315133D01*
X117995151Y-40302520D01*
X118017329Y-40292030D01*
X118040429Y-40283765D01*
X118064227Y-40277804D01*
X118088496Y-40274204D01*
X118113000Y-40273000D01*
X118863000Y-40273000D01*
X118887504Y-40274204D01*
X118887504Y-40274204D01*
G37*
D11*
X118488000Y-41148000D03*
D10*
G36*
X121687504Y-40274204D02*
X121711773Y-40277804D01*
X121735571Y-40283765D01*
X121758671Y-40292030D01*
X121780849Y-40302520D01*
X121801893Y-40315133D01*
X121821598Y-40329747D01*
X121839777Y-40346223D01*
X121856253Y-40364402D01*
X121870867Y-40384107D01*
X121883480Y-40405151D01*
X121893970Y-40427329D01*
X121902235Y-40450429D01*
X121908196Y-40474227D01*
X121911796Y-40498496D01*
X121913000Y-40523000D01*
X121913000Y-41773000D01*
X121911796Y-41797504D01*
X121908196Y-41821773D01*
X121902235Y-41845571D01*
X121893970Y-41868671D01*
X121883480Y-41890849D01*
X121870867Y-41911893D01*
X121856253Y-41931598D01*
X121839777Y-41949777D01*
X121821598Y-41966253D01*
X121801893Y-41980867D01*
X121780849Y-41993480D01*
X121758671Y-42003970D01*
X121735571Y-42012235D01*
X121711773Y-42018196D01*
X121687504Y-42021796D01*
X121663000Y-42023000D01*
X120913000Y-42023000D01*
X120888496Y-42021796D01*
X120864227Y-42018196D01*
X120840429Y-42012235D01*
X120817329Y-42003970D01*
X120795151Y-41993480D01*
X120774107Y-41980867D01*
X120754402Y-41966253D01*
X120736223Y-41949777D01*
X120719747Y-41931598D01*
X120705133Y-41911893D01*
X120692520Y-41890849D01*
X120682030Y-41868671D01*
X120673765Y-41845571D01*
X120667804Y-41821773D01*
X120664204Y-41797504D01*
X120663000Y-41773000D01*
X120663000Y-40523000D01*
X120664204Y-40498496D01*
X120667804Y-40474227D01*
X120673765Y-40450429D01*
X120682030Y-40427329D01*
X120692520Y-40405151D01*
X120705133Y-40384107D01*
X120719747Y-40364402D01*
X120736223Y-40346223D01*
X120754402Y-40329747D01*
X120774107Y-40315133D01*
X120795151Y-40302520D01*
X120817329Y-40292030D01*
X120840429Y-40283765D01*
X120864227Y-40277804D01*
X120888496Y-40274204D01*
X120913000Y-40273000D01*
X121663000Y-40273000D01*
X121687504Y-40274204D01*
X121687504Y-40274204D01*
G37*
D11*
X121288000Y-41148000D03*
G04 #@! TD*
D10*
G04 #@! TO.C,R19*
G36*
X122823504Y-27954204D02*
X122847773Y-27957804D01*
X122871571Y-27963765D01*
X122894671Y-27972030D01*
X122916849Y-27982520D01*
X122937893Y-27995133D01*
X122957598Y-28009747D01*
X122975777Y-28026223D01*
X122992253Y-28044402D01*
X123006867Y-28064107D01*
X123019480Y-28085151D01*
X123029970Y-28107329D01*
X123038235Y-28130429D01*
X123044196Y-28154227D01*
X123047796Y-28178496D01*
X123049000Y-28203000D01*
X123049000Y-28953000D01*
X123047796Y-28977504D01*
X123044196Y-29001773D01*
X123038235Y-29025571D01*
X123029970Y-29048671D01*
X123019480Y-29070849D01*
X123006867Y-29091893D01*
X122992253Y-29111598D01*
X122975777Y-29129777D01*
X122957598Y-29146253D01*
X122937893Y-29160867D01*
X122916849Y-29173480D01*
X122894671Y-29183970D01*
X122871571Y-29192235D01*
X122847773Y-29198196D01*
X122823504Y-29201796D01*
X122799000Y-29203000D01*
X121549000Y-29203000D01*
X121524496Y-29201796D01*
X121500227Y-29198196D01*
X121476429Y-29192235D01*
X121453329Y-29183970D01*
X121431151Y-29173480D01*
X121410107Y-29160867D01*
X121390402Y-29146253D01*
X121372223Y-29129777D01*
X121355747Y-29111598D01*
X121341133Y-29091893D01*
X121328520Y-29070849D01*
X121318030Y-29048671D01*
X121309765Y-29025571D01*
X121303804Y-29001773D01*
X121300204Y-28977504D01*
X121299000Y-28953000D01*
X121299000Y-28203000D01*
X121300204Y-28178496D01*
X121303804Y-28154227D01*
X121309765Y-28130429D01*
X121318030Y-28107329D01*
X121328520Y-28085151D01*
X121341133Y-28064107D01*
X121355747Y-28044402D01*
X121372223Y-28026223D01*
X121390402Y-28009747D01*
X121410107Y-27995133D01*
X121431151Y-27982520D01*
X121453329Y-27972030D01*
X121476429Y-27963765D01*
X121500227Y-27957804D01*
X121524496Y-27954204D01*
X121549000Y-27953000D01*
X122799000Y-27953000D01*
X122823504Y-27954204D01*
X122823504Y-27954204D01*
G37*
D11*
X122174000Y-28578000D03*
D10*
G36*
X122823504Y-25154204D02*
X122847773Y-25157804D01*
X122871571Y-25163765D01*
X122894671Y-25172030D01*
X122916849Y-25182520D01*
X122937893Y-25195133D01*
X122957598Y-25209747D01*
X122975777Y-25226223D01*
X122992253Y-25244402D01*
X123006867Y-25264107D01*
X123019480Y-25285151D01*
X123029970Y-25307329D01*
X123038235Y-25330429D01*
X123044196Y-25354227D01*
X123047796Y-25378496D01*
X123049000Y-25403000D01*
X123049000Y-26153000D01*
X123047796Y-26177504D01*
X123044196Y-26201773D01*
X123038235Y-26225571D01*
X123029970Y-26248671D01*
X123019480Y-26270849D01*
X123006867Y-26291893D01*
X122992253Y-26311598D01*
X122975777Y-26329777D01*
X122957598Y-26346253D01*
X122937893Y-26360867D01*
X122916849Y-26373480D01*
X122894671Y-26383970D01*
X122871571Y-26392235D01*
X122847773Y-26398196D01*
X122823504Y-26401796D01*
X122799000Y-26403000D01*
X121549000Y-26403000D01*
X121524496Y-26401796D01*
X121500227Y-26398196D01*
X121476429Y-26392235D01*
X121453329Y-26383970D01*
X121431151Y-26373480D01*
X121410107Y-26360867D01*
X121390402Y-26346253D01*
X121372223Y-26329777D01*
X121355747Y-26311598D01*
X121341133Y-26291893D01*
X121328520Y-26270849D01*
X121318030Y-26248671D01*
X121309765Y-26225571D01*
X121303804Y-26201773D01*
X121300204Y-26177504D01*
X121299000Y-26153000D01*
X121299000Y-25403000D01*
X121300204Y-25378496D01*
X121303804Y-25354227D01*
X121309765Y-25330429D01*
X121318030Y-25307329D01*
X121328520Y-25285151D01*
X121341133Y-25264107D01*
X121355747Y-25244402D01*
X121372223Y-25226223D01*
X121390402Y-25209747D01*
X121410107Y-25195133D01*
X121431151Y-25182520D01*
X121453329Y-25172030D01*
X121476429Y-25163765D01*
X121500227Y-25157804D01*
X121524496Y-25154204D01*
X121549000Y-25153000D01*
X122799000Y-25153000D01*
X122823504Y-25154204D01*
X122823504Y-25154204D01*
G37*
D11*
X122174000Y-25778000D03*
G04 #@! TD*
D10*
G04 #@! TO.C,R20*
G36*
X131967504Y-27954204D02*
X131991773Y-27957804D01*
X132015571Y-27963765D01*
X132038671Y-27972030D01*
X132060849Y-27982520D01*
X132081893Y-27995133D01*
X132101598Y-28009747D01*
X132119777Y-28026223D01*
X132136253Y-28044402D01*
X132150867Y-28064107D01*
X132163480Y-28085151D01*
X132173970Y-28107329D01*
X132182235Y-28130429D01*
X132188196Y-28154227D01*
X132191796Y-28178496D01*
X132193000Y-28203000D01*
X132193000Y-28953000D01*
X132191796Y-28977504D01*
X132188196Y-29001773D01*
X132182235Y-29025571D01*
X132173970Y-29048671D01*
X132163480Y-29070849D01*
X132150867Y-29091893D01*
X132136253Y-29111598D01*
X132119777Y-29129777D01*
X132101598Y-29146253D01*
X132081893Y-29160867D01*
X132060849Y-29173480D01*
X132038671Y-29183970D01*
X132015571Y-29192235D01*
X131991773Y-29198196D01*
X131967504Y-29201796D01*
X131943000Y-29203000D01*
X130693000Y-29203000D01*
X130668496Y-29201796D01*
X130644227Y-29198196D01*
X130620429Y-29192235D01*
X130597329Y-29183970D01*
X130575151Y-29173480D01*
X130554107Y-29160867D01*
X130534402Y-29146253D01*
X130516223Y-29129777D01*
X130499747Y-29111598D01*
X130485133Y-29091893D01*
X130472520Y-29070849D01*
X130462030Y-29048671D01*
X130453765Y-29025571D01*
X130447804Y-29001773D01*
X130444204Y-28977504D01*
X130443000Y-28953000D01*
X130443000Y-28203000D01*
X130444204Y-28178496D01*
X130447804Y-28154227D01*
X130453765Y-28130429D01*
X130462030Y-28107329D01*
X130472520Y-28085151D01*
X130485133Y-28064107D01*
X130499747Y-28044402D01*
X130516223Y-28026223D01*
X130534402Y-28009747D01*
X130554107Y-27995133D01*
X130575151Y-27982520D01*
X130597329Y-27972030D01*
X130620429Y-27963765D01*
X130644227Y-27957804D01*
X130668496Y-27954204D01*
X130693000Y-27953000D01*
X131943000Y-27953000D01*
X131967504Y-27954204D01*
X131967504Y-27954204D01*
G37*
D11*
X131318000Y-28578000D03*
D10*
G36*
X131967504Y-25154204D02*
X131991773Y-25157804D01*
X132015571Y-25163765D01*
X132038671Y-25172030D01*
X132060849Y-25182520D01*
X132081893Y-25195133D01*
X132101598Y-25209747D01*
X132119777Y-25226223D01*
X132136253Y-25244402D01*
X132150867Y-25264107D01*
X132163480Y-25285151D01*
X132173970Y-25307329D01*
X132182235Y-25330429D01*
X132188196Y-25354227D01*
X132191796Y-25378496D01*
X132193000Y-25403000D01*
X132193000Y-26153000D01*
X132191796Y-26177504D01*
X132188196Y-26201773D01*
X132182235Y-26225571D01*
X132173970Y-26248671D01*
X132163480Y-26270849D01*
X132150867Y-26291893D01*
X132136253Y-26311598D01*
X132119777Y-26329777D01*
X132101598Y-26346253D01*
X132081893Y-26360867D01*
X132060849Y-26373480D01*
X132038671Y-26383970D01*
X132015571Y-26392235D01*
X131991773Y-26398196D01*
X131967504Y-26401796D01*
X131943000Y-26403000D01*
X130693000Y-26403000D01*
X130668496Y-26401796D01*
X130644227Y-26398196D01*
X130620429Y-26392235D01*
X130597329Y-26383970D01*
X130575151Y-26373480D01*
X130554107Y-26360867D01*
X130534402Y-26346253D01*
X130516223Y-26329777D01*
X130499747Y-26311598D01*
X130485133Y-26291893D01*
X130472520Y-26270849D01*
X130462030Y-26248671D01*
X130453765Y-26225571D01*
X130447804Y-26201773D01*
X130444204Y-26177504D01*
X130443000Y-26153000D01*
X130443000Y-25403000D01*
X130444204Y-25378496D01*
X130447804Y-25354227D01*
X130453765Y-25330429D01*
X130462030Y-25307329D01*
X130472520Y-25285151D01*
X130485133Y-25264107D01*
X130499747Y-25244402D01*
X130516223Y-25226223D01*
X130534402Y-25209747D01*
X130554107Y-25195133D01*
X130575151Y-25182520D01*
X130597329Y-25172030D01*
X130620429Y-25163765D01*
X130644227Y-25157804D01*
X130668496Y-25154204D01*
X130693000Y-25153000D01*
X131943000Y-25153000D01*
X131967504Y-25154204D01*
X131967504Y-25154204D01*
G37*
D11*
X131318000Y-25778000D03*
G04 #@! TD*
D10*
G04 #@! TO.C,R21*
G36*
X132349504Y-40274204D02*
X132373773Y-40277804D01*
X132397571Y-40283765D01*
X132420671Y-40292030D01*
X132442849Y-40302520D01*
X132463893Y-40315133D01*
X132483598Y-40329747D01*
X132501777Y-40346223D01*
X132518253Y-40364402D01*
X132532867Y-40384107D01*
X132545480Y-40405151D01*
X132555970Y-40427329D01*
X132564235Y-40450429D01*
X132570196Y-40474227D01*
X132573796Y-40498496D01*
X132575000Y-40523000D01*
X132575000Y-41773000D01*
X132573796Y-41797504D01*
X132570196Y-41821773D01*
X132564235Y-41845571D01*
X132555970Y-41868671D01*
X132545480Y-41890849D01*
X132532867Y-41911893D01*
X132518253Y-41931598D01*
X132501777Y-41949777D01*
X132483598Y-41966253D01*
X132463893Y-41980867D01*
X132442849Y-41993480D01*
X132420671Y-42003970D01*
X132397571Y-42012235D01*
X132373773Y-42018196D01*
X132349504Y-42021796D01*
X132325000Y-42023000D01*
X131575000Y-42023000D01*
X131550496Y-42021796D01*
X131526227Y-42018196D01*
X131502429Y-42012235D01*
X131479329Y-42003970D01*
X131457151Y-41993480D01*
X131436107Y-41980867D01*
X131416402Y-41966253D01*
X131398223Y-41949777D01*
X131381747Y-41931598D01*
X131367133Y-41911893D01*
X131354520Y-41890849D01*
X131344030Y-41868671D01*
X131335765Y-41845571D01*
X131329804Y-41821773D01*
X131326204Y-41797504D01*
X131325000Y-41773000D01*
X131325000Y-40523000D01*
X131326204Y-40498496D01*
X131329804Y-40474227D01*
X131335765Y-40450429D01*
X131344030Y-40427329D01*
X131354520Y-40405151D01*
X131367133Y-40384107D01*
X131381747Y-40364402D01*
X131398223Y-40346223D01*
X131416402Y-40329747D01*
X131436107Y-40315133D01*
X131457151Y-40302520D01*
X131479329Y-40292030D01*
X131502429Y-40283765D01*
X131526227Y-40277804D01*
X131550496Y-40274204D01*
X131575000Y-40273000D01*
X132325000Y-40273000D01*
X132349504Y-40274204D01*
X132349504Y-40274204D01*
G37*
D11*
X131950000Y-41148000D03*
D10*
G36*
X135149504Y-40274204D02*
X135173773Y-40277804D01*
X135197571Y-40283765D01*
X135220671Y-40292030D01*
X135242849Y-40302520D01*
X135263893Y-40315133D01*
X135283598Y-40329747D01*
X135301777Y-40346223D01*
X135318253Y-40364402D01*
X135332867Y-40384107D01*
X135345480Y-40405151D01*
X135355970Y-40427329D01*
X135364235Y-40450429D01*
X135370196Y-40474227D01*
X135373796Y-40498496D01*
X135375000Y-40523000D01*
X135375000Y-41773000D01*
X135373796Y-41797504D01*
X135370196Y-41821773D01*
X135364235Y-41845571D01*
X135355970Y-41868671D01*
X135345480Y-41890849D01*
X135332867Y-41911893D01*
X135318253Y-41931598D01*
X135301777Y-41949777D01*
X135283598Y-41966253D01*
X135263893Y-41980867D01*
X135242849Y-41993480D01*
X135220671Y-42003970D01*
X135197571Y-42012235D01*
X135173773Y-42018196D01*
X135149504Y-42021796D01*
X135125000Y-42023000D01*
X134375000Y-42023000D01*
X134350496Y-42021796D01*
X134326227Y-42018196D01*
X134302429Y-42012235D01*
X134279329Y-42003970D01*
X134257151Y-41993480D01*
X134236107Y-41980867D01*
X134216402Y-41966253D01*
X134198223Y-41949777D01*
X134181747Y-41931598D01*
X134167133Y-41911893D01*
X134154520Y-41890849D01*
X134144030Y-41868671D01*
X134135765Y-41845571D01*
X134129804Y-41821773D01*
X134126204Y-41797504D01*
X134125000Y-41773000D01*
X134125000Y-40523000D01*
X134126204Y-40498496D01*
X134129804Y-40474227D01*
X134135765Y-40450429D01*
X134144030Y-40427329D01*
X134154520Y-40405151D01*
X134167133Y-40384107D01*
X134181747Y-40364402D01*
X134198223Y-40346223D01*
X134216402Y-40329747D01*
X134236107Y-40315133D01*
X134257151Y-40302520D01*
X134279329Y-40292030D01*
X134302429Y-40283765D01*
X134326227Y-40277804D01*
X134350496Y-40274204D01*
X134375000Y-40273000D01*
X135125000Y-40273000D01*
X135149504Y-40274204D01*
X135149504Y-40274204D01*
G37*
D11*
X134750000Y-41148000D03*
G04 #@! TD*
D10*
G04 #@! TO.C,R22*
G36*
X136539504Y-27824204D02*
X136563773Y-27827804D01*
X136587571Y-27833765D01*
X136610671Y-27842030D01*
X136632849Y-27852520D01*
X136653893Y-27865133D01*
X136673598Y-27879747D01*
X136691777Y-27896223D01*
X136708253Y-27914402D01*
X136722867Y-27934107D01*
X136735480Y-27955151D01*
X136745970Y-27977329D01*
X136754235Y-28000429D01*
X136760196Y-28024227D01*
X136763796Y-28048496D01*
X136765000Y-28073000D01*
X136765000Y-28823000D01*
X136763796Y-28847504D01*
X136760196Y-28871773D01*
X136754235Y-28895571D01*
X136745970Y-28918671D01*
X136735480Y-28940849D01*
X136722867Y-28961893D01*
X136708253Y-28981598D01*
X136691777Y-28999777D01*
X136673598Y-29016253D01*
X136653893Y-29030867D01*
X136632849Y-29043480D01*
X136610671Y-29053970D01*
X136587571Y-29062235D01*
X136563773Y-29068196D01*
X136539504Y-29071796D01*
X136515000Y-29073000D01*
X135265000Y-29073000D01*
X135240496Y-29071796D01*
X135216227Y-29068196D01*
X135192429Y-29062235D01*
X135169329Y-29053970D01*
X135147151Y-29043480D01*
X135126107Y-29030867D01*
X135106402Y-29016253D01*
X135088223Y-28999777D01*
X135071747Y-28981598D01*
X135057133Y-28961893D01*
X135044520Y-28940849D01*
X135034030Y-28918671D01*
X135025765Y-28895571D01*
X135019804Y-28871773D01*
X135016204Y-28847504D01*
X135015000Y-28823000D01*
X135015000Y-28073000D01*
X135016204Y-28048496D01*
X135019804Y-28024227D01*
X135025765Y-28000429D01*
X135034030Y-27977329D01*
X135044520Y-27955151D01*
X135057133Y-27934107D01*
X135071747Y-27914402D01*
X135088223Y-27896223D01*
X135106402Y-27879747D01*
X135126107Y-27865133D01*
X135147151Y-27852520D01*
X135169329Y-27842030D01*
X135192429Y-27833765D01*
X135216227Y-27827804D01*
X135240496Y-27824204D01*
X135265000Y-27823000D01*
X136515000Y-27823000D01*
X136539504Y-27824204D01*
X136539504Y-27824204D01*
G37*
D11*
X135890000Y-28448000D03*
D10*
G36*
X136539504Y-25024204D02*
X136563773Y-25027804D01*
X136587571Y-25033765D01*
X136610671Y-25042030D01*
X136632849Y-25052520D01*
X136653893Y-25065133D01*
X136673598Y-25079747D01*
X136691777Y-25096223D01*
X136708253Y-25114402D01*
X136722867Y-25134107D01*
X136735480Y-25155151D01*
X136745970Y-25177329D01*
X136754235Y-25200429D01*
X136760196Y-25224227D01*
X136763796Y-25248496D01*
X136765000Y-25273000D01*
X136765000Y-26023000D01*
X136763796Y-26047504D01*
X136760196Y-26071773D01*
X136754235Y-26095571D01*
X136745970Y-26118671D01*
X136735480Y-26140849D01*
X136722867Y-26161893D01*
X136708253Y-26181598D01*
X136691777Y-26199777D01*
X136673598Y-26216253D01*
X136653893Y-26230867D01*
X136632849Y-26243480D01*
X136610671Y-26253970D01*
X136587571Y-26262235D01*
X136563773Y-26268196D01*
X136539504Y-26271796D01*
X136515000Y-26273000D01*
X135265000Y-26273000D01*
X135240496Y-26271796D01*
X135216227Y-26268196D01*
X135192429Y-26262235D01*
X135169329Y-26253970D01*
X135147151Y-26243480D01*
X135126107Y-26230867D01*
X135106402Y-26216253D01*
X135088223Y-26199777D01*
X135071747Y-26181598D01*
X135057133Y-26161893D01*
X135044520Y-26140849D01*
X135034030Y-26118671D01*
X135025765Y-26095571D01*
X135019804Y-26071773D01*
X135016204Y-26047504D01*
X135015000Y-26023000D01*
X135015000Y-25273000D01*
X135016204Y-25248496D01*
X135019804Y-25224227D01*
X135025765Y-25200429D01*
X135034030Y-25177329D01*
X135044520Y-25155151D01*
X135057133Y-25134107D01*
X135071747Y-25114402D01*
X135088223Y-25096223D01*
X135106402Y-25079747D01*
X135126107Y-25065133D01*
X135147151Y-25052520D01*
X135169329Y-25042030D01*
X135192429Y-25033765D01*
X135216227Y-25027804D01*
X135240496Y-25024204D01*
X135265000Y-25023000D01*
X136515000Y-25023000D01*
X136539504Y-25024204D01*
X136539504Y-25024204D01*
G37*
D11*
X135890000Y-25648000D03*
G04 #@! TD*
D10*
G04 #@! TO.C,R23*
G36*
X145937504Y-27830204D02*
X145961773Y-27833804D01*
X145985571Y-27839765D01*
X146008671Y-27848030D01*
X146030849Y-27858520D01*
X146051893Y-27871133D01*
X146071598Y-27885747D01*
X146089777Y-27902223D01*
X146106253Y-27920402D01*
X146120867Y-27940107D01*
X146133480Y-27961151D01*
X146143970Y-27983329D01*
X146152235Y-28006429D01*
X146158196Y-28030227D01*
X146161796Y-28054496D01*
X146163000Y-28079000D01*
X146163000Y-28829000D01*
X146161796Y-28853504D01*
X146158196Y-28877773D01*
X146152235Y-28901571D01*
X146143970Y-28924671D01*
X146133480Y-28946849D01*
X146120867Y-28967893D01*
X146106253Y-28987598D01*
X146089777Y-29005777D01*
X146071598Y-29022253D01*
X146051893Y-29036867D01*
X146030849Y-29049480D01*
X146008671Y-29059970D01*
X145985571Y-29068235D01*
X145961773Y-29074196D01*
X145937504Y-29077796D01*
X145913000Y-29079000D01*
X144663000Y-29079000D01*
X144638496Y-29077796D01*
X144614227Y-29074196D01*
X144590429Y-29068235D01*
X144567329Y-29059970D01*
X144545151Y-29049480D01*
X144524107Y-29036867D01*
X144504402Y-29022253D01*
X144486223Y-29005777D01*
X144469747Y-28987598D01*
X144455133Y-28967893D01*
X144442520Y-28946849D01*
X144432030Y-28924671D01*
X144423765Y-28901571D01*
X144417804Y-28877773D01*
X144414204Y-28853504D01*
X144413000Y-28829000D01*
X144413000Y-28079000D01*
X144414204Y-28054496D01*
X144417804Y-28030227D01*
X144423765Y-28006429D01*
X144432030Y-27983329D01*
X144442520Y-27961151D01*
X144455133Y-27940107D01*
X144469747Y-27920402D01*
X144486223Y-27902223D01*
X144504402Y-27885747D01*
X144524107Y-27871133D01*
X144545151Y-27858520D01*
X144567329Y-27848030D01*
X144590429Y-27839765D01*
X144614227Y-27833804D01*
X144638496Y-27830204D01*
X144663000Y-27829000D01*
X145913000Y-27829000D01*
X145937504Y-27830204D01*
X145937504Y-27830204D01*
G37*
D11*
X145288000Y-28454000D03*
D10*
G36*
X145937504Y-25030204D02*
X145961773Y-25033804D01*
X145985571Y-25039765D01*
X146008671Y-25048030D01*
X146030849Y-25058520D01*
X146051893Y-25071133D01*
X146071598Y-25085747D01*
X146089777Y-25102223D01*
X146106253Y-25120402D01*
X146120867Y-25140107D01*
X146133480Y-25161151D01*
X146143970Y-25183329D01*
X146152235Y-25206429D01*
X146158196Y-25230227D01*
X146161796Y-25254496D01*
X146163000Y-25279000D01*
X146163000Y-26029000D01*
X146161796Y-26053504D01*
X146158196Y-26077773D01*
X146152235Y-26101571D01*
X146143970Y-26124671D01*
X146133480Y-26146849D01*
X146120867Y-26167893D01*
X146106253Y-26187598D01*
X146089777Y-26205777D01*
X146071598Y-26222253D01*
X146051893Y-26236867D01*
X146030849Y-26249480D01*
X146008671Y-26259970D01*
X145985571Y-26268235D01*
X145961773Y-26274196D01*
X145937504Y-26277796D01*
X145913000Y-26279000D01*
X144663000Y-26279000D01*
X144638496Y-26277796D01*
X144614227Y-26274196D01*
X144590429Y-26268235D01*
X144567329Y-26259970D01*
X144545151Y-26249480D01*
X144524107Y-26236867D01*
X144504402Y-26222253D01*
X144486223Y-26205777D01*
X144469747Y-26187598D01*
X144455133Y-26167893D01*
X144442520Y-26146849D01*
X144432030Y-26124671D01*
X144423765Y-26101571D01*
X144417804Y-26077773D01*
X144414204Y-26053504D01*
X144413000Y-26029000D01*
X144413000Y-25279000D01*
X144414204Y-25254496D01*
X144417804Y-25230227D01*
X144423765Y-25206429D01*
X144432030Y-25183329D01*
X144442520Y-25161151D01*
X144455133Y-25140107D01*
X144469747Y-25120402D01*
X144486223Y-25102223D01*
X144504402Y-25085747D01*
X144524107Y-25071133D01*
X144545151Y-25058520D01*
X144567329Y-25048030D01*
X144590429Y-25039765D01*
X144614227Y-25033804D01*
X144638496Y-25030204D01*
X144663000Y-25029000D01*
X145913000Y-25029000D01*
X145937504Y-25030204D01*
X145937504Y-25030204D01*
G37*
D11*
X145288000Y-25654000D03*
G04 #@! TD*
D10*
G04 #@! TO.C,R24*
G36*
X146703504Y-40274204D02*
X146727773Y-40277804D01*
X146751571Y-40283765D01*
X146774671Y-40292030D01*
X146796849Y-40302520D01*
X146817893Y-40315133D01*
X146837598Y-40329747D01*
X146855777Y-40346223D01*
X146872253Y-40364402D01*
X146886867Y-40384107D01*
X146899480Y-40405151D01*
X146909970Y-40427329D01*
X146918235Y-40450429D01*
X146924196Y-40474227D01*
X146927796Y-40498496D01*
X146929000Y-40523000D01*
X146929000Y-41773000D01*
X146927796Y-41797504D01*
X146924196Y-41821773D01*
X146918235Y-41845571D01*
X146909970Y-41868671D01*
X146899480Y-41890849D01*
X146886867Y-41911893D01*
X146872253Y-41931598D01*
X146855777Y-41949777D01*
X146837598Y-41966253D01*
X146817893Y-41980867D01*
X146796849Y-41993480D01*
X146774671Y-42003970D01*
X146751571Y-42012235D01*
X146727773Y-42018196D01*
X146703504Y-42021796D01*
X146679000Y-42023000D01*
X145929000Y-42023000D01*
X145904496Y-42021796D01*
X145880227Y-42018196D01*
X145856429Y-42012235D01*
X145833329Y-42003970D01*
X145811151Y-41993480D01*
X145790107Y-41980867D01*
X145770402Y-41966253D01*
X145752223Y-41949777D01*
X145735747Y-41931598D01*
X145721133Y-41911893D01*
X145708520Y-41890849D01*
X145698030Y-41868671D01*
X145689765Y-41845571D01*
X145683804Y-41821773D01*
X145680204Y-41797504D01*
X145679000Y-41773000D01*
X145679000Y-40523000D01*
X145680204Y-40498496D01*
X145683804Y-40474227D01*
X145689765Y-40450429D01*
X145698030Y-40427329D01*
X145708520Y-40405151D01*
X145721133Y-40384107D01*
X145735747Y-40364402D01*
X145752223Y-40346223D01*
X145770402Y-40329747D01*
X145790107Y-40315133D01*
X145811151Y-40302520D01*
X145833329Y-40292030D01*
X145856429Y-40283765D01*
X145880227Y-40277804D01*
X145904496Y-40274204D01*
X145929000Y-40273000D01*
X146679000Y-40273000D01*
X146703504Y-40274204D01*
X146703504Y-40274204D01*
G37*
D11*
X146304000Y-41148000D03*
D10*
G36*
X149503504Y-40274204D02*
X149527773Y-40277804D01*
X149551571Y-40283765D01*
X149574671Y-40292030D01*
X149596849Y-40302520D01*
X149617893Y-40315133D01*
X149637598Y-40329747D01*
X149655777Y-40346223D01*
X149672253Y-40364402D01*
X149686867Y-40384107D01*
X149699480Y-40405151D01*
X149709970Y-40427329D01*
X149718235Y-40450429D01*
X149724196Y-40474227D01*
X149727796Y-40498496D01*
X149729000Y-40523000D01*
X149729000Y-41773000D01*
X149727796Y-41797504D01*
X149724196Y-41821773D01*
X149718235Y-41845571D01*
X149709970Y-41868671D01*
X149699480Y-41890849D01*
X149686867Y-41911893D01*
X149672253Y-41931598D01*
X149655777Y-41949777D01*
X149637598Y-41966253D01*
X149617893Y-41980867D01*
X149596849Y-41993480D01*
X149574671Y-42003970D01*
X149551571Y-42012235D01*
X149527773Y-42018196D01*
X149503504Y-42021796D01*
X149479000Y-42023000D01*
X148729000Y-42023000D01*
X148704496Y-42021796D01*
X148680227Y-42018196D01*
X148656429Y-42012235D01*
X148633329Y-42003970D01*
X148611151Y-41993480D01*
X148590107Y-41980867D01*
X148570402Y-41966253D01*
X148552223Y-41949777D01*
X148535747Y-41931598D01*
X148521133Y-41911893D01*
X148508520Y-41890849D01*
X148498030Y-41868671D01*
X148489765Y-41845571D01*
X148483804Y-41821773D01*
X148480204Y-41797504D01*
X148479000Y-41773000D01*
X148479000Y-40523000D01*
X148480204Y-40498496D01*
X148483804Y-40474227D01*
X148489765Y-40450429D01*
X148498030Y-40427329D01*
X148508520Y-40405151D01*
X148521133Y-40384107D01*
X148535747Y-40364402D01*
X148552223Y-40346223D01*
X148570402Y-40329747D01*
X148590107Y-40315133D01*
X148611151Y-40302520D01*
X148633329Y-40292030D01*
X148656429Y-40283765D01*
X148680227Y-40277804D01*
X148704496Y-40274204D01*
X148729000Y-40273000D01*
X149479000Y-40273000D01*
X149503504Y-40274204D01*
X149503504Y-40274204D01*
G37*
D11*
X149104000Y-41148000D03*
G04 #@! TD*
D10*
G04 #@! TO.C,R25*
G36*
X150509504Y-27830204D02*
X150533773Y-27833804D01*
X150557571Y-27839765D01*
X150580671Y-27848030D01*
X150602849Y-27858520D01*
X150623893Y-27871133D01*
X150643598Y-27885747D01*
X150661777Y-27902223D01*
X150678253Y-27920402D01*
X150692867Y-27940107D01*
X150705480Y-27961151D01*
X150715970Y-27983329D01*
X150724235Y-28006429D01*
X150730196Y-28030227D01*
X150733796Y-28054496D01*
X150735000Y-28079000D01*
X150735000Y-28829000D01*
X150733796Y-28853504D01*
X150730196Y-28877773D01*
X150724235Y-28901571D01*
X150715970Y-28924671D01*
X150705480Y-28946849D01*
X150692867Y-28967893D01*
X150678253Y-28987598D01*
X150661777Y-29005777D01*
X150643598Y-29022253D01*
X150623893Y-29036867D01*
X150602849Y-29049480D01*
X150580671Y-29059970D01*
X150557571Y-29068235D01*
X150533773Y-29074196D01*
X150509504Y-29077796D01*
X150485000Y-29079000D01*
X149235000Y-29079000D01*
X149210496Y-29077796D01*
X149186227Y-29074196D01*
X149162429Y-29068235D01*
X149139329Y-29059970D01*
X149117151Y-29049480D01*
X149096107Y-29036867D01*
X149076402Y-29022253D01*
X149058223Y-29005777D01*
X149041747Y-28987598D01*
X149027133Y-28967893D01*
X149014520Y-28946849D01*
X149004030Y-28924671D01*
X148995765Y-28901571D01*
X148989804Y-28877773D01*
X148986204Y-28853504D01*
X148985000Y-28829000D01*
X148985000Y-28079000D01*
X148986204Y-28054496D01*
X148989804Y-28030227D01*
X148995765Y-28006429D01*
X149004030Y-27983329D01*
X149014520Y-27961151D01*
X149027133Y-27940107D01*
X149041747Y-27920402D01*
X149058223Y-27902223D01*
X149076402Y-27885747D01*
X149096107Y-27871133D01*
X149117151Y-27858520D01*
X149139329Y-27848030D01*
X149162429Y-27839765D01*
X149186227Y-27833804D01*
X149210496Y-27830204D01*
X149235000Y-27829000D01*
X150485000Y-27829000D01*
X150509504Y-27830204D01*
X150509504Y-27830204D01*
G37*
D11*
X149860000Y-28454000D03*
D10*
G36*
X150509504Y-25030204D02*
X150533773Y-25033804D01*
X150557571Y-25039765D01*
X150580671Y-25048030D01*
X150602849Y-25058520D01*
X150623893Y-25071133D01*
X150643598Y-25085747D01*
X150661777Y-25102223D01*
X150678253Y-25120402D01*
X150692867Y-25140107D01*
X150705480Y-25161151D01*
X150715970Y-25183329D01*
X150724235Y-25206429D01*
X150730196Y-25230227D01*
X150733796Y-25254496D01*
X150735000Y-25279000D01*
X150735000Y-26029000D01*
X150733796Y-26053504D01*
X150730196Y-26077773D01*
X150724235Y-26101571D01*
X150715970Y-26124671D01*
X150705480Y-26146849D01*
X150692867Y-26167893D01*
X150678253Y-26187598D01*
X150661777Y-26205777D01*
X150643598Y-26222253D01*
X150623893Y-26236867D01*
X150602849Y-26249480D01*
X150580671Y-26259970D01*
X150557571Y-26268235D01*
X150533773Y-26274196D01*
X150509504Y-26277796D01*
X150485000Y-26279000D01*
X149235000Y-26279000D01*
X149210496Y-26277796D01*
X149186227Y-26274196D01*
X149162429Y-26268235D01*
X149139329Y-26259970D01*
X149117151Y-26249480D01*
X149096107Y-26236867D01*
X149076402Y-26222253D01*
X149058223Y-26205777D01*
X149041747Y-26187598D01*
X149027133Y-26167893D01*
X149014520Y-26146849D01*
X149004030Y-26124671D01*
X148995765Y-26101571D01*
X148989804Y-26077773D01*
X148986204Y-26053504D01*
X148985000Y-26029000D01*
X148985000Y-25279000D01*
X148986204Y-25254496D01*
X148989804Y-25230227D01*
X148995765Y-25206429D01*
X149004030Y-25183329D01*
X149014520Y-25161151D01*
X149027133Y-25140107D01*
X149041747Y-25120402D01*
X149058223Y-25102223D01*
X149076402Y-25085747D01*
X149096107Y-25071133D01*
X149117151Y-25058520D01*
X149139329Y-25048030D01*
X149162429Y-25039765D01*
X149186227Y-25033804D01*
X149210496Y-25030204D01*
X149235000Y-25029000D01*
X150485000Y-25029000D01*
X150509504Y-25030204D01*
X150509504Y-25030204D01*
G37*
D11*
X149860000Y-25654000D03*
G04 #@! TD*
M02*
