M48
;DRILL file {KiCad 5.0.2-bee76a0~70~ubuntu18.04.1} date So 03 Nov 2019 19:36:46 CET
;FORMAT={-:-/ absolute / inch / decimal}
FMAT,2
INCH,TZ
T1C0.0157
T2C0.0236
T3C0.0315
T4C0.0354
T5C0.0394
T6C0.0433
T7C0.0512
%
G90
G05
T1
X0.8Y-1.73
X0.88Y-2.41
X1.78Y-1.8
X2.74Y-1.8
X3.72Y-2.23
X3.81Y-1.64
X3.82Y-2.19
X3.92Y-2.15
X3.99Y-2.12
T3
X5.72Y-1.36
X5.9169Y-1.36
X3.12Y-2.06
X3.12Y-2.66
X3.22Y-2.06
X3.22Y-2.66
X3.32Y-2.06
X3.32Y-2.66
X3.42Y-2.06
X3.42Y-2.66
X3.52Y-2.06
X3.52Y-2.66
X3.62Y-2.06
X3.62Y-2.66
X3.72Y-2.06
X3.72Y-2.66
X3.82Y-2.06
X3.82Y-2.66
X3.92Y-2.06
X3.92Y-2.66
X4.02Y-2.06
X4.02Y-2.66
X4.12Y-2.06
X4.12Y-2.66
X4.22Y-2.06
X4.22Y-2.66
X4.32Y-2.06
X4.32Y-2.66
X4.42Y-2.06
X4.42Y-2.66
X4.52Y-2.06
X4.52Y-2.66
X4.62Y-1.36
X4.8169Y-1.36
X1.75Y-2.33
X1.9469Y-2.33
X4.94Y-1.8831
X4.94Y-2.08
X5.35Y-1.93
X5.35Y-2.23
X5.45Y-1.93
X5.45Y-2.23
X1.01Y-2.33
X1.2069Y-2.33
X2.5Y-2.33
X2.6969Y-2.33
X5.55Y-1.93
X5.55Y-2.23
X5.65Y-1.93
X5.65Y-2.23
X5.15Y-1.36
X5.3469Y-1.36
T4
X1.0094Y-1.21
X1.0094Y-1.8006
X1.2063Y-1.8006
X1.4031Y-1.21
X1.4031Y-1.8006
X1.6Y-1.21
X1.6Y-1.8006
X1.9594Y-1.21
X1.9594Y-1.8006
X2.1563Y-1.8006
X2.3531Y-1.21
X2.3531Y-1.8006
X2.55Y-1.21
X2.55Y-1.8006
X2.9194Y-1.21
X2.9194Y-1.8006
X3.1163Y-1.8006
X3.3131Y-1.21
X3.3131Y-1.8006
X3.51Y-1.21
X3.51Y-1.8006
T5
X1.15Y-0.91
X1.1504Y-0.71
X2.84Y-0.91
X2.8404Y-0.71
X2.42Y-0.91
X2.4204Y-0.71
X3.25Y-0.91
X3.2504Y-0.71
T6
X3.7994Y-1.8656
X3.9963Y-0.7239
X4.1931Y-0.7239
X4.39Y-1.8656
T7
X5.21Y-2.82
X5.4069Y-2.82
X5.6037Y-2.82
X5.8006Y-2.82
X1.49Y-0.81
X1.6869Y-0.81
X1.8837Y-0.81
X2.0806Y-0.81
X4.78Y-0.71
X4.9769Y-0.71
X5.1737Y-0.71
X5.3706Y-0.71
X5.5674Y-0.71
X5.7643Y-0.71
T2
X5.7046Y-0.552G85X5.7046Y-0.5756
G05
X5.7439Y-0.8433G85X5.7439Y-0.8669
G05
X5.9211Y-0.8433G85X5.9211Y-0.8669
G05
X5.9605Y-0.552G85X5.9605Y-0.5756
G05
X5.1546Y-0.552G85X5.1546Y-0.5756
G05
X5.1939Y-0.8433G85X5.1939Y-0.8669
G05
X5.3711Y-0.8433G85X5.3711Y-0.8669
G05
X5.4105Y-0.552G85X5.4105Y-0.5756
G05
X4.6146Y-0.552G85X4.6146Y-0.5756
G05
X4.6539Y-0.8433G85X4.6539Y-0.8669
G05
X4.8311Y-0.8433G85X4.8311Y-0.8669
G05
X4.8705Y-0.552G85X4.8705Y-0.5756
G05
T0
M30
